<ttFont>
<head>
    <!-- Most of this table will be recalculated by the compiler -->
    <tableVersion value="1.0"/>
    <fontRevision value="1.002"/>
    <checkSumAdjustment value="0x16ff90be"/>
    <magicNumber value="0x5f0f3cf5"/>
    <flags value="00000000 00001111"/>
    <unitsPerEm value="1000"/>
    <created value="Sun Jun 13 15:20:27 2021"/>
    <modified value="Mon Jun 14 15:25:29 2021"/>
    <xMin value="-110"/>
    <yMin value="-265"/>
    <xMax value="1032"/>
    <yMax value="1133"/>
    <macStyle value="00000000 00000000"/>
    <lowestRecPPEM value="6"/>
    <fontDirectionHint value="2"/>
    <indexToLocFormat value="0"/>
    <glyphDataFormat value="0"/>
  </head>
    <TTGlyph name=".notdef" xMin="50" yMin="-265" xMax="450" yMax="1000">
      <contour>
        <pt x="50" y="-265" on="1"/>
        <pt x="50" y="1000" on="1"/>
        <pt x="450" y="1000" on="1"/>
        <pt x="450" y="-265" on="1"/>
      </contour>
      <contour>
        <pt x="100" y="-215" on="1"/>
        <pt x="400" y="-215" on="1"/>
        <pt x="400" y="950" on="1"/>
        <pt x="100" y="950" on="1"/>
      </contour>
    </TTGlyph>
    <TTGlyph name="A" xMin="45" yMin="0" xMax="619" yMax="740">
      <contour>
        <pt x="45" y="0" on="1"/>
        <pt x="312" y="740" on="1"/>
        <pt x="352" y="740" on="1"/>
        <pt x="619" y="0" on="1"/>
        <pt x="582" y="0" on="1"/>
        <pt x="503" y="220" on="1"/>
        <pt x="161" y="220" on="1"/>
        <pt x="82" y="0" on="1"/>
      </contour>
      <contour>
        <pt x="172" y="252" on="1"/>
        <pt x="492" y="252" on="1"/>
        <pt x="332" y="697" on="1"/>
      </contour>
    </TTGlyph>
    <TTGlyph name="AE" xMin="45" yMin="0" xMax="868" yMax="740">
      <contour>
        <pt x="45" y="0" on="1"/>
        <pt x="432" y="740" on="1"/>
        <pt x="862" y="740" on="1"/>
        <pt x="862" y="706" on="1"/>
        <pt x="480" y="706" on="1"/>
        <pt x="480" y="396" on="1"/>
        <pt x="813" y="396" on="1"/>
        <pt x="813" y="362" on="1"/>
        <pt x="480" y="362" on="1"/>
        <pt x="480" y="34" on="1"/>
        <pt x="868" y="34" on="1"/>
        <pt x="868" y="0" on="1"/>
        <pt x="445" y="0" on="1"/>
        <pt x="445" y="220" on="1"/>
        <pt x="197" y="220" on="1"/>
        <pt x="82" y="0" on="1"/>
      </contour>
      <contour>
        <pt x="214" y="252" on="1"/>
        <pt x="445" y="252" on="1"/>
        <pt x="445" y="695" on="1"/>
      </contour>
    </TTGlyph>
    <TTGlyph name="Aacute" xMin="40" yMin="0" xMax="614" yMax="980">
      <contour>
        <pt x="349" y="828" on="1"/>
        <pt x="315" y="828" on="1"/>
        <pt x="400" y="980" on="1"/>
        <pt x="441" y="980" on="1"/>
      </contour>
      <contour>
        <pt x="40" y="0" on="1"/>
        <pt x="307" y="740" on="1"/>
        <pt x="347" y="740" on="1"/>
        <pt x="614" y="0" on="1"/>
        <pt x="577" y="0" on="1"/>
        <pt x="498" y="220" on="1"/>
        <pt x="156" y="220" on="1"/>
        <pt x="77" y="0" on="1"/>
      </contour>
      <contour>
        <pt x="167" y="252" on="1"/>
        <pt x="487" y="252" on="1"/>
        <pt x="327" y="697" on="1"/>
      </contour>
    </TTGlyph>
    <TTGlyph name="Abreve" xMin="40" yMin="0" xMax="614" yMax="933">
      <contour>
        <pt x="327" y="823" on="1"/>
        <pt x="280" y="823" on="0"/>
        <pt x="225" y="856" on="0"/>
        <pt x="200" y="900" on="0"/>
        <pt x="193" y="933" on="0"/>
        <pt x="193" y="933" on="1"/>
        <pt x="224" y="933" on="1"/>
        <pt x="224" y="933" on="0"/>
        <pt x="230" y="909" on="0"/>
        <pt x="249" y="876" on="0"/>
        <pt x="291" y="852" on="0"/>
        <pt x="327" y="852" on="1"/>
        <pt x="363" y="852" on="0"/>
        <pt x="405" y="876" on="0"/>
        <pt x="424" y="909" on="0"/>
        <pt x="430" y="933" on="0"/>
        <pt x="430" y="933" on="1"/>
        <pt x="461" y="933" on="1"/>
        <pt x="461" y="933" on="0"/>
        <pt x="454" y="900" on="0"/>
        <pt x="429" y="856" on="0"/>
        <pt x="374" y="823" on="0"/>
      </contour>
      <contour>
        <pt x="40" y="0" on="1"/>
        <pt x="307" y="740" on="1"/>
        <pt x="347" y="740" on="1"/>
        <pt x="614" y="0" on="1"/>
        <pt x="577" y="0" on="1"/>
        <pt x="498" y="220" on="1"/>
        <pt x="156" y="220" on="1"/>
        <pt x="77" y="0" on="1"/>
      </contour>
      <contour>
        <pt x="167" y="252" on="1"/>
        <pt x="487" y="252" on="1"/>
        <pt x="327" y="697" on="1"/>
      </contour>
    </TTGlyph>
    <TTGlyph name="Acircumflex" xMin="40" yMin="0" xMax="614" yMax="956">
      <contour>
        <pt x="198" y="818" on="1"/>
        <pt x="309" y="956" on="1"/>
        <pt x="346" y="956" on="1"/>
        <pt x="457" y="818" on="1"/>
        <pt x="420" y="818" on="1"/>
        <pt x="328" y="932" on="1"/>
        <pt x="235" y="818" on="1"/>
      </contour>
      <contour>
        <pt x="40" y="0" on="1"/>
        <pt x="307" y="740" on="1"/>
        <pt x="347" y="740" on="1"/>
        <pt x="614" y="0" on="1"/>
        <pt x="577" y="0" on="1"/>
        <pt x="498" y="220" on="1"/>
        <pt x="156" y="220" on="1"/>
        <pt x="77" y="0" on="1"/>
      </contour>
      <contour>
        <pt x="167" y="252" on="1"/>
        <pt x="487" y="252" on="1"/>
        <pt x="327" y="697" on="1"/>
      </contour>
    </TTGlyph>
    <TTGlyph name="Adieresis" xMin="40" yMin="0" xMax="614" yMax="912">
      <contour>
        <pt x="396" y="840" on="1"/>
        <pt x="381" y="840" on="0"/>
        <pt x="361" y="861" on="0"/>
        <pt x="361" y="876" on="1"/>
        <pt x="361" y="891" on="0"/>
        <pt x="381" y="912" on="0"/>
        <pt x="396" y="912" on="1"/>
        <pt x="411" y="912" on="0"/>
        <pt x="432" y="891" on="0"/>
        <pt x="432" y="876" on="1"/>
        <pt x="432" y="861" on="0"/>
        <pt x="411" y="840" on="0"/>
      </contour>
      <contour>
        <pt x="257" y="840" on="1"/>
        <pt x="242" y="840" on="0"/>
        <pt x="222" y="861" on="0"/>
        <pt x="222" y="876" on="1"/>
        <pt x="222" y="891" on="0"/>
        <pt x="242" y="912" on="0"/>
        <pt x="257" y="912" on="1"/>
        <pt x="272" y="912" on="0"/>
        <pt x="293" y="891" on="0"/>
        <pt x="293" y="876" on="1"/>
        <pt x="293" y="861" on="0"/>
        <pt x="272" y="840" on="0"/>
      </contour>
      <contour>
        <pt x="40" y="0" on="1"/>
        <pt x="307" y="740" on="1"/>
        <pt x="347" y="740" on="1"/>
        <pt x="614" y="0" on="1"/>
        <pt x="577" y="0" on="1"/>
        <pt x="498" y="220" on="1"/>
        <pt x="156" y="220" on="1"/>
        <pt x="77" y="0" on="1"/>
      </contour>
      <contour>
        <pt x="167" y="252" on="1"/>
        <pt x="487" y="252" on="1"/>
        <pt x="327" y="697" on="1"/>
      </contour>
    </TTGlyph>
    <TTGlyph name="Agrave" xMin="40" yMin="0" xMax="614" yMax="980">
      <contour>
        <pt x="307" y="828" on="1"/>
        <pt x="215" y="980" on="1"/>
        <pt x="256" y="980" on="1"/>
        <pt x="341" y="828" on="1"/>
      </contour>
      <contour>
        <pt x="40" y="0" on="1"/>
        <pt x="307" y="740" on="1"/>
        <pt x="347" y="740" on="1"/>
        <pt x="614" y="0" on="1"/>
        <pt x="577" y="0" on="1"/>
        <pt x="498" y="220" on="1"/>
        <pt x="156" y="220" on="1"/>
        <pt x="77" y="0" on="1"/>
      </contour>
      <contour>
        <pt x="167" y="252" on="1"/>
        <pt x="487" y="252" on="1"/>
        <pt x="327" y="697" on="1"/>
      </contour>
    </TTGlyph>
    <TTGlyph name="Amacron" xMin="40" yMin="0" xMax="614" yMax="878">
      <contour>
        <pt x="187" y="848" on="1"/>
        <pt x="187" y="878" on="1"/>
        <pt x="467" y="878" on="1"/>
        <pt x="467" y="848" on="1"/>
      </contour>
      <contour>
        <pt x="40" y="0" on="1"/>
        <pt x="307" y="740" on="1"/>
        <pt x="347" y="740" on="1"/>
        <pt x="614" y="0" on="1"/>
        <pt x="577" y="0" on="1"/>
        <pt x="498" y="220" on="1"/>
        <pt x="156" y="220" on="1"/>
        <pt x="77" y="0" on="1"/>
      </contour>
      <contour>
        <pt x="167" y="252" on="1"/>
        <pt x="487" y="252" on="1"/>
        <pt x="327" y="697" on="1"/>
      </contour>
    </TTGlyph>
    <TTGlyph name="Aogonek" xMin="40" yMin="-149" xMax="658" yMax="740">
      <contour>
        <pt x="40" y="0" on="1"/>
        <pt x="307" y="740" on="1"/>
        <pt x="347" y="740" on="1"/>
        <pt x="614" y="0" on="1"/>
        <pt x="614" y="0" on="0"/>
        <pt x="585" y="-15" on="0"/>
        <pt x="556" y="-47" on="0"/>
        <pt x="556" y="-71" on="1"/>
        <pt x="556" y="-93" on="0"/>
        <pt x="587" y="-120" on="0"/>
        <pt x="618" y="-120" on="1"/>
        <pt x="633" y="-120" on="0"/>
        <pt x="658" y="-115" on="0"/>
        <pt x="658" y="-115" on="1"/>
        <pt x="658" y="-143" on="1"/>
        <pt x="658" y="-143" on="0"/>
        <pt x="632" y="-149" on="0"/>
        <pt x="614" y="-149" on="1"/>
        <pt x="573" y="-149" on="0"/>
        <pt x="525" y="-108" on="0"/>
        <pt x="525" y="-75" on="1"/>
        <pt x="525" y="-44" on="0"/>
        <pt x="561" y="-6" on="0"/>
        <pt x="576" y="3" on="1"/>
        <pt x="498" y="220" on="1"/>
        <pt x="156" y="220" on="1"/>
        <pt x="77" y="0" on="1"/>
      </contour>
      <contour>
        <pt x="167" y="252" on="1"/>
        <pt x="487" y="252" on="1"/>
        <pt x="327" y="697" on="1"/>
      </contour>
    </TTGlyph>
    <TTGlyph name="Aring" xMin="40" yMin="0" xMax="614" yMax="1011">
      <contour>
        <pt x="327" y="824" on="1"/>
        <pt x="288" y="824" on="0"/>
        <pt x="234" y="879" on="0"/>
        <pt x="234" y="917" on="1"/>
        <pt x="234" y="956" on="0"/>
        <pt x="288" y="1011" on="0"/>
        <pt x="327" y="1011" on="1"/>
        <pt x="366" y="1011" on="0"/>
        <pt x="420" y="956" on="0"/>
        <pt x="420" y="917" on="1"/>
        <pt x="420" y="879" on="0"/>
        <pt x="366" y="824" on="0"/>
      </contour>
      <contour>
        <pt x="327" y="854" on="1"/>
        <pt x="353" y="854" on="0"/>
        <pt x="390" y="891" on="0"/>
        <pt x="390" y="917" on="1"/>
        <pt x="390" y="943" on="0"/>
        <pt x="353" y="981" on="0"/>
        <pt x="327" y="981" on="1"/>
        <pt x="301" y="981" on="0"/>
        <pt x="264" y="943" on="0"/>
        <pt x="264" y="917" on="1"/>
        <pt x="264" y="891" on="0"/>
        <pt x="301" y="854" on="0"/>
      </contour>
      <contour>
        <pt x="40" y="0" on="1"/>
        <pt x="307" y="740" on="1"/>
        <pt x="347" y="740" on="1"/>
        <pt x="614" y="0" on="1"/>
        <pt x="577" y="0" on="1"/>
        <pt x="498" y="220" on="1"/>
        <pt x="156" y="220" on="1"/>
        <pt x="77" y="0" on="1"/>
      </contour>
      <contour>
        <pt x="167" y="252" on="1"/>
        <pt x="487" y="252" on="1"/>
        <pt x="327" y="697" on="1"/>
      </contour>
    </TTGlyph>
    <TTGlyph name="Atilde" xMin="40" yMin="0" xMax="614" yMax="941">
      <contour>
        <pt x="387" y="831" on="1"/>
        <pt x="365" y="831" on="0"/>
        <pt x="334" y="855" on="0"/>
        <pt x="310" y="888" on="0"/>
        <pt x="285" y="912" on="0"/>
        <pt x="269" y="912" on="1"/>
        <pt x="250" y="912" on="0"/>
        <pt x="233" y="872" on="0"/>
        <pt x="233" y="836" on="1"/>
        <pt x="203" y="836" on="1"/>
        <pt x="203" y="880" on="0"/>
        <pt x="234" y="941" on="0"/>
        <pt x="269" y="941" on="1"/>
        <pt x="293" y="941" on="0"/>
        <pt x="325" y="917" on="0"/>
        <pt x="349" y="884" on="0"/>
        <pt x="372" y="860" on="0"/>
        <pt x="387" y="860" on="1"/>
        <pt x="406" y="860" on="0"/>
        <pt x="422" y="901" on="0"/>
        <pt x="422" y="936" on="1"/>
        <pt x="452" y="936" on="1"/>
        <pt x="452" y="893" on="0"/>
        <pt x="421" y="831" on="0"/>
      </contour>
      <contour>
        <pt x="40" y="0" on="1"/>
        <pt x="307" y="740" on="1"/>
        <pt x="347" y="740" on="1"/>
        <pt x="614" y="0" on="1"/>
        <pt x="577" y="0" on="1"/>
        <pt x="498" y="220" on="1"/>
        <pt x="156" y="220" on="1"/>
        <pt x="77" y="0" on="1"/>
      </contour>
      <contour>
        <pt x="167" y="252" on="1"/>
        <pt x="487" y="252" on="1"/>
        <pt x="327" y="697" on="1"/>
      </contour>
    </TTGlyph>
    <TTGlyph name="B" xMin="90" yMin="0" xMax="581" yMax="740">
      <contour>
        <pt x="90" y="0" on="1"/>
        <pt x="90" y="740" on="1"/>
        <pt x="358" y="740" on="1"/>
        <pt x="425" y="740" on="0"/>
        <pt x="512" y="685" on="0"/>
        <pt x="555" y="598" on="0"/>
        <pt x="555" y="551" on="1"/>
        <pt x="555" y="494" on="0"/>
        <pt x="494" y="395" on="0"/>
        <pt x="435" y="377" on="1"/>
        <pt x="435" y="373" on="1"/>
        <pt x="506" y="355" on="0"/>
        <pt x="581" y="257" on="0"/>
        <pt x="581" y="195" on="1"/>
        <pt x="581" y="147" on="0"/>
        <pt x="532" y="58" on="0"/>
        <pt x="434" y="0" on="0"/>
        <pt x="358" y="0" on="1"/>
      </contour>
      <contour>
        <pt x="358" y="706" on="1"/>
        <pt x="125" y="706" on="1"/>
        <pt x="125" y="390" on="1"/>
        <pt x="358" y="390" on="1"/>
        <pt x="413" y="390" on="0"/>
        <pt x="485" y="437" on="0"/>
        <pt x="522" y="509" on="0"/>
        <pt x="522" y="549" on="1"/>
        <pt x="522" y="588" on="0"/>
        <pt x="485" y="660" on="0"/>
        <pt x="413" y="706" on="0"/>
      </contour>
      <contour>
        <pt x="358" y="358" on="1"/>
        <pt x="125" y="358" on="1"/>
        <pt x="125" y="34" on="1"/>
        <pt x="358" y="34" on="1"/>
        <pt x="421" y="34" on="0"/>
        <pt x="505" y="81" on="0"/>
        <pt x="546" y="156" on="0"/>
        <pt x="546" y="196" on="1"/>
        <pt x="546" y="236" on="0"/>
        <pt x="505" y="310" on="0"/>
        <pt x="421" y="358" on="0"/>
      </contour>
    </TTGlyph>
    <TTGlyph name="C" xMin="60" yMin="-10" xMax="693" yMax="750">
      <contour>
        <pt x="395" y="-10" on="1"/>
        <pt x="311" y="-10" on="0"/>
        <pt x="186" y="54" on="0"/>
        <pt x="102" y="163" on="0"/>
        <pt x="60" y="299" on="0"/>
        <pt x="60" y="371" on="1"/>
        <pt x="60" y="442" on="0"/>
        <pt x="102" y="577" on="0"/>
        <pt x="186" y="686" on="0"/>
        <pt x="311" y="750" on="0"/>
        <pt x="395" y="750" on="1"/>
        <pt x="462" y="750" on="0"/>
        <pt x="559" y="715" on="0"/>
        <pt x="625" y="659" on="0"/>
        <pt x="665" y="597" on="0"/>
        <pt x="686" y="541" on="0"/>
        <pt x="693" y="506" on="0"/>
        <pt x="693" y="506" on="1"/>
        <pt x="656" y="506" on="1"/>
        <pt x="656" y="506" on="0"/>
        <pt x="646" y="548" on="0"/>
        <pt x="617" y="611" on="0"/>
        <pt x="560" y="674" on="0"/>
        <pt x="466" y="716" on="0"/>
        <pt x="395" y="716" on="1"/>
        <pt x="320" y="716" on="0"/>
        <pt x="208" y="657" on="0"/>
        <pt x="133" y="558" on="0"/>
        <pt x="95" y="435" on="0"/>
        <pt x="95" y="371" on="1"/>
        <pt x="95" y="306" on="0"/>
        <pt x="133" y="182" on="0"/>
        <pt x="208" y="83" on="0"/>
        <pt x="320" y="24" on="0"/>
        <pt x="395" y="24" on="1"/>
        <pt x="466" y="24" on="0"/>
        <pt x="560" y="66" on="0"/>
        <pt x="617" y="129" on="0"/>
        <pt x="646" y="192" on="0"/>
        <pt x="656" y="234" on="0"/>
        <pt x="656" y="234" on="1"/>
        <pt x="693" y="234" on="1"/>
        <pt x="693" y="234" on="0"/>
        <pt x="686" y="199" on="0"/>
        <pt x="665" y="143" on="0"/>
        <pt x="625" y="81" on="0"/>
        <pt x="559" y="25" on="0"/>
        <pt x="462" y="-10" on="0"/>
      </contour>
    </TTGlyph>
    <TTGlyph name="Cacute" xMin="60" yMin="-10" xMax="693" yMax="980">
      <contour>
        <pt x="417" y="828" on="1"/>
        <pt x="383" y="828" on="1"/>
        <pt x="468" y="980" on="1"/>
        <pt x="509" y="980" on="1"/>
      </contour>
      <contour>
        <pt x="395" y="-10" on="1"/>
        <pt x="311" y="-10" on="0"/>
        <pt x="186" y="54" on="0"/>
        <pt x="102" y="163" on="0"/>
        <pt x="60" y="299" on="0"/>
        <pt x="60" y="371" on="1"/>
        <pt x="60" y="442" on="0"/>
        <pt x="102" y="577" on="0"/>
        <pt x="186" y="686" on="0"/>
        <pt x="311" y="750" on="0"/>
        <pt x="395" y="750" on="1"/>
        <pt x="462" y="750" on="0"/>
        <pt x="559" y="715" on="0"/>
        <pt x="625" y="659" on="0"/>
        <pt x="665" y="597" on="0"/>
        <pt x="686" y="541" on="0"/>
        <pt x="693" y="506" on="0"/>
        <pt x="693" y="506" on="1"/>
        <pt x="656" y="506" on="1"/>
        <pt x="656" y="506" on="0"/>
        <pt x="646" y="548" on="0"/>
        <pt x="617" y="611" on="0"/>
        <pt x="560" y="674" on="0"/>
        <pt x="466" y="716" on="0"/>
        <pt x="395" y="716" on="1"/>
        <pt x="320" y="716" on="0"/>
        <pt x="208" y="657" on="0"/>
        <pt x="133" y="558" on="0"/>
        <pt x="95" y="435" on="0"/>
        <pt x="95" y="371" on="1"/>
        <pt x="95" y="306" on="0"/>
        <pt x="133" y="182" on="0"/>
        <pt x="208" y="83" on="0"/>
        <pt x="320" y="24" on="0"/>
        <pt x="395" y="24" on="1"/>
        <pt x="466" y="24" on="0"/>
        <pt x="560" y="66" on="0"/>
        <pt x="617" y="129" on="0"/>
        <pt x="646" y="192" on="0"/>
        <pt x="656" y="234" on="0"/>
        <pt x="656" y="234" on="1"/>
        <pt x="693" y="234" on="1"/>
        <pt x="693" y="234" on="0"/>
        <pt x="686" y="199" on="0"/>
        <pt x="665" y="143" on="0"/>
        <pt x="625" y="81" on="0"/>
        <pt x="559" y="25" on="0"/>
        <pt x="462" y="-10" on="0"/>
      </contour>
    </TTGlyph>
    <TTGlyph name="Ccaron" xMin="60" yMin="-10" xMax="693" yMax="970">
      <contour>
        <pt x="376" y="818" on="1"/>
        <pt x="265" y="970" on="1"/>
        <pt x="302" y="970" on="1"/>
        <pt x="395" y="846" on="1"/>
        <pt x="487" y="970" on="1"/>
        <pt x="524" y="970" on="1"/>
        <pt x="413" y="818" on="1"/>
      </contour>
      <contour>
        <pt x="395" y="-10" on="1"/>
        <pt x="311" y="-10" on="0"/>
        <pt x="186" y="54" on="0"/>
        <pt x="102" y="163" on="0"/>
        <pt x="60" y="299" on="0"/>
        <pt x="60" y="371" on="1"/>
        <pt x="60" y="442" on="0"/>
        <pt x="102" y="577" on="0"/>
        <pt x="186" y="686" on="0"/>
        <pt x="311" y="750" on="0"/>
        <pt x="395" y="750" on="1"/>
        <pt x="462" y="750" on="0"/>
        <pt x="559" y="715" on="0"/>
        <pt x="625" y="659" on="0"/>
        <pt x="665" y="597" on="0"/>
        <pt x="686" y="541" on="0"/>
        <pt x="693" y="506" on="0"/>
        <pt x="693" y="506" on="1"/>
        <pt x="656" y="506" on="1"/>
        <pt x="656" y="506" on="0"/>
        <pt x="646" y="548" on="0"/>
        <pt x="617" y="611" on="0"/>
        <pt x="560" y="674" on="0"/>
        <pt x="466" y="716" on="0"/>
        <pt x="395" y="716" on="1"/>
        <pt x="320" y="716" on="0"/>
        <pt x="208" y="657" on="0"/>
        <pt x="133" y="558" on="0"/>
        <pt x="95" y="435" on="0"/>
        <pt x="95" y="371" on="1"/>
        <pt x="95" y="306" on="0"/>
        <pt x="133" y="182" on="0"/>
        <pt x="208" y="83" on="0"/>
        <pt x="320" y="24" on="0"/>
        <pt x="395" y="24" on="1"/>
        <pt x="466" y="24" on="0"/>
        <pt x="560" y="66" on="0"/>
        <pt x="617" y="129" on="0"/>
        <pt x="646" y="192" on="0"/>
        <pt x="656" y="234" on="0"/>
        <pt x="656" y="234" on="1"/>
        <pt x="693" y="234" on="1"/>
        <pt x="693" y="234" on="0"/>
        <pt x="686" y="199" on="0"/>
        <pt x="665" y="143" on="0"/>
        <pt x="625" y="81" on="0"/>
        <pt x="559" y="25" on="0"/>
        <pt x="462" y="-10" on="0"/>
      </contour>
    </TTGlyph>
    <TTGlyph name="Ccedilla" xMin="60" yMin="-249" xMax="693" yMax="750">
      <contour>
        <pt x="411" y="-249" on="1"/>
        <pt x="386" y="-249" on="0"/>
        <pt x="349" y="-241" on="0"/>
        <pt x="349" y="-241" on="1"/>
        <pt x="349" y="-209" on="1"/>
        <pt x="349" y="-209" on="0"/>
        <pt x="389" y="-218" on="0"/>
        <pt x="411" y="-218" on="1"/>
        <pt x="452" y="-218" on="0"/>
        <pt x="486" y="-178" on="0"/>
        <pt x="486" y="-157" on="1"/>
        <pt x="486" y="-136" on="0"/>
        <pt x="454" y="-102" on="0"/>
        <pt x="421" y="-102" on="1"/>
        <pt x="393" y="-102" on="0"/>
        <pt x="360" y="-122" on="0"/>
        <pt x="360" y="-122" on="1"/>
        <pt x="341" y="-103" on="1"/>
        <pt x="390" y="-10" on="1"/>
        <pt x="307" y="-9" on="0"/>
        <pt x="184" y="56" on="0"/>
        <pt x="101" y="165" on="0"/>
        <pt x="60" y="300" on="0"/>
        <pt x="60" y="371" on="1"/>
        <pt x="60" y="442" on="0"/>
        <pt x="102" y="577" on="0"/>
        <pt x="186" y="686" on="0"/>
        <pt x="311" y="750" on="0"/>
        <pt x="395" y="750" on="1"/>
        <pt x="462" y="750" on="0"/>
        <pt x="559" y="715" on="0"/>
        <pt x="625" y="659" on="0"/>
        <pt x="665" y="597" on="0"/>
        <pt x="686" y="541" on="0"/>
        <pt x="693" y="506" on="0"/>
        <pt x="693" y="506" on="1"/>
        <pt x="656" y="506" on="1"/>
        <pt x="656" y="506" on="0"/>
        <pt x="646" y="548" on="0"/>
        <pt x="617" y="611" on="0"/>
        <pt x="560" y="674" on="0"/>
        <pt x="466" y="716" on="0"/>
        <pt x="395" y="716" on="1"/>
        <pt x="320" y="716" on="0"/>
        <pt x="208" y="657" on="0"/>
        <pt x="133" y="558" on="0"/>
        <pt x="95" y="435" on="0"/>
        <pt x="95" y="371" on="1"/>
        <pt x="95" y="306" on="0"/>
        <pt x="133" y="182" on="0"/>
        <pt x="208" y="83" on="0"/>
        <pt x="320" y="24" on="0"/>
        <pt x="395" y="24" on="1"/>
        <pt x="466" y="24" on="0"/>
        <pt x="560" y="66" on="0"/>
        <pt x="617" y="129" on="0"/>
        <pt x="646" y="192" on="0"/>
        <pt x="656" y="234" on="0"/>
        <pt x="656" y="234" on="1"/>
        <pt x="693" y="234" on="1"/>
        <pt x="693" y="234" on="0"/>
        <pt x="683" y="188" on="0"/>
        <pt x="653" y="119" on="0"/>
        <pt x="593" y="48" on="0"/>
        <pt x="495" y="-4" on="0"/>
        <pt x="422" y="-9" on="1"/>
        <pt x="386" y="-78" on="1"/>
        <pt x="394" y="-75" on="0"/>
        <pt x="414" y="-71" on="0"/>
        <pt x="426" y="-71" on="1"/>
        <pt x="473" y="-71" on="0"/>
        <pt x="519" y="-123" on="0"/>
        <pt x="519" y="-155" on="1"/>
        <pt x="519" y="-176" on="0"/>
        <pt x="497" y="-220" on="0"/>
        <pt x="450" y="-249" on="0"/>
      </contour>
    </TTGlyph>
    <TTGlyph name="Cdotaccent" xMin="60" yMin="-10" xMax="693" yMax="917">
      <contour>
        <pt x="394" y="845" on="1"/>
        <pt x="379" y="845" on="0"/>
        <pt x="359" y="866" on="0"/>
        <pt x="359" y="881" on="1"/>
        <pt x="359" y="896" on="0"/>
        <pt x="379" y="917" on="0"/>
        <pt x="394" y="917" on="1"/>
        <pt x="409" y="917" on="0"/>
        <pt x="430" y="896" on="0"/>
        <pt x="430" y="881" on="1"/>
        <pt x="430" y="866" on="0"/>
        <pt x="409" y="845" on="0"/>
      </contour>
      <contour>
        <pt x="395" y="-10" on="1"/>
        <pt x="311" y="-10" on="0"/>
        <pt x="186" y="54" on="0"/>
        <pt x="102" y="163" on="0"/>
        <pt x="60" y="299" on="0"/>
        <pt x="60" y="371" on="1"/>
        <pt x="60" y="442" on="0"/>
        <pt x="102" y="577" on="0"/>
        <pt x="186" y="686" on="0"/>
        <pt x="311" y="750" on="0"/>
        <pt x="395" y="750" on="1"/>
        <pt x="462" y="750" on="0"/>
        <pt x="559" y="715" on="0"/>
        <pt x="625" y="659" on="0"/>
        <pt x="665" y="597" on="0"/>
        <pt x="686" y="541" on="0"/>
        <pt x="693" y="506" on="0"/>
        <pt x="693" y="506" on="1"/>
        <pt x="656" y="506" on="1"/>
        <pt x="656" y="506" on="0"/>
        <pt x="646" y="548" on="0"/>
        <pt x="617" y="611" on="0"/>
        <pt x="560" y="674" on="0"/>
        <pt x="466" y="716" on="0"/>
        <pt x="395" y="716" on="1"/>
        <pt x="320" y="716" on="0"/>
        <pt x="208" y="657" on="0"/>
        <pt x="133" y="558" on="0"/>
        <pt x="95" y="435" on="0"/>
        <pt x="95" y="371" on="1"/>
        <pt x="95" y="306" on="0"/>
        <pt x="133" y="182" on="0"/>
        <pt x="208" y="83" on="0"/>
        <pt x="320" y="24" on="0"/>
        <pt x="395" y="24" on="1"/>
        <pt x="466" y="24" on="0"/>
        <pt x="560" y="66" on="0"/>
        <pt x="617" y="129" on="0"/>
        <pt x="646" y="192" on="0"/>
        <pt x="656" y="234" on="0"/>
        <pt x="656" y="234" on="1"/>
        <pt x="693" y="234" on="1"/>
        <pt x="693" y="234" on="0"/>
        <pt x="686" y="199" on="0"/>
        <pt x="665" y="143" on="0"/>
        <pt x="625" y="81" on="0"/>
        <pt x="559" y="25" on="0"/>
        <pt x="462" y="-10" on="0"/>
      </contour>
    </TTGlyph>
    <TTGlyph name="D" xMin="90" yMin="0" xMax="648" yMax="740">
      <contour>
        <pt x="90" y="0" on="1"/>
        <pt x="90" y="740" on="1"/>
        <pt x="303" y="740" on="1"/>
        <pt x="390" y="740" on="0"/>
        <pt x="519" y="677" on="0"/>
        <pt x="605" y="571" on="0"/>
        <pt x="648" y="439" on="0"/>
        <pt x="648" y="370" on="1"/>
        <pt x="648" y="301" on="0"/>
        <pt x="605" y="169" on="0"/>
        <pt x="519" y="63" on="0"/>
        <pt x="390" y="0" on="0"/>
        <pt x="303" y="0" on="1"/>
      </contour>
      <contour>
        <pt x="303" y="706" on="1"/>
        <pt x="125" y="706" on="1"/>
        <pt x="125" y="34" on="1"/>
        <pt x="303" y="34" on="1"/>
        <pt x="380" y="34" on="0"/>
        <pt x="496" y="91" on="0"/>
        <pt x="573" y="187" on="0"/>
        <pt x="612" y="307" on="0"/>
        <pt x="612" y="370" on="1"/>
        <pt x="612" y="433" on="0"/>
        <pt x="573" y="553" on="0"/>
        <pt x="496" y="649" on="0"/>
        <pt x="380" y="706" on="0"/>
      </contour>
    </TTGlyph>
    <TTGlyph name="Dcaron" xMin="90" yMin="0" xMax="648" yMax="970">
      <contour>
        <pt x="284" y="818" on="1"/>
        <pt x="173" y="970" on="1"/>
        <pt x="210" y="970" on="1"/>
        <pt x="303" y="846" on="1"/>
        <pt x="395" y="970" on="1"/>
        <pt x="432" y="970" on="1"/>
        <pt x="321" y="818" on="1"/>
      </contour>
      <contour>
        <pt x="90" y="0" on="1"/>
        <pt x="90" y="740" on="1"/>
        <pt x="303" y="740" on="1"/>
        <pt x="390" y="740" on="0"/>
        <pt x="519" y="677" on="0"/>
        <pt x="605" y="571" on="0"/>
        <pt x="648" y="439" on="0"/>
        <pt x="648" y="370" on="1"/>
        <pt x="648" y="301" on="0"/>
        <pt x="605" y="169" on="0"/>
        <pt x="519" y="63" on="0"/>
        <pt x="390" y="0" on="0"/>
        <pt x="303" y="0" on="1"/>
      </contour>
      <contour>
        <pt x="303" y="706" on="1"/>
        <pt x="125" y="706" on="1"/>
        <pt x="125" y="34" on="1"/>
        <pt x="303" y="34" on="1"/>
        <pt x="380" y="34" on="0"/>
        <pt x="496" y="91" on="0"/>
        <pt x="573" y="187" on="0"/>
        <pt x="612" y="307" on="0"/>
        <pt x="612" y="370" on="1"/>
        <pt x="612" y="433" on="0"/>
        <pt x="573" y="553" on="0"/>
        <pt x="496" y="649" on="0"/>
        <pt x="380" y="706" on="0"/>
      </contour>
    </TTGlyph>
    <TTGlyph name="Dcroat" xMin="30" yMin="0" xMax="693" yMax="740">
      <contour>
        <pt x="135" y="0" on="1"/>
        <pt x="135" y="354" on="1"/>
        <pt x="30" y="354" on="1"/>
        <pt x="30" y="386" on="1"/>
        <pt x="135" y="386" on="1"/>
        <pt x="135" y="740" on="1"/>
        <pt x="348" y="740" on="1"/>
        <pt x="435" y="740" on="0"/>
        <pt x="564" y="677" on="0"/>
        <pt x="650" y="571" on="0"/>
        <pt x="693" y="439" on="0"/>
        <pt x="693" y="370" on="1"/>
        <pt x="693" y="301" on="0"/>
        <pt x="650" y="169" on="0"/>
        <pt x="564" y="63" on="0"/>
        <pt x="435" y="0" on="0"/>
        <pt x="348" y="0" on="1"/>
      </contour>
      <contour>
        <pt x="343" y="354" on="1"/>
        <pt x="170" y="354" on="1"/>
        <pt x="170" y="34" on="1"/>
        <pt x="348" y="34" on="1"/>
        <pt x="425" y="34" on="0"/>
        <pt x="541" y="91" on="0"/>
        <pt x="618" y="187" on="0"/>
        <pt x="657" y="307" on="0"/>
        <pt x="657" y="370" on="1"/>
        <pt x="657" y="433" on="0"/>
        <pt x="618" y="553" on="0"/>
        <pt x="541" y="649" on="0"/>
        <pt x="425" y="706" on="0"/>
        <pt x="348" y="706" on="1"/>
        <pt x="170" y="706" on="1"/>
        <pt x="170" y="386" on="1"/>
        <pt x="343" y="386" on="1"/>
      </contour>
    </TTGlyph>
    <TTGlyph name="E" xMin="90" yMin="0" xMax="513" yMax="740">
      <contour>
        <pt x="90" y="0" on="1"/>
        <pt x="90" y="740" on="1"/>
        <pt x="507" y="740" on="1"/>
        <pt x="507" y="706" on="1"/>
        <pt x="125" y="706" on="1"/>
        <pt x="125" y="396" on="1"/>
        <pt x="458" y="396" on="1"/>
        <pt x="458" y="362" on="1"/>
        <pt x="125" y="362" on="1"/>
        <pt x="125" y="34" on="1"/>
        <pt x="513" y="34" on="1"/>
        <pt x="513" y="0" on="1"/>
      </contour>
    </TTGlyph>
    <TTGlyph name="Eacute" xMin="90" yMin="0" xMax="513" yMax="980">
      <contour>
        <pt x="316" y="828" on="1"/>
        <pt x="282" y="828" on="1"/>
        <pt x="367" y="980" on="1"/>
        <pt x="408" y="980" on="1"/>
      </contour>
      <contour>
        <pt x="90" y="0" on="1"/>
        <pt x="90" y="740" on="1"/>
        <pt x="507" y="740" on="1"/>
        <pt x="507" y="706" on="1"/>
        <pt x="125" y="706" on="1"/>
        <pt x="125" y="396" on="1"/>
        <pt x="458" y="396" on="1"/>
        <pt x="458" y="362" on="1"/>
        <pt x="125" y="362" on="1"/>
        <pt x="125" y="34" on="1"/>
        <pt x="513" y="34" on="1"/>
        <pt x="513" y="0" on="1"/>
      </contour>
    </TTGlyph>
    <TTGlyph name="Ecaron" xMin="90" yMin="0" xMax="513" yMax="970">
      <contour>
        <pt x="275" y="818" on="1"/>
        <pt x="164" y="970" on="1"/>
        <pt x="201" y="970" on="1"/>
        <pt x="294" y="846" on="1"/>
        <pt x="386" y="970" on="1"/>
        <pt x="423" y="970" on="1"/>
        <pt x="312" y="818" on="1"/>
      </contour>
      <contour>
        <pt x="90" y="0" on="1"/>
        <pt x="90" y="740" on="1"/>
        <pt x="507" y="740" on="1"/>
        <pt x="507" y="706" on="1"/>
        <pt x="125" y="706" on="1"/>
        <pt x="125" y="396" on="1"/>
        <pt x="458" y="396" on="1"/>
        <pt x="458" y="362" on="1"/>
        <pt x="125" y="362" on="1"/>
        <pt x="125" y="34" on="1"/>
        <pt x="513" y="34" on="1"/>
        <pt x="513" y="0" on="1"/>
      </contour>
    </TTGlyph>
    <TTGlyph name="Ecircumflex" xMin="90" yMin="0" xMax="513" yMax="956">
      <contour>
        <pt x="165" y="818" on="1"/>
        <pt x="276" y="956" on="1"/>
        <pt x="313" y="956" on="1"/>
        <pt x="424" y="818" on="1"/>
        <pt x="387" y="818" on="1"/>
        <pt x="295" y="932" on="1"/>
        <pt x="202" y="818" on="1"/>
      </contour>
      <contour>
        <pt x="90" y="0" on="1"/>
        <pt x="90" y="740" on="1"/>
        <pt x="507" y="740" on="1"/>
        <pt x="507" y="706" on="1"/>
        <pt x="125" y="706" on="1"/>
        <pt x="125" y="396" on="1"/>
        <pt x="458" y="396" on="1"/>
        <pt x="458" y="362" on="1"/>
        <pt x="125" y="362" on="1"/>
        <pt x="125" y="34" on="1"/>
        <pt x="513" y="34" on="1"/>
        <pt x="513" y="0" on="1"/>
      </contour>
    </TTGlyph>
    <TTGlyph name="Edieresis" xMin="90" yMin="0" xMax="513" yMax="912">
      <contour>
        <pt x="363" y="840" on="1"/>
        <pt x="348" y="840" on="0"/>
        <pt x="328" y="861" on="0"/>
        <pt x="328" y="876" on="1"/>
        <pt x="328" y="891" on="0"/>
        <pt x="348" y="912" on="0"/>
        <pt x="363" y="912" on="1"/>
        <pt x="378" y="912" on="0"/>
        <pt x="399" y="891" on="0"/>
        <pt x="399" y="876" on="1"/>
        <pt x="399" y="861" on="0"/>
        <pt x="378" y="840" on="0"/>
      </contour>
      <contour>
        <pt x="224" y="840" on="1"/>
        <pt x="209" y="840" on="0"/>
        <pt x="189" y="861" on="0"/>
        <pt x="189" y="876" on="1"/>
        <pt x="189" y="891" on="0"/>
        <pt x="209" y="912" on="0"/>
        <pt x="224" y="912" on="1"/>
        <pt x="239" y="912" on="0"/>
        <pt x="260" y="891" on="0"/>
        <pt x="260" y="876" on="1"/>
        <pt x="260" y="861" on="0"/>
        <pt x="239" y="840" on="0"/>
      </contour>
      <contour>
        <pt x="90" y="0" on="1"/>
        <pt x="90" y="740" on="1"/>
        <pt x="507" y="740" on="1"/>
        <pt x="507" y="706" on="1"/>
        <pt x="125" y="706" on="1"/>
        <pt x="125" y="396" on="1"/>
        <pt x="458" y="396" on="1"/>
        <pt x="458" y="362" on="1"/>
        <pt x="125" y="362" on="1"/>
        <pt x="125" y="34" on="1"/>
        <pt x="513" y="34" on="1"/>
        <pt x="513" y="0" on="1"/>
      </contour>
    </TTGlyph>
    <TTGlyph name="Edotaccent" xMin="90" yMin="0" xMax="513" yMax="917">
      <contour>
        <pt x="293" y="845" on="1"/>
        <pt x="278" y="845" on="0"/>
        <pt x="258" y="866" on="0"/>
        <pt x="258" y="881" on="1"/>
        <pt x="258" y="896" on="0"/>
        <pt x="278" y="917" on="0"/>
        <pt x="293" y="917" on="1"/>
        <pt x="308" y="917" on="0"/>
        <pt x="329" y="896" on="0"/>
        <pt x="329" y="881" on="1"/>
        <pt x="329" y="866" on="0"/>
        <pt x="308" y="845" on="0"/>
      </contour>
      <contour>
        <pt x="90" y="0" on="1"/>
        <pt x="90" y="740" on="1"/>
        <pt x="507" y="740" on="1"/>
        <pt x="507" y="706" on="1"/>
        <pt x="125" y="706" on="1"/>
        <pt x="125" y="396" on="1"/>
        <pt x="458" y="396" on="1"/>
        <pt x="458" y="362" on="1"/>
        <pt x="125" y="362" on="1"/>
        <pt x="125" y="34" on="1"/>
        <pt x="513" y="34" on="1"/>
        <pt x="513" y="0" on="1"/>
      </contour>
    </TTGlyph>
    <TTGlyph name="Egrave" xMin="90" yMin="0" xMax="513" yMax="980">
      <contour>
        <pt x="274" y="828" on="1"/>
        <pt x="182" y="980" on="1"/>
        <pt x="223" y="980" on="1"/>
        <pt x="308" y="828" on="1"/>
      </contour>
      <contour>
        <pt x="90" y="0" on="1"/>
        <pt x="90" y="740" on="1"/>
        <pt x="507" y="740" on="1"/>
        <pt x="507" y="706" on="1"/>
        <pt x="125" y="706" on="1"/>
        <pt x="125" y="396" on="1"/>
        <pt x="458" y="396" on="1"/>
        <pt x="458" y="362" on="1"/>
        <pt x="125" y="362" on="1"/>
        <pt x="125" y="34" on="1"/>
        <pt x="513" y="34" on="1"/>
        <pt x="513" y="0" on="1"/>
      </contour>
    </TTGlyph>
    <TTGlyph name="Emacron" xMin="90" yMin="0" xMax="513" yMax="878">
      <contour>
        <pt x="154" y="848" on="1"/>
        <pt x="154" y="878" on="1"/>
        <pt x="434" y="878" on="1"/>
        <pt x="434" y="848" on="1"/>
      </contour>
      <contour>
        <pt x="90" y="0" on="1"/>
        <pt x="90" y="740" on="1"/>
        <pt x="507" y="740" on="1"/>
        <pt x="507" y="706" on="1"/>
        <pt x="125" y="706" on="1"/>
        <pt x="125" y="396" on="1"/>
        <pt x="458" y="396" on="1"/>
        <pt x="458" y="362" on="1"/>
        <pt x="125" y="362" on="1"/>
        <pt x="125" y="34" on="1"/>
        <pt x="513" y="34" on="1"/>
        <pt x="513" y="0" on="1"/>
      </contour>
    </TTGlyph>
    <TTGlyph name="Eogonek" xMin="90" yMin="-149" xMax="557" yMax="740">
      <contour>
        <pt x="90" y="0" on="1"/>
        <pt x="90" y="740" on="1"/>
        <pt x="507" y="740" on="1"/>
        <pt x="507" y="706" on="1"/>
        <pt x="125" y="706" on="1"/>
        <pt x="125" y="396" on="1"/>
        <pt x="458" y="396" on="1"/>
        <pt x="458" y="362" on="1"/>
        <pt x="125" y="362" on="1"/>
        <pt x="125" y="34" on="1"/>
        <pt x="513" y="34" on="1"/>
        <pt x="513" y="0" on="1"/>
        <pt x="513" y="0" on="0"/>
        <pt x="484" y="-15" on="0"/>
        <pt x="455" y="-47" on="0"/>
        <pt x="455" y="-71" on="1"/>
        <pt x="455" y="-93" on="0"/>
        <pt x="486" y="-120" on="0"/>
        <pt x="517" y="-120" on="1"/>
        <pt x="532" y="-120" on="0"/>
        <pt x="557" y="-115" on="0"/>
        <pt x="557" y="-115" on="1"/>
        <pt x="557" y="-143" on="1"/>
        <pt x="557" y="-143" on="0"/>
        <pt x="531" y="-149" on="0"/>
        <pt x="513" y="-149" on="1"/>
        <pt x="472" y="-149" on="0"/>
        <pt x="424" y="-108" on="0"/>
        <pt x="424" y="-75" on="1"/>
        <pt x="424" y="-47" on="0"/>
        <pt x="455" y="-10" on="0"/>
        <pt x="470" y="0" on="1"/>
      </contour>
    </TTGlyph>
    <TTGlyph name="Eth" xMin="30" yMin="0" xMax="693" yMax="740">
      <contour>
        <pt x="135" y="0" on="1"/>
        <pt x="135" y="354" on="1"/>
        <pt x="30" y="354" on="1"/>
        <pt x="30" y="386" on="1"/>
        <pt x="135" y="386" on="1"/>
        <pt x="135" y="740" on="1"/>
        <pt x="348" y="740" on="1"/>
        <pt x="435" y="740" on="0"/>
        <pt x="564" y="677" on="0"/>
        <pt x="650" y="571" on="0"/>
        <pt x="693" y="439" on="0"/>
        <pt x="693" y="370" on="1"/>
        <pt x="693" y="301" on="0"/>
        <pt x="650" y="169" on="0"/>
        <pt x="564" y="63" on="0"/>
        <pt x="435" y="0" on="0"/>
        <pt x="348" y="0" on="1"/>
      </contour>
      <contour>
        <pt x="343" y="354" on="1"/>
        <pt x="170" y="354" on="1"/>
        <pt x="170" y="34" on="1"/>
        <pt x="348" y="34" on="1"/>
        <pt x="425" y="34" on="0"/>
        <pt x="541" y="91" on="0"/>
        <pt x="618" y="187" on="0"/>
        <pt x="657" y="307" on="0"/>
        <pt x="657" y="370" on="1"/>
        <pt x="657" y="433" on="0"/>
        <pt x="618" y="553" on="0"/>
        <pt x="541" y="649" on="0"/>
        <pt x="425" y="706" on="0"/>
        <pt x="348" y="706" on="1"/>
        <pt x="170" y="706" on="1"/>
        <pt x="170" y="386" on="1"/>
        <pt x="343" y="386" on="1"/>
      </contour>
    </TTGlyph>
    <TTGlyph name="Euro" xMin="40" yMin="-10" xMax="689" yMax="750">
      <contour>
        <pt x="40" y="294" on="1"/>
        <pt x="40" y="324" on="1"/>
        <pt x="133" y="324" on="1"/>
        <pt x="131" y="347" on="0"/>
        <pt x="131" y="370" on="1"/>
        <pt x="131" y="393" on="0"/>
        <pt x="133" y="416" on="1"/>
        <pt x="40" y="416" on="1"/>
        <pt x="40" y="446" on="1"/>
        <pt x="137" y="446" on="1"/>
        <pt x="151" y="527" on="0"/>
        <pt x="239" y="666" on="0"/>
        <pt x="390" y="750" on="0"/>
        <pt x="497" y="750" on="1"/>
        <pt x="547" y="750" on="0"/>
        <pt x="635" y="736" on="0"/>
        <pt x="689" y="721" on="0"/>
        <pt x="689" y="721" on="1"/>
        <pt x="689" y="686" on="1"/>
        <pt x="689" y="686" on="0"/>
        <pt x="634" y="701" on="0"/>
        <pt x="547" y="715" on="0"/>
        <pt x="499" y="715" on="1"/>
        <pt x="402" y="715" on="0"/>
        <pt x="267" y="641" on="0"/>
        <pt x="187" y="518" on="0"/>
        <pt x="174" y="446" on="1"/>
        <pt x="535" y="446" on="1"/>
        <pt x="535" y="416" on="1"/>
        <pt x="169" y="416" on="1"/>
        <pt x="167" y="393" on="0"/>
        <pt x="167" y="370" on="1"/>
        <pt x="167" y="347" on="0"/>
        <pt x="169" y="324" on="1"/>
        <pt x="535" y="324" on="1"/>
        <pt x="535" y="294" on="1"/>
        <pt x="174" y="294" on="1"/>
        <pt x="187" y="221" on="0"/>
        <pt x="267" y="98" on="0"/>
        <pt x="402" y="24" on="0"/>
        <pt x="499" y="24" on="1"/>
        <pt x="547" y="24" on="0"/>
        <pt x="634" y="39" on="0"/>
        <pt x="689" y="53" on="0"/>
        <pt x="689" y="53" on="1"/>
        <pt x="689" y="18" on="1"/>
        <pt x="689" y="18" on="0"/>
        <pt x="635" y="4" on="0"/>
        <pt x="547" y="-10" on="0"/>
        <pt x="497" y="-10" on="1"/>
        <pt x="390" y="-10" on="0"/>
        <pt x="239" y="74" on="0"/>
        <pt x="151" y="213" on="0"/>
        <pt x="137" y="294" on="1"/>
      </contour>
    </TTGlyph>
    <TTGlyph name="F" xMin="90" yMin="0" xMax="516" yMax="740">
      <contour>
        <pt x="90" y="0" on="1"/>
        <pt x="90" y="740" on="1"/>
        <pt x="516" y="740" on="1"/>
        <pt x="516" y="706" on="1"/>
        <pt x="125" y="706" on="1"/>
        <pt x="125" y="386" on="1"/>
        <pt x="467" y="386" on="1"/>
        <pt x="467" y="352" on="1"/>
        <pt x="125" y="352" on="1"/>
        <pt x="125" y="0" on="1"/>
      </contour>
    </TTGlyph>
    <TTGlyph name="G" xMin="60" yMin="-10" xMax="703" yMax="750">
      <contour>
        <pt x="396" y="-10" on="1"/>
        <pt x="312" y="-10" on="0"/>
        <pt x="186" y="55" on="0"/>
        <pt x="102" y="164" on="0"/>
        <pt x="60" y="299" on="0"/>
        <pt x="60" y="370" on="1"/>
        <pt x="60" y="441" on="0"/>
        <pt x="102" y="577" on="0"/>
        <pt x="187" y="686" on="0"/>
        <pt x="313" y="750" on="0"/>
        <pt x="397" y="750" on="1"/>
        <pt x="465" y="750" on="0"/>
        <pt x="563" y="716" on="0"/>
        <pt x="630" y="663" on="0"/>
        <pt x="670" y="604" on="0"/>
        <pt x="692" y="551" on="0"/>
        <pt x="699" y="517" on="0"/>
        <pt x="699" y="517" on="1"/>
        <pt x="662" y="517" on="1"/>
        <pt x="662" y="517" on="0"/>
        <pt x="652" y="557" on="0"/>
        <pt x="623" y="617" on="0"/>
        <pt x="565" y="676" on="0"/>
        <pt x="469" y="716" on="0"/>
        <pt x="397" y="716" on="1"/>
        <pt x="321" y="716" on="0"/>
        <pt x="207" y="657" on="0"/>
        <pt x="132" y="558" on="0"/>
        <pt x="95" y="435" on="0"/>
        <pt x="95" y="370" on="1"/>
        <pt x="95" y="305" on="0"/>
        <pt x="132" y="182" on="0"/>
        <pt x="207" y="83" on="0"/>
        <pt x="320" y="24" on="0"/>
        <pt x="396" y="24" on="1"/>
        <pt x="484" y="24" on="0"/>
        <pt x="605" y="99" on="0"/>
        <pt x="669" y="231" on="0"/>
        <pt x="669" y="318" on="1"/>
        <pt x="669" y="333" on="1"/>
        <pt x="409" y="333" on="1"/>
        <pt x="409" y="366" on="1"/>
        <pt x="703" y="366" on="1"/>
        <pt x="703" y="317" on="1"/>
        <pt x="703" y="229" on="0"/>
        <pt x="635" y="80" on="0"/>
        <pt x="499" y="-10" on="0"/>
      </contour>
    </TTGlyph>
    <TTGlyph name="Gbreve" xMin="60" yMin="-10" xMax="703" yMax="953">
      <contour>
        <pt x="397" y="823" on="1"/>
        <pt x="357" y="823" on="0"/>
        <pt x="307" y="849" on="0"/>
        <pt x="279" y="888" on="0"/>
        <pt x="266" y="927" on="0"/>
        <pt x="263" y="953" on="0"/>
        <pt x="263" y="953" on="1"/>
        <pt x="295" y="953" on="1"/>
        <pt x="295" y="953" on="0"/>
        <pt x="299" y="923" on="0"/>
        <pt x="317" y="883" on="0"/>
        <pt x="359" y="853" on="0"/>
        <pt x="397" y="853" on="1"/>
        <pt x="435" y="853" on="0"/>
        <pt x="477" y="883" on="0"/>
        <pt x="495" y="923" on="0"/>
        <pt x="499" y="953" on="0"/>
        <pt x="499" y="953" on="1"/>
        <pt x="531" y="953" on="1"/>
        <pt x="531" y="953" on="0"/>
        <pt x="528" y="927" on="0"/>
        <pt x="515" y="888" on="0"/>
        <pt x="487" y="849" on="0"/>
        <pt x="437" y="823" on="0"/>
      </contour>
      <contour>
        <pt x="396" y="-10" on="1"/>
        <pt x="312" y="-10" on="0"/>
        <pt x="186" y="55" on="0"/>
        <pt x="102" y="164" on="0"/>
        <pt x="60" y="299" on="0"/>
        <pt x="60" y="370" on="1"/>
        <pt x="60" y="441" on="0"/>
        <pt x="102" y="577" on="0"/>
        <pt x="187" y="686" on="0"/>
        <pt x="313" y="750" on="0"/>
        <pt x="397" y="750" on="1"/>
        <pt x="465" y="750" on="0"/>
        <pt x="563" y="716" on="0"/>
        <pt x="630" y="663" on="0"/>
        <pt x="670" y="604" on="0"/>
        <pt x="692" y="551" on="0"/>
        <pt x="699" y="517" on="0"/>
        <pt x="699" y="517" on="1"/>
        <pt x="662" y="517" on="1"/>
        <pt x="662" y="517" on="0"/>
        <pt x="652" y="557" on="0"/>
        <pt x="623" y="617" on="0"/>
        <pt x="565" y="676" on="0"/>
        <pt x="469" y="716" on="0"/>
        <pt x="397" y="716" on="1"/>
        <pt x="321" y="716" on="0"/>
        <pt x="207" y="657" on="0"/>
        <pt x="132" y="558" on="0"/>
        <pt x="95" y="435" on="0"/>
        <pt x="95" y="370" on="1"/>
        <pt x="95" y="305" on="0"/>
        <pt x="132" y="182" on="0"/>
        <pt x="207" y="83" on="0"/>
        <pt x="320" y="24" on="0"/>
        <pt x="396" y="24" on="1"/>
        <pt x="484" y="24" on="0"/>
        <pt x="605" y="99" on="0"/>
        <pt x="669" y="231" on="0"/>
        <pt x="669" y="318" on="1"/>
        <pt x="669" y="333" on="1"/>
        <pt x="409" y="333" on="1"/>
        <pt x="409" y="366" on="1"/>
        <pt x="703" y="366" on="1"/>
        <pt x="703" y="317" on="1"/>
        <pt x="703" y="229" on="0"/>
        <pt x="635" y="80" on="0"/>
        <pt x="499" y="-10" on="0"/>
      </contour>
    </TTGlyph>
    <TTGlyph name="Gcaron" xMin="60" yMin="-10" xMax="703" yMax="970">
      <contour>
        <pt x="378" y="818" on="1"/>
        <pt x="267" y="970" on="1"/>
        <pt x="304" y="970" on="1"/>
        <pt x="397" y="846" on="1"/>
        <pt x="489" y="970" on="1"/>
        <pt x="526" y="970" on="1"/>
        <pt x="415" y="818" on="1"/>
      </contour>
      <contour>
        <pt x="396" y="-10" on="1"/>
        <pt x="312" y="-10" on="0"/>
        <pt x="186" y="55" on="0"/>
        <pt x="102" y="164" on="0"/>
        <pt x="60" y="299" on="0"/>
        <pt x="60" y="370" on="1"/>
        <pt x="60" y="441" on="0"/>
        <pt x="102" y="577" on="0"/>
        <pt x="187" y="686" on="0"/>
        <pt x="313" y="750" on="0"/>
        <pt x="397" y="750" on="1"/>
        <pt x="465" y="750" on="0"/>
        <pt x="563" y="716" on="0"/>
        <pt x="630" y="663" on="0"/>
        <pt x="670" y="604" on="0"/>
        <pt x="692" y="551" on="0"/>
        <pt x="699" y="517" on="0"/>
        <pt x="699" y="517" on="1"/>
        <pt x="662" y="517" on="1"/>
        <pt x="662" y="517" on="0"/>
        <pt x="652" y="557" on="0"/>
        <pt x="623" y="617" on="0"/>
        <pt x="565" y="676" on="0"/>
        <pt x="469" y="716" on="0"/>
        <pt x="397" y="716" on="1"/>
        <pt x="321" y="716" on="0"/>
        <pt x="207" y="657" on="0"/>
        <pt x="132" y="558" on="0"/>
        <pt x="95" y="435" on="0"/>
        <pt x="95" y="370" on="1"/>
        <pt x="95" y="305" on="0"/>
        <pt x="132" y="182" on="0"/>
        <pt x="207" y="83" on="0"/>
        <pt x="320" y="24" on="0"/>
        <pt x="396" y="24" on="1"/>
        <pt x="484" y="24" on="0"/>
        <pt x="605" y="99" on="0"/>
        <pt x="669" y="231" on="0"/>
        <pt x="669" y="318" on="1"/>
        <pt x="669" y="333" on="1"/>
        <pt x="409" y="333" on="1"/>
        <pt x="409" y="366" on="1"/>
        <pt x="703" y="366" on="1"/>
        <pt x="703" y="317" on="1"/>
        <pt x="703" y="229" on="0"/>
        <pt x="635" y="80" on="0"/>
        <pt x="499" y="-10" on="0"/>
      </contour>
    </TTGlyph>
    <TTGlyph name="Gdotaccent" xMin="60" yMin="-10" xMax="703" yMax="917">
      <contour>
        <pt x="396" y="845" on="1"/>
        <pt x="381" y="845" on="0"/>
        <pt x="361" y="866" on="0"/>
        <pt x="361" y="881" on="1"/>
        <pt x="361" y="896" on="0"/>
        <pt x="381" y="917" on="0"/>
        <pt x="396" y="917" on="1"/>
        <pt x="411" y="917" on="0"/>
        <pt x="432" y="896" on="0"/>
        <pt x="432" y="881" on="1"/>
        <pt x="432" y="866" on="0"/>
        <pt x="411" y="845" on="0"/>
      </contour>
      <contour>
        <pt x="396" y="-10" on="1"/>
        <pt x="312" y="-10" on="0"/>
        <pt x="186" y="55" on="0"/>
        <pt x="102" y="164" on="0"/>
        <pt x="60" y="299" on="0"/>
        <pt x="60" y="370" on="1"/>
        <pt x="60" y="441" on="0"/>
        <pt x="102" y="577" on="0"/>
        <pt x="187" y="686" on="0"/>
        <pt x="313" y="750" on="0"/>
        <pt x="397" y="750" on="1"/>
        <pt x="465" y="750" on="0"/>
        <pt x="563" y="716" on="0"/>
        <pt x="630" y="663" on="0"/>
        <pt x="670" y="604" on="0"/>
        <pt x="692" y="551" on="0"/>
        <pt x="699" y="517" on="0"/>
        <pt x="699" y="517" on="1"/>
        <pt x="662" y="517" on="1"/>
        <pt x="662" y="517" on="0"/>
        <pt x="652" y="557" on="0"/>
        <pt x="623" y="617" on="0"/>
        <pt x="565" y="676" on="0"/>
        <pt x="469" y="716" on="0"/>
        <pt x="397" y="716" on="1"/>
        <pt x="321" y="716" on="0"/>
        <pt x="207" y="657" on="0"/>
        <pt x="132" y="558" on="0"/>
        <pt x="95" y="435" on="0"/>
        <pt x="95" y="370" on="1"/>
        <pt x="95" y="305" on="0"/>
        <pt x="132" y="182" on="0"/>
        <pt x="207" y="83" on="0"/>
        <pt x="320" y="24" on="0"/>
        <pt x="396" y="24" on="1"/>
        <pt x="484" y="24" on="0"/>
        <pt x="605" y="99" on="0"/>
        <pt x="669" y="231" on="0"/>
        <pt x="669" y="318" on="1"/>
        <pt x="669" y="333" on="1"/>
        <pt x="409" y="333" on="1"/>
        <pt x="409" y="366" on="1"/>
        <pt x="703" y="366" on="1"/>
        <pt x="703" y="317" on="1"/>
        <pt x="703" y="229" on="0"/>
        <pt x="635" y="80" on="0"/>
        <pt x="499" y="-10" on="0"/>
      </contour>
    </TTGlyph>
    <TTGlyph name="H" xMin="90" yMin="0" xMax="566" yMax="740">
      <contour>
        <pt x="90" y="0" on="1"/>
        <pt x="90" y="740" on="1"/>
        <pt x="125" y="740" on="1"/>
        <pt x="125" y="406" on="1"/>
        <pt x="531" y="406" on="1"/>
        <pt x="531" y="740" on="1"/>
        <pt x="566" y="740" on="1"/>
        <pt x="566" y="0" on="1"/>
        <pt x="531" y="0" on="1"/>
        <pt x="531" y="374" on="1"/>
        <pt x="125" y="374" on="1"/>
        <pt x="125" y="0" on="1"/>
      </contour>
    </TTGlyph>
    <TTGlyph name="Hbar" xMin="40" yMin="0" xMax="717" yMax="740">
      <contour>
        <pt x="141" y="0" on="1"/>
        <pt x="141" y="622" on="1"/>
        <pt x="40" y="622" on="1"/>
        <pt x="40" y="654" on="1"/>
        <pt x="141" y="654" on="1"/>
        <pt x="141" y="740" on="1"/>
        <pt x="176" y="740" on="1"/>
        <pt x="176" y="654" on="1"/>
        <pt x="582" y="654" on="1"/>
        <pt x="582" y="740" on="1"/>
        <pt x="617" y="740" on="1"/>
        <pt x="617" y="654" on="1"/>
        <pt x="717" y="654" on="1"/>
        <pt x="717" y="622" on="1"/>
        <pt x="617" y="622" on="1"/>
        <pt x="617" y="0" on="1"/>
        <pt x="582" y="0" on="1"/>
        <pt x="582" y="374" on="1"/>
        <pt x="176" y="374" on="1"/>
        <pt x="176" y="0" on="1"/>
      </contour>
      <contour>
        <pt x="176" y="406" on="1"/>
        <pt x="582" y="406" on="1"/>
        <pt x="582" y="622" on="1"/>
        <pt x="176" y="622" on="1"/>
      </contour>
    </TTGlyph>
    <TTGlyph name="I" xMin="90" yMin="0" xMax="125" yMax="740">
      <contour>
        <pt x="90" y="0" on="1"/>
        <pt x="90" y="740" on="1"/>
        <pt x="125" y="740" on="1"/>
        <pt x="125" y="0" on="1"/>
      </contour>
    </TTGlyph>
    <TTGlyph name="Iacute" xMin="90" yMin="0" xMax="222" yMax="980">
      <contour>
        <pt x="130" y="828" on="1"/>
        <pt x="96" y="828" on="1"/>
        <pt x="181" y="980" on="1"/>
        <pt x="222" y="980" on="1"/>
      </contour>
      <contour>
        <pt x="90" y="0" on="1"/>
        <pt x="90" y="740" on="1"/>
        <pt x="125" y="740" on="1"/>
        <pt x="125" y="0" on="1"/>
      </contour>
    </TTGlyph>
    <TTGlyph name="Icircumflex" xMin="-21" yMin="0" xMax="238" yMax="970">
      <contour>
        <pt x="-21" y="818" on="1"/>
        <pt x="90" y="970" on="1"/>
        <pt x="127" y="970" on="1"/>
        <pt x="238" y="818" on="1"/>
        <pt x="201" y="818" on="1"/>
        <pt x="109" y="942" on="1"/>
        <pt x="16" y="818" on="1"/>
      </contour>
      <contour>
        <pt x="90" y="0" on="1"/>
        <pt x="90" y="740" on="1"/>
        <pt x="125" y="740" on="1"/>
        <pt x="125" y="0" on="1"/>
      </contour>
    </TTGlyph>
    <TTGlyph name="Idieresis" xMin="3" yMin="0" xMax="213" yMax="912">
      <contour>
        <pt x="177" y="840" on="1"/>
        <pt x="162" y="840" on="0"/>
        <pt x="142" y="861" on="0"/>
        <pt x="142" y="876" on="1"/>
        <pt x="142" y="891" on="0"/>
        <pt x="162" y="912" on="0"/>
        <pt x="177" y="912" on="1"/>
        <pt x="192" y="912" on="0"/>
        <pt x="213" y="891" on="0"/>
        <pt x="213" y="876" on="1"/>
        <pt x="213" y="861" on="0"/>
        <pt x="192" y="840" on="0"/>
      </contour>
      <contour>
        <pt x="38" y="840" on="1"/>
        <pt x="23" y="840" on="0"/>
        <pt x="3" y="861" on="0"/>
        <pt x="3" y="876" on="1"/>
        <pt x="3" y="891" on="0"/>
        <pt x="23" y="912" on="0"/>
        <pt x="38" y="912" on="1"/>
        <pt x="53" y="912" on="0"/>
        <pt x="74" y="891" on="0"/>
        <pt x="74" y="876" on="1"/>
        <pt x="74" y="861" on="0"/>
        <pt x="53" y="840" on="0"/>
      </contour>
      <contour>
        <pt x="90" y="0" on="1"/>
        <pt x="90" y="740" on="1"/>
        <pt x="125" y="740" on="1"/>
        <pt x="125" y="0" on="1"/>
      </contour>
    </TTGlyph>
    <TTGlyph name="Idotaccent" xMin="72" yMin="0" xMax="143" yMax="917">
      <contour>
        <pt x="107" y="845" on="1"/>
        <pt x="92" y="845" on="0"/>
        <pt x="72" y="866" on="0"/>
        <pt x="72" y="881" on="1"/>
        <pt x="72" y="896" on="0"/>
        <pt x="92" y="917" on="0"/>
        <pt x="107" y="917" on="1"/>
        <pt x="122" y="917" on="0"/>
        <pt x="143" y="896" on="0"/>
        <pt x="143" y="881" on="1"/>
        <pt x="143" y="866" on="0"/>
        <pt x="122" y="845" on="0"/>
      </contour>
      <contour>
        <pt x="90" y="0" on="1"/>
        <pt x="90" y="740" on="1"/>
        <pt x="125" y="740" on="1"/>
        <pt x="125" y="0" on="1"/>
      </contour>
    </TTGlyph>
    <TTGlyph name="Igrave" xMin="-4" yMin="0" xMax="125" yMax="980">
      <contour>
        <pt x="88" y="828" on="1"/>
        <pt x="-4" y="980" on="1"/>
        <pt x="37" y="980" on="1"/>
        <pt x="122" y="828" on="1"/>
      </contour>
      <contour>
        <pt x="90" y="0" on="1"/>
        <pt x="90" y="740" on="1"/>
        <pt x="125" y="740" on="1"/>
        <pt x="125" y="0" on="1"/>
      </contour>
    </TTGlyph>
    <TTGlyph name="Imacron" xMin="-32" yMin="0" xMax="248" yMax="878">
      <contour>
        <pt x="-32" y="848" on="1"/>
        <pt x="-32" y="878" on="1"/>
        <pt x="248" y="878" on="1"/>
        <pt x="248" y="848" on="1"/>
      </contour>
      <contour>
        <pt x="90" y="0" on="1"/>
        <pt x="90" y="740" on="1"/>
        <pt x="125" y="740" on="1"/>
        <pt x="125" y="0" on="1"/>
      </contour>
    </TTGlyph>
    <TTGlyph name="Iogonek" xMin="36" yMin="-149" xMax="169" yMax="740">
      <contour>
        <pt x="125" y="-149" on="1"/>
        <pt x="84" y="-149" on="0"/>
        <pt x="36" y="-108" on="0"/>
        <pt x="36" y="-75" on="1"/>
        <pt x="36" y="-43" on="0"/>
        <pt x="75" y="-4" on="0"/>
        <pt x="90" y="5" on="1"/>
        <pt x="90" y="740" on="1"/>
        <pt x="125" y="740" on="1"/>
        <pt x="125" y="0" on="1"/>
        <pt x="125" y="0" on="0"/>
        <pt x="96" y="-15" on="0"/>
        <pt x="67" y="-47" on="0"/>
        <pt x="67" y="-71" on="1"/>
        <pt x="67" y="-93" on="0"/>
        <pt x="98" y="-120" on="0"/>
        <pt x="129" y="-120" on="1"/>
        <pt x="144" y="-120" on="0"/>
        <pt x="169" y="-115" on="0"/>
        <pt x="169" y="-115" on="1"/>
        <pt x="169" y="-143" on="1"/>
        <pt x="169" y="-143" on="0"/>
        <pt x="143" y="-149" on="0"/>
      </contour>
    </TTGlyph>
    <TTGlyph name="Itilde" xMin="-16" yMin="0" xMax="233" yMax="941">
      <contour>
        <pt x="168" y="831" on="1"/>
        <pt x="146" y="831" on="0"/>
        <pt x="115" y="855" on="0"/>
        <pt x="91" y="888" on="0"/>
        <pt x="66" y="912" on="0"/>
        <pt x="50" y="912" on="1"/>
        <pt x="31" y="912" on="0"/>
        <pt x="14" y="872" on="0"/>
        <pt x="14" y="836" on="1"/>
        <pt x="-16" y="836" on="1"/>
        <pt x="-16" y="880" on="0"/>
        <pt x="15" y="941" on="0"/>
        <pt x="50" y="941" on="1"/>
        <pt x="74" y="941" on="0"/>
        <pt x="106" y="917" on="0"/>
        <pt x="130" y="884" on="0"/>
        <pt x="153" y="860" on="0"/>
        <pt x="168" y="860" on="1"/>
        <pt x="187" y="860" on="0"/>
        <pt x="203" y="901" on="0"/>
        <pt x="203" y="936" on="1"/>
        <pt x="233" y="936" on="1"/>
        <pt x="233" y="893" on="0"/>
        <pt x="202" y="831" on="0"/>
      </contour>
      <contour>
        <pt x="90" y="0" on="1"/>
        <pt x="90" y="740" on="1"/>
        <pt x="125" y="740" on="1"/>
        <pt x="125" y="0" on="1"/>
      </contour>
    </TTGlyph>
    <TTGlyph name="J" xMin="30" yMin="-10" xMax="322" yMax="740">
      <contour>
        <pt x="109" y="-10" on="1"/>
        <pt x="80" y="-10" on="0"/>
        <pt x="30" y="-4" on="0"/>
        <pt x="30" y="-4" on="1"/>
        <pt x="30" y="29" on="1"/>
        <pt x="30" y="29" on="0"/>
        <pt x="81" y="23" on="0"/>
        <pt x="109" y="23" on="1"/>
        <pt x="287" y="23" on="0"/>
        <pt x="287" y="207" on="1"/>
        <pt x="287" y="740" on="1"/>
        <pt x="322" y="740" on="1"/>
        <pt x="322" y="207" on="1"/>
        <pt x="322" y="99" on="0"/>
        <pt x="211" y="-10" on="0"/>
      </contour>
    </TTGlyph>
    <TTGlyph name="K" xMin="90" yMin="0" xMax="558" yMax="740">
      <contour>
        <pt x="90" y="0" on="1"/>
        <pt x="90" y="740" on="1"/>
        <pt x="125" y="740" on="1"/>
        <pt x="125" y="398" on="1"/>
        <pt x="492" y="739" on="1"/>
        <pt x="542" y="739" on="1"/>
        <pt x="156" y="382" on="1"/>
        <pt x="558" y="0" on="1"/>
        <pt x="508" y="0" on="1"/>
        <pt x="125" y="364" on="1"/>
        <pt x="125" y="0" on="1"/>
      </contour>
    </TTGlyph>
    <TTGlyph name="L" xMin="90" yMin="0" xMax="523" yMax="740">
      <contour>
        <pt x="90" y="0" on="1"/>
        <pt x="90" y="740" on="1"/>
        <pt x="125" y="740" on="1"/>
        <pt x="125" y="34" on="1"/>
        <pt x="523" y="34" on="1"/>
        <pt x="523" y="0" on="1"/>
      </contour>
    </TTGlyph>
    <TTGlyph name="Lacute" xMin="90" yMin="0" xMax="523" yMax="980">
      <contour>
        <pt x="129" y="828" on="1"/>
        <pt x="95" y="828" on="1"/>
        <pt x="180" y="980" on="1"/>
        <pt x="221" y="980" on="1"/>
      </contour>
      <contour>
        <pt x="90" y="0" on="1"/>
        <pt x="90" y="740" on="1"/>
        <pt x="125" y="740" on="1"/>
        <pt x="125" y="34" on="1"/>
        <pt x="523" y="34" on="1"/>
        <pt x="523" y="0" on="1"/>
      </contour>
    </TTGlyph>
    <TTGlyph name="Lcaron" xMin="-23" yMin="0" xMax="523" yMax="970">
      <contour>
        <pt x="88" y="818" on="1"/>
        <pt x="-23" y="970" on="1"/>
        <pt x="14" y="970" on="1"/>
        <pt x="107" y="846" on="1"/>
        <pt x="199" y="970" on="1"/>
        <pt x="236" y="970" on="1"/>
        <pt x="125" y="818" on="1"/>
      </contour>
      <contour>
        <pt x="90" y="0" on="1"/>
        <pt x="90" y="740" on="1"/>
        <pt x="125" y="740" on="1"/>
        <pt x="125" y="34" on="1"/>
        <pt x="523" y="34" on="1"/>
        <pt x="523" y="0" on="1"/>
      </contour>
    </TTGlyph>
    <TTGlyph name="Lslash" xMin="21" yMin="0" xMax="544" yMax="740">
      <contour>
        <pt x="111" y="0" on="1"/>
        <pt x="111" y="340" on="1"/>
        <pt x="21" y="297" on="1"/>
        <pt x="21" y="330" on="1"/>
        <pt x="111" y="373" on="1"/>
        <pt x="111" y="740" on="1"/>
        <pt x="146" y="740" on="1"/>
        <pt x="146" y="389" on="1"/>
        <pt x="304" y="464" on="1"/>
        <pt x="304" y="431" on="1"/>
        <pt x="146" y="356" on="1"/>
        <pt x="146" y="34" on="1"/>
        <pt x="544" y="34" on="1"/>
        <pt x="544" y="0" on="1"/>
      </contour>
    </TTGlyph>
    <TTGlyph name="M" xMin="90" yMin="0" xMax="760" yMax="740">
      <contour>
        <pt x="90" y="0" on="1"/>
        <pt x="90" y="740" on="1"/>
        <pt x="139" y="740" on="1"/>
        <pt x="425" y="233" on="1"/>
        <pt x="711" y="740" on="1"/>
        <pt x="760" y="740" on="1"/>
        <pt x="760" y="0" on="1"/>
        <pt x="726" y="0" on="1"/>
        <pt x="726" y="698" on="1"/>
        <pt x="440" y="191" on="1"/>
        <pt x="410" y="191" on="1"/>
        <pt x="124" y="698" on="1"/>
        <pt x="124" y="0" on="1"/>
      </contour>
    </TTGlyph>
    <TTGlyph name="N" xMin="90" yMin="0" xMax="627" yMax="740">
      <contour>
        <pt x="90" y="0" on="1"/>
        <pt x="90" y="740" on="1"/>
        <pt x="126" y="740" on="1"/>
        <pt x="592" y="59" on="1"/>
        <pt x="592" y="740" on="1"/>
        <pt x="627" y="740" on="1"/>
        <pt x="627" y="0" on="1"/>
        <pt x="591" y="0" on="1"/>
        <pt x="125" y="682" on="1"/>
        <pt x="125" y="0" on="1"/>
      </contour>
    </TTGlyph>
    <TTGlyph name="Nacute" xMin="90" yMin="0" xMax="627" yMax="980">
      <contour>
        <pt x="392" y="828" on="1"/>
        <pt x="358" y="828" on="1"/>
        <pt x="443" y="980" on="1"/>
        <pt x="484" y="980" on="1"/>
      </contour>
      <contour>
        <pt x="90" y="0" on="1"/>
        <pt x="90" y="740" on="1"/>
        <pt x="126" y="740" on="1"/>
        <pt x="592" y="59" on="1"/>
        <pt x="592" y="740" on="1"/>
        <pt x="627" y="740" on="1"/>
        <pt x="627" y="0" on="1"/>
        <pt x="591" y="0" on="1"/>
        <pt x="125" y="682" on="1"/>
        <pt x="125" y="0" on="1"/>
      </contour>
    </TTGlyph>
    <TTGlyph name="Ncaron" xMin="90" yMin="0" xMax="627" yMax="970">
      <contour>
        <pt x="351" y="818" on="1"/>
        <pt x="240" y="970" on="1"/>
        <pt x="277" y="970" on="1"/>
        <pt x="370" y="846" on="1"/>
        <pt x="462" y="970" on="1"/>
        <pt x="499" y="970" on="1"/>
        <pt x="388" y="818" on="1"/>
      </contour>
      <contour>
        <pt x="90" y="0" on="1"/>
        <pt x="90" y="740" on="1"/>
        <pt x="126" y="740" on="1"/>
        <pt x="592" y="59" on="1"/>
        <pt x="592" y="740" on="1"/>
        <pt x="627" y="740" on="1"/>
        <pt x="627" y="0" on="1"/>
        <pt x="591" y="0" on="1"/>
        <pt x="125" y="682" on="1"/>
        <pt x="125" y="0" on="1"/>
      </contour>
    </TTGlyph>
    <TTGlyph name="Ntilde" xMin="90" yMin="0" xMax="627" yMax="941">
      <contour>
        <pt x="430" y="831" on="1"/>
        <pt x="408" y="831" on="0"/>
        <pt x="377" y="855" on="0"/>
        <pt x="353" y="888" on="0"/>
        <pt x="328" y="912" on="0"/>
        <pt x="312" y="912" on="1"/>
        <pt x="293" y="912" on="0"/>
        <pt x="276" y="872" on="0"/>
        <pt x="276" y="836" on="1"/>
        <pt x="246" y="836" on="1"/>
        <pt x="246" y="880" on="0"/>
        <pt x="277" y="941" on="0"/>
        <pt x="312" y="941" on="1"/>
        <pt x="336" y="941" on="0"/>
        <pt x="368" y="917" on="0"/>
        <pt x="392" y="884" on="0"/>
        <pt x="415" y="860" on="0"/>
        <pt x="430" y="860" on="1"/>
        <pt x="449" y="860" on="0"/>
        <pt x="465" y="901" on="0"/>
        <pt x="465" y="936" on="1"/>
        <pt x="495" y="936" on="1"/>
        <pt x="495" y="893" on="0"/>
        <pt x="464" y="831" on="0"/>
      </contour>
      <contour>
        <pt x="90" y="0" on="1"/>
        <pt x="90" y="740" on="1"/>
        <pt x="126" y="740" on="1"/>
        <pt x="592" y="59" on="1"/>
        <pt x="592" y="740" on="1"/>
        <pt x="627" y="740" on="1"/>
        <pt x="627" y="0" on="1"/>
        <pt x="591" y="0" on="1"/>
        <pt x="125" y="682" on="1"/>
        <pt x="125" y="0" on="1"/>
      </contour>
    </TTGlyph>
    <TTGlyph name="O" xMin="60" yMin="-10" xMax="752" yMax="750">
      <contour>
        <pt x="406" y="-10" on="1"/>
        <pt x="321" y="-10" on="0"/>
        <pt x="192" y="55" on="0"/>
        <pt x="104" y="164" on="0"/>
        <pt x="60" y="299" on="0"/>
        <pt x="60" y="370" on="1"/>
        <pt x="60" y="441" on="0"/>
        <pt x="104" y="577" on="0"/>
        <pt x="192" y="686" on="0"/>
        <pt x="321" y="750" on="0"/>
        <pt x="406" y="750" on="1"/>
        <pt x="491" y="750" on="0"/>
        <pt x="620" y="686" on="0"/>
        <pt x="708" y="577" on="0"/>
        <pt x="752" y="441" on="0"/>
        <pt x="752" y="370" on="1"/>
        <pt x="752" y="299" on="0"/>
        <pt x="708" y="164" on="0"/>
        <pt x="620" y="55" on="0"/>
        <pt x="491" y="-10" on="0"/>
      </contour>
      <contour>
        <pt x="406" y="24" on="1"/>
        <pt x="464" y="24" on="0"/>
        <pt x="575" y="67" on="0"/>
        <pt x="664" y="154" on="0"/>
        <pt x="716" y="284" on="0"/>
        <pt x="716" y="370" on="1"/>
        <pt x="716" y="457" on="0"/>
        <pt x="664" y="586" on="0"/>
        <pt x="575" y="673" on="0"/>
        <pt x="464" y="716" on="0"/>
        <pt x="406" y="716" on="1"/>
        <pt x="348" y="716" on="0"/>
        <pt x="237" y="673" on="0"/>
        <pt x="148" y="586" on="0"/>
        <pt x="96" y="457" on="0"/>
        <pt x="96" y="370" on="1"/>
        <pt x="96" y="284" on="0"/>
        <pt x="148" y="154" on="0"/>
        <pt x="237" y="67" on="0"/>
        <pt x="348" y="24" on="0"/>
      </contour>
    </TTGlyph>
    <TTGlyph name="OE" xMin="60" yMin="0" xMax="886" yMax="740">
      <contour>
        <pt x="880" y="740" on="1"/>
        <pt x="880" y="706" on="1"/>
        <pt x="498" y="706" on="1"/>
        <pt x="498" y="396" on="1"/>
        <pt x="831" y="396" on="1"/>
        <pt x="831" y="362" on="1"/>
        <pt x="498" y="362" on="1"/>
        <pt x="498" y="34" on="1"/>
        <pt x="886" y="34" on="1"/>
        <pt x="886" y="0" on="1"/>
        <pt x="435" y="0" on="1"/>
        <pt x="337" y="0" on="0"/>
        <pt x="195" y="63" on="0"/>
        <pt x="104" y="169" on="0"/>
        <pt x="60" y="301" on="0"/>
        <pt x="60" y="370" on="1"/>
        <pt x="60" y="439" on="0"/>
        <pt x="104" y="571" on="0"/>
        <pt x="195" y="677" on="0"/>
        <pt x="337" y="740" on="0"/>
        <pt x="435" y="740" on="1"/>
      </contour>
      <contour>
        <pt x="96" y="370" on="1"/>
        <pt x="96" y="307" on="0"/>
        <pt x="136" y="187" on="0"/>
        <pt x="218" y="91" on="0"/>
        <pt x="347" y="34" on="0"/>
        <pt x="435" y="34" on="1"/>
        <pt x="463" y="34" on="1"/>
        <pt x="463" y="706" on="1"/>
        <pt x="435" y="706" on="1"/>
        <pt x="347" y="706" on="0"/>
        <pt x="218" y="649" on="0"/>
        <pt x="136" y="553" on="0"/>
        <pt x="96" y="433" on="0"/>
      </contour>
    </TTGlyph>
    <TTGlyph name="Oacute" xMin="60" yMin="-10" xMax="752" yMax="990">
      <contour>
        <pt x="428" y="838" on="1"/>
        <pt x="394" y="838" on="1"/>
        <pt x="479" y="990" on="1"/>
        <pt x="520" y="990" on="1"/>
      </contour>
      <contour>
        <pt x="406" y="-10" on="1"/>
        <pt x="321" y="-10" on="0"/>
        <pt x="192" y="55" on="0"/>
        <pt x="104" y="164" on="0"/>
        <pt x="60" y="299" on="0"/>
        <pt x="60" y="370" on="1"/>
        <pt x="60" y="441" on="0"/>
        <pt x="104" y="577" on="0"/>
        <pt x="192" y="686" on="0"/>
        <pt x="321" y="750" on="0"/>
        <pt x="406" y="750" on="1"/>
        <pt x="491" y="750" on="0"/>
        <pt x="620" y="686" on="0"/>
        <pt x="708" y="577" on="0"/>
        <pt x="752" y="441" on="0"/>
        <pt x="752" y="370" on="1"/>
        <pt x="752" y="299" on="0"/>
        <pt x="708" y="164" on="0"/>
        <pt x="620" y="55" on="0"/>
        <pt x="491" y="-10" on="0"/>
      </contour>
      <contour>
        <pt x="406" y="24" on="1"/>
        <pt x="464" y="24" on="0"/>
        <pt x="575" y="67" on="0"/>
        <pt x="664" y="154" on="0"/>
        <pt x="716" y="284" on="0"/>
        <pt x="716" y="370" on="1"/>
        <pt x="716" y="457" on="0"/>
        <pt x="664" y="586" on="0"/>
        <pt x="575" y="673" on="0"/>
        <pt x="464" y="716" on="0"/>
        <pt x="406" y="716" on="1"/>
        <pt x="348" y="716" on="0"/>
        <pt x="237" y="673" on="0"/>
        <pt x="148" y="586" on="0"/>
        <pt x="96" y="457" on="0"/>
        <pt x="96" y="370" on="1"/>
        <pt x="96" y="284" on="0"/>
        <pt x="148" y="154" on="0"/>
        <pt x="237" y="67" on="0"/>
        <pt x="348" y="24" on="0"/>
      </contour>
    </TTGlyph>
    <TTGlyph name="Ocircumflex" xMin="60" yMin="-10" xMax="752" yMax="966">
      <contour>
        <pt x="277" y="828" on="1"/>
        <pt x="388" y="966" on="1"/>
        <pt x="425" y="966" on="1"/>
        <pt x="536" y="828" on="1"/>
        <pt x="499" y="828" on="1"/>
        <pt x="407" y="942" on="1"/>
        <pt x="314" y="828" on="1"/>
      </contour>
      <contour>
        <pt x="406" y="-10" on="1"/>
        <pt x="321" y="-10" on="0"/>
        <pt x="192" y="55" on="0"/>
        <pt x="104" y="164" on="0"/>
        <pt x="60" y="299" on="0"/>
        <pt x="60" y="370" on="1"/>
        <pt x="60" y="441" on="0"/>
        <pt x="104" y="577" on="0"/>
        <pt x="192" y="686" on="0"/>
        <pt x="321" y="750" on="0"/>
        <pt x="406" y="750" on="1"/>
        <pt x="491" y="750" on="0"/>
        <pt x="620" y="686" on="0"/>
        <pt x="708" y="577" on="0"/>
        <pt x="752" y="441" on="0"/>
        <pt x="752" y="370" on="1"/>
        <pt x="752" y="299" on="0"/>
        <pt x="708" y="164" on="0"/>
        <pt x="620" y="55" on="0"/>
        <pt x="491" y="-10" on="0"/>
      </contour>
      <contour>
        <pt x="406" y="24" on="1"/>
        <pt x="464" y="24" on="0"/>
        <pt x="575" y="67" on="0"/>
        <pt x="664" y="154" on="0"/>
        <pt x="716" y="284" on="0"/>
        <pt x="716" y="370" on="1"/>
        <pt x="716" y="457" on="0"/>
        <pt x="664" y="586" on="0"/>
        <pt x="575" y="673" on="0"/>
        <pt x="464" y="716" on="0"/>
        <pt x="406" y="716" on="1"/>
        <pt x="348" y="716" on="0"/>
        <pt x="237" y="673" on="0"/>
        <pt x="148" y="586" on="0"/>
        <pt x="96" y="457" on="0"/>
        <pt x="96" y="370" on="1"/>
        <pt x="96" y="284" on="0"/>
        <pt x="148" y="154" on="0"/>
        <pt x="237" y="67" on="0"/>
        <pt x="348" y="24" on="0"/>
      </contour>
    </TTGlyph>
    <TTGlyph name="Odieresis" xMin="60" yMin="-10" xMax="752" yMax="922">
      <contour>
        <pt x="475" y="850" on="1"/>
        <pt x="460" y="850" on="0"/>
        <pt x="440" y="871" on="0"/>
        <pt x="440" y="886" on="1"/>
        <pt x="440" y="901" on="0"/>
        <pt x="460" y="922" on="0"/>
        <pt x="475" y="922" on="1"/>
        <pt x="490" y="922" on="0"/>
        <pt x="511" y="901" on="0"/>
        <pt x="511" y="886" on="1"/>
        <pt x="511" y="871" on="0"/>
        <pt x="490" y="850" on="0"/>
      </contour>
      <contour>
        <pt x="336" y="850" on="1"/>
        <pt x="321" y="850" on="0"/>
        <pt x="301" y="871" on="0"/>
        <pt x="301" y="886" on="1"/>
        <pt x="301" y="901" on="0"/>
        <pt x="321" y="922" on="0"/>
        <pt x="336" y="922" on="1"/>
        <pt x="351" y="922" on="0"/>
        <pt x="372" y="901" on="0"/>
        <pt x="372" y="886" on="1"/>
        <pt x="372" y="871" on="0"/>
        <pt x="351" y="850" on="0"/>
      </contour>
      <contour>
        <pt x="406" y="-10" on="1"/>
        <pt x="321" y="-10" on="0"/>
        <pt x="192" y="55" on="0"/>
        <pt x="104" y="164" on="0"/>
        <pt x="60" y="299" on="0"/>
        <pt x="60" y="370" on="1"/>
        <pt x="60" y="441" on="0"/>
        <pt x="104" y="577" on="0"/>
        <pt x="192" y="686" on="0"/>
        <pt x="321" y="750" on="0"/>
        <pt x="406" y="750" on="1"/>
        <pt x="491" y="750" on="0"/>
        <pt x="620" y="686" on="0"/>
        <pt x="708" y="577" on="0"/>
        <pt x="752" y="441" on="0"/>
        <pt x="752" y="370" on="1"/>
        <pt x="752" y="299" on="0"/>
        <pt x="708" y="164" on="0"/>
        <pt x="620" y="55" on="0"/>
        <pt x="491" y="-10" on="0"/>
      </contour>
      <contour>
        <pt x="406" y="24" on="1"/>
        <pt x="464" y="24" on="0"/>
        <pt x="575" y="67" on="0"/>
        <pt x="664" y="154" on="0"/>
        <pt x="716" y="284" on="0"/>
        <pt x="716" y="370" on="1"/>
        <pt x="716" y="457" on="0"/>
        <pt x="664" y="586" on="0"/>
        <pt x="575" y="673" on="0"/>
        <pt x="464" y="716" on="0"/>
        <pt x="406" y="716" on="1"/>
        <pt x="348" y="716" on="0"/>
        <pt x="237" y="673" on="0"/>
        <pt x="148" y="586" on="0"/>
        <pt x="96" y="457" on="0"/>
        <pt x="96" y="370" on="1"/>
        <pt x="96" y="284" on="0"/>
        <pt x="148" y="154" on="0"/>
        <pt x="237" y="67" on="0"/>
        <pt x="348" y="24" on="0"/>
      </contour>
    </TTGlyph>
    <TTGlyph name="Ograve" xMin="60" yMin="-10" xMax="752" yMax="990">
      <contour>
        <pt x="386" y="838" on="1"/>
        <pt x="294" y="990" on="1"/>
        <pt x="335" y="990" on="1"/>
        <pt x="420" y="838" on="1"/>
      </contour>
      <contour>
        <pt x="406" y="-10" on="1"/>
        <pt x="321" y="-10" on="0"/>
        <pt x="192" y="55" on="0"/>
        <pt x="104" y="164" on="0"/>
        <pt x="60" y="299" on="0"/>
        <pt x="60" y="370" on="1"/>
        <pt x="60" y="441" on="0"/>
        <pt x="104" y="577" on="0"/>
        <pt x="192" y="686" on="0"/>
        <pt x="321" y="750" on="0"/>
        <pt x="406" y="750" on="1"/>
        <pt x="491" y="750" on="0"/>
        <pt x="620" y="686" on="0"/>
        <pt x="708" y="577" on="0"/>
        <pt x="752" y="441" on="0"/>
        <pt x="752" y="370" on="1"/>
        <pt x="752" y="299" on="0"/>
        <pt x="708" y="164" on="0"/>
        <pt x="620" y="55" on="0"/>
        <pt x="491" y="-10" on="0"/>
      </contour>
      <contour>
        <pt x="406" y="24" on="1"/>
        <pt x="464" y="24" on="0"/>
        <pt x="575" y="67" on="0"/>
        <pt x="664" y="154" on="0"/>
        <pt x="716" y="284" on="0"/>
        <pt x="716" y="370" on="1"/>
        <pt x="716" y="457" on="0"/>
        <pt x="664" y="586" on="0"/>
        <pt x="575" y="673" on="0"/>
        <pt x="464" y="716" on="0"/>
        <pt x="406" y="716" on="1"/>
        <pt x="348" y="716" on="0"/>
        <pt x="237" y="673" on="0"/>
        <pt x="148" y="586" on="0"/>
        <pt x="96" y="457" on="0"/>
        <pt x="96" y="370" on="1"/>
        <pt x="96" y="284" on="0"/>
        <pt x="148" y="154" on="0"/>
        <pt x="237" y="67" on="0"/>
        <pt x="348" y="24" on="0"/>
      </contour>
    </TTGlyph>
    <TTGlyph name="Ohorn" xMin="60" yMin="-10" xMax="752" yMax="839">
      <contour>
        <pt x="406" y="-10" on="1"/>
        <pt x="321" y="-10" on="0"/>
        <pt x="192" y="55" on="0"/>
        <pt x="104" y="164" on="0"/>
        <pt x="60" y="299" on="0"/>
        <pt x="60" y="370" on="1"/>
        <pt x="60" y="441" on="0"/>
        <pt x="104" y="577" on="0"/>
        <pt x="192" y="686" on="0"/>
        <pt x="321" y="750" on="0"/>
        <pt x="406" y="750" on="1"/>
        <pt x="420" y="750" on="0"/>
        <pt x="434" y="749" on="1"/>
        <pt x="540" y="749" on="1"/>
        <pt x="603" y="749" on="0"/>
        <pt x="603" y="815" on="1"/>
        <pt x="603" y="839" on="1"/>
        <pt x="636" y="839" on="1"/>
        <pt x="636" y="815" on="1"/>
        <pt x="636" y="772" on="0"/>
        <pt x="593" y="722" on="0"/>
        <pt x="551" y="719" on="1"/>
        <pt x="617" y="689" on="0"/>
        <pt x="707" y="579" on="0"/>
        <pt x="752" y="442" on="0"/>
        <pt x="752" y="370" on="1"/>
        <pt x="752" y="299" on="0"/>
        <pt x="708" y="164" on="0"/>
        <pt x="620" y="55" on="0"/>
        <pt x="491" y="-10" on="0"/>
      </contour>
      <contour>
        <pt x="406" y="24" on="1"/>
        <pt x="464" y="24" on="0"/>
        <pt x="575" y="67" on="0"/>
        <pt x="664" y="154" on="0"/>
        <pt x="716" y="284" on="0"/>
        <pt x="716" y="370" on="1"/>
        <pt x="716" y="457" on="0"/>
        <pt x="664" y="586" on="0"/>
        <pt x="575" y="673" on="0"/>
        <pt x="464" y="716" on="0"/>
        <pt x="406" y="716" on="1"/>
        <pt x="348" y="716" on="0"/>
        <pt x="237" y="673" on="0"/>
        <pt x="148" y="586" on="0"/>
        <pt x="96" y="457" on="0"/>
        <pt x="96" y="370" on="1"/>
        <pt x="96" y="284" on="0"/>
        <pt x="148" y="154" on="0"/>
        <pt x="237" y="67" on="0"/>
        <pt x="348" y="24" on="0"/>
      </contour>
    </TTGlyph>
    <TTGlyph name="Ohungarumlaut" xMin="60" yMin="-10" xMax="752" yMax="990">
      <contour>
        <pt x="363" y="838" on="1"/>
        <pt x="329" y="838" on="1"/>
        <pt x="384" y="990" on="1"/>
        <pt x="425" y="990" on="1"/>
      </contour>
      <contour>
        <pt x="481" y="838" on="1"/>
        <pt x="447" y="838" on="1"/>
        <pt x="502" y="990" on="1"/>
        <pt x="543" y="990" on="1"/>
      </contour>
      <contour>
        <pt x="406" y="-10" on="1"/>
        <pt x="321" y="-10" on="0"/>
        <pt x="192" y="55" on="0"/>
        <pt x="104" y="164" on="0"/>
        <pt x="60" y="299" on="0"/>
        <pt x="60" y="370" on="1"/>
        <pt x="60" y="441" on="0"/>
        <pt x="104" y="577" on="0"/>
        <pt x="192" y="686" on="0"/>
        <pt x="321" y="750" on="0"/>
        <pt x="406" y="750" on="1"/>
        <pt x="491" y="750" on="0"/>
        <pt x="620" y="686" on="0"/>
        <pt x="708" y="577" on="0"/>
        <pt x="752" y="441" on="0"/>
        <pt x="752" y="370" on="1"/>
        <pt x="752" y="299" on="0"/>
        <pt x="708" y="164" on="0"/>
        <pt x="620" y="55" on="0"/>
        <pt x="491" y="-10" on="0"/>
      </contour>
      <contour>
        <pt x="406" y="24" on="1"/>
        <pt x="464" y="24" on="0"/>
        <pt x="575" y="67" on="0"/>
        <pt x="664" y="154" on="0"/>
        <pt x="716" y="284" on="0"/>
        <pt x="716" y="370" on="1"/>
        <pt x="716" y="457" on="0"/>
        <pt x="664" y="586" on="0"/>
        <pt x="575" y="673" on="0"/>
        <pt x="464" y="716" on="0"/>
        <pt x="406" y="716" on="1"/>
        <pt x="348" y="716" on="0"/>
        <pt x="237" y="673" on="0"/>
        <pt x="148" y="586" on="0"/>
        <pt x="96" y="457" on="0"/>
        <pt x="96" y="370" on="1"/>
        <pt x="96" y="284" on="0"/>
        <pt x="148" y="154" on="0"/>
        <pt x="237" y="67" on="0"/>
        <pt x="348" y="24" on="0"/>
      </contour>
    </TTGlyph>
    <TTGlyph name="Omacron" xMin="60" yMin="-10" xMax="752" yMax="888">
      <contour>
        <pt x="266" y="858" on="1"/>
        <pt x="266" y="888" on="1"/>
        <pt x="546" y="888" on="1"/>
        <pt x="546" y="858" on="1"/>
      </contour>
      <contour>
        <pt x="406" y="-10" on="1"/>
        <pt x="321" y="-10" on="0"/>
        <pt x="192" y="55" on="0"/>
        <pt x="104" y="164" on="0"/>
        <pt x="60" y="299" on="0"/>
        <pt x="60" y="370" on="1"/>
        <pt x="60" y="441" on="0"/>
        <pt x="104" y="577" on="0"/>
        <pt x="192" y="686" on="0"/>
        <pt x="321" y="750" on="0"/>
        <pt x="406" y="750" on="1"/>
        <pt x="491" y="750" on="0"/>
        <pt x="620" y="686" on="0"/>
        <pt x="708" y="577" on="0"/>
        <pt x="752" y="441" on="0"/>
        <pt x="752" y="370" on="1"/>
        <pt x="752" y="299" on="0"/>
        <pt x="708" y="164" on="0"/>
        <pt x="620" y="55" on="0"/>
        <pt x="491" y="-10" on="0"/>
      </contour>
      <contour>
        <pt x="406" y="24" on="1"/>
        <pt x="464" y="24" on="0"/>
        <pt x="575" y="67" on="0"/>
        <pt x="664" y="154" on="0"/>
        <pt x="716" y="284" on="0"/>
        <pt x="716" y="370" on="1"/>
        <pt x="716" y="457" on="0"/>
        <pt x="664" y="586" on="0"/>
        <pt x="575" y="673" on="0"/>
        <pt x="464" y="716" on="0"/>
        <pt x="406" y="716" on="1"/>
        <pt x="348" y="716" on="0"/>
        <pt x="237" y="673" on="0"/>
        <pt x="148" y="586" on="0"/>
        <pt x="96" y="457" on="0"/>
        <pt x="96" y="370" on="1"/>
        <pt x="96" y="284" on="0"/>
        <pt x="148" y="154" on="0"/>
        <pt x="237" y="67" on="0"/>
        <pt x="348" y="24" on="0"/>
      </contour>
    </TTGlyph>
    <TTGlyph name="Oslash" xMin="60" yMin="-23" xMax="752" yMax="764">
      <contour>
        <pt x="133" y="-23" on="1"/>
        <pt x="190" y="66" on="1"/>
        <pt x="126" y="121" on="0"/>
        <pt x="60" y="284" on="0"/>
        <pt x="60" y="370" on="1"/>
        <pt x="60" y="441" on="0"/>
        <pt x="104" y="577" on="0"/>
        <pt x="192" y="686" on="0"/>
        <pt x="321" y="750" on="0"/>
        <pt x="406" y="750" on="1"/>
        <pt x="462" y="750" on="0"/>
        <pt x="555" y="721" on="0"/>
        <pt x="593" y="696" on="1"/>
        <pt x="637" y="764" on="1"/>
        <pt x="674" y="764" on="1"/>
        <pt x="618" y="677" on="1"/>
        <pt x="685" y="623" on="0"/>
        <pt x="752" y="458" on="0"/>
        <pt x="752" y="370" on="1"/>
        <pt x="752" y="299" on="0"/>
        <pt x="708" y="164" on="0"/>
        <pt x="620" y="55" on="0"/>
        <pt x="491" y="-10" on="0"/>
        <pt x="406" y="-10" on="1"/>
        <pt x="349" y="-10" on="0"/>
        <pt x="253" y="20" on="0"/>
        <pt x="215" y="47" on="1"/>
        <pt x="170" y="-23" on="1"/>
      </contour>
      <contour>
        <pt x="96" y="370" on="1"/>
        <pt x="96" y="276" on="0"/>
        <pt x="159" y="139" on="0"/>
        <pt x="209" y="96" on="1"/>
        <pt x="574" y="666" on="1"/>
        <pt x="536" y="691" on="0"/>
        <pt x="450" y="716" on="0"/>
        <pt x="406" y="716" on="1"/>
        <pt x="348" y="716" on="0"/>
        <pt x="237" y="673" on="0"/>
        <pt x="148" y="586" on="0"/>
        <pt x="96" y="457" on="0"/>
      </contour>
      <contour>
        <pt x="406" y="24" on="1"/>
        <pt x="464" y="24" on="0"/>
        <pt x="575" y="67" on="0"/>
        <pt x="664" y="154" on="0"/>
        <pt x="716" y="284" on="0"/>
        <pt x="716" y="370" on="1"/>
        <pt x="716" y="466" on="0"/>
        <pt x="651" y="605" on="0"/>
        <pt x="599" y="647" on="1"/>
        <pt x="234" y="77" on="1"/>
        <pt x="272" y="50" on="0"/>
        <pt x="361" y="24" on="0"/>
      </contour>
    </TTGlyph>
    <TTGlyph name="Otilde" xMin="60" yMin="-10" xMax="752" yMax="951">
      <contour>
        <pt x="466" y="841" on="1"/>
        <pt x="444" y="841" on="0"/>
        <pt x="413" y="865" on="0"/>
        <pt x="389" y="898" on="0"/>
        <pt x="364" y="922" on="0"/>
        <pt x="348" y="922" on="1"/>
        <pt x="329" y="922" on="0"/>
        <pt x="312" y="882" on="0"/>
        <pt x="312" y="846" on="1"/>
        <pt x="282" y="846" on="1"/>
        <pt x="282" y="890" on="0"/>
        <pt x="313" y="951" on="0"/>
        <pt x="348" y="951" on="1"/>
        <pt x="372" y="951" on="0"/>
        <pt x="404" y="927" on="0"/>
        <pt x="428" y="894" on="0"/>
        <pt x="451" y="870" on="0"/>
        <pt x="466" y="870" on="1"/>
        <pt x="485" y="870" on="0"/>
        <pt x="501" y="911" on="0"/>
        <pt x="501" y="946" on="1"/>
        <pt x="531" y="946" on="1"/>
        <pt x="531" y="903" on="0"/>
        <pt x="500" y="841" on="0"/>
      </contour>
      <contour>
        <pt x="406" y="-10" on="1"/>
        <pt x="321" y="-10" on="0"/>
        <pt x="192" y="55" on="0"/>
        <pt x="104" y="164" on="0"/>
        <pt x="60" y="299" on="0"/>
        <pt x="60" y="370" on="1"/>
        <pt x="60" y="441" on="0"/>
        <pt x="104" y="577" on="0"/>
        <pt x="192" y="686" on="0"/>
        <pt x="321" y="750" on="0"/>
        <pt x="406" y="750" on="1"/>
        <pt x="491" y="750" on="0"/>
        <pt x="620" y="686" on="0"/>
        <pt x="708" y="577" on="0"/>
        <pt x="752" y="441" on="0"/>
        <pt x="752" y="370" on="1"/>
        <pt x="752" y="299" on="0"/>
        <pt x="708" y="164" on="0"/>
        <pt x="620" y="55" on="0"/>
        <pt x="491" y="-10" on="0"/>
      </contour>
      <contour>
        <pt x="406" y="24" on="1"/>
        <pt x="464" y="24" on="0"/>
        <pt x="575" y="67" on="0"/>
        <pt x="664" y="154" on="0"/>
        <pt x="716" y="284" on="0"/>
        <pt x="716" y="370" on="1"/>
        <pt x="716" y="457" on="0"/>
        <pt x="664" y="586" on="0"/>
        <pt x="575" y="673" on="0"/>
        <pt x="464" y="716" on="0"/>
        <pt x="406" y="716" on="1"/>
        <pt x="348" y="716" on="0"/>
        <pt x="237" y="673" on="0"/>
        <pt x="148" y="586" on="0"/>
        <pt x="96" y="457" on="0"/>
        <pt x="96" y="370" on="1"/>
        <pt x="96" y="284" on="0"/>
        <pt x="148" y="154" on="0"/>
        <pt x="237" y="67" on="0"/>
        <pt x="348" y="24" on="0"/>
      </contour>
    </TTGlyph>
    <TTGlyph name="P" xMin="90" yMin="0" xMax="566" yMax="740">
      <contour>
        <pt x="90" y="0" on="1"/>
        <pt x="90" y="740" on="1"/>
        <pt x="335" y="740" on="1"/>
        <pt x="412" y="740" on="0"/>
        <pt x="514" y="675" on="0"/>
        <pt x="566" y="572" on="0"/>
        <pt x="566" y="516" on="1"/>
        <pt x="566" y="460" on="0"/>
        <pt x="514" y="357" on="0"/>
        <pt x="412" y="292" on="0"/>
        <pt x="335" y="292" on="1"/>
        <pt x="125" y="292" on="1"/>
        <pt x="125" y="0" on="1"/>
      </contour>
      <contour>
        <pt x="335" y="706" on="1"/>
        <pt x="125" y="706" on="1"/>
        <pt x="125" y="326" on="1"/>
        <pt x="335" y="326" on="1"/>
        <pt x="401" y="326" on="0"/>
        <pt x="488" y="381" on="0"/>
        <pt x="531" y="469" on="0"/>
        <pt x="531" y="516" on="1"/>
        <pt x="531" y="564" on="0"/>
        <pt x="488" y="651" on="0"/>
        <pt x="401" y="706" on="0"/>
      </contour>
    </TTGlyph>
    <TTGlyph name="Q" xMin="60" yMin="-10" xMax="752" yMax="750">
      <contour>
        <pt x="406" y="-10" on="1"/>
        <pt x="321" y="-10" on="0"/>
        <pt x="192" y="55" on="0"/>
        <pt x="104" y="164" on="0"/>
        <pt x="60" y="299" on="0"/>
        <pt x="60" y="370" on="1"/>
        <pt x="60" y="441" on="0"/>
        <pt x="104" y="577" on="0"/>
        <pt x="192" y="686" on="0"/>
        <pt x="321" y="750" on="0"/>
        <pt x="406" y="750" on="1"/>
        <pt x="491" y="750" on="0"/>
        <pt x="620" y="686" on="0"/>
        <pt x="708" y="577" on="0"/>
        <pt x="752" y="441" on="0"/>
        <pt x="752" y="370" on="1"/>
        <pt x="752" y="291" on="0"/>
        <pt x="698" y="141" on="0"/>
        <pt x="644" y="87" on="1"/>
        <pt x="731" y="0" on="1"/>
        <pt x="691" y="0" on="1"/>
        <pt x="623" y="67" on="1"/>
        <pt x="581" y="31" on="0"/>
        <pt x="473" y="-10" on="0"/>
      </contour>
      <contour>
        <pt x="406" y="24" on="1"/>
        <pt x="457" y="24" on="0"/>
        <pt x="556" y="58" on="0"/>
        <pt x="597" y="91" on="1"/>
        <pt x="442" y="242" on="1"/>
        <pt x="467" y="263" on="1"/>
        <pt x="619" y="111" on="1"/>
        <pt x="663" y="154" on="0"/>
        <pt x="716" y="284" on="0"/>
        <pt x="716" y="370" on="1"/>
        <pt x="716" y="457" on="0"/>
        <pt x="664" y="586" on="0"/>
        <pt x="575" y="673" on="0"/>
        <pt x="464" y="716" on="0"/>
        <pt x="406" y="716" on="1"/>
        <pt x="348" y="716" on="0"/>
        <pt x="237" y="673" on="0"/>
        <pt x="148" y="586" on="0"/>
        <pt x="96" y="457" on="0"/>
        <pt x="96" y="370" on="1"/>
        <pt x="96" y="284" on="0"/>
        <pt x="148" y="154" on="0"/>
        <pt x="237" y="67" on="0"/>
        <pt x="348" y="24" on="0"/>
      </contour>
    </TTGlyph>
    <TTGlyph name="R" xMin="90" yMin="0" xMax="553" yMax="740">
      <contour>
        <pt x="90" y="0" on="1"/>
        <pt x="90" y="740" on="1"/>
        <pt x="315" y="740" on="1"/>
        <pt x="387" y="740" on="0"/>
        <pt x="483" y="682" on="0"/>
        <pt x="530" y="592" on="0"/>
        <pt x="530" y="542" on="1"/>
        <pt x="530" y="496" on="0"/>
        <pt x="490" y="412" on="0"/>
        <pt x="409" y="353" on="0"/>
        <pt x="348" y="346" on="1"/>
        <pt x="553" y="0" on="1"/>
        <pt x="512" y="0" on="1"/>
        <pt x="309" y="344" on="1"/>
        <pt x="125" y="344" on="1"/>
        <pt x="125" y="0" on="1"/>
      </contour>
      <contour>
        <pt x="315" y="706" on="1"/>
        <pt x="125" y="706" on="1"/>
        <pt x="125" y="377" on="1"/>
        <pt x="315" y="377" on="1"/>
        <pt x="375" y="377" on="0"/>
        <pt x="455" y="425" on="0"/>
        <pt x="494" y="501" on="0"/>
        <pt x="494" y="542" on="1"/>
        <pt x="494" y="583" on="0"/>
        <pt x="455" y="658" on="0"/>
        <pt x="375" y="706" on="0"/>
      </contour>
    </TTGlyph>
    <TTGlyph name="Racute" xMin="90" yMin="0" xMax="553" yMax="980">
      <contour>
        <pt x="311" y="828" on="1"/>
        <pt x="277" y="828" on="1"/>
        <pt x="362" y="980" on="1"/>
        <pt x="403" y="980" on="1"/>
      </contour>
      <contour>
        <pt x="90" y="0" on="1"/>
        <pt x="90" y="740" on="1"/>
        <pt x="315" y="740" on="1"/>
        <pt x="387" y="740" on="0"/>
        <pt x="483" y="682" on="0"/>
        <pt x="530" y="592" on="0"/>
        <pt x="530" y="542" on="1"/>
        <pt x="530" y="496" on="0"/>
        <pt x="490" y="412" on="0"/>
        <pt x="409" y="353" on="0"/>
        <pt x="348" y="346" on="1"/>
        <pt x="553" y="0" on="1"/>
        <pt x="512" y="0" on="1"/>
        <pt x="309" y="344" on="1"/>
        <pt x="125" y="344" on="1"/>
        <pt x="125" y="0" on="1"/>
      </contour>
      <contour>
        <pt x="315" y="706" on="1"/>
        <pt x="125" y="706" on="1"/>
        <pt x="125" y="377" on="1"/>
        <pt x="315" y="377" on="1"/>
        <pt x="375" y="377" on="0"/>
        <pt x="455" y="425" on="0"/>
        <pt x="494" y="501" on="0"/>
        <pt x="494" y="542" on="1"/>
        <pt x="494" y="583" on="0"/>
        <pt x="455" y="658" on="0"/>
        <pt x="375" y="706" on="0"/>
      </contour>
    </TTGlyph>
    <TTGlyph name="Rcaron" xMin="90" yMin="0" xMax="553" yMax="970">
      <contour>
        <pt x="270" y="818" on="1"/>
        <pt x="159" y="970" on="1"/>
        <pt x="196" y="970" on="1"/>
        <pt x="289" y="846" on="1"/>
        <pt x="381" y="970" on="1"/>
        <pt x="418" y="970" on="1"/>
        <pt x="307" y="818" on="1"/>
      </contour>
      <contour>
        <pt x="90" y="0" on="1"/>
        <pt x="90" y="740" on="1"/>
        <pt x="315" y="740" on="1"/>
        <pt x="387" y="740" on="0"/>
        <pt x="483" y="682" on="0"/>
        <pt x="530" y="592" on="0"/>
        <pt x="530" y="542" on="1"/>
        <pt x="530" y="496" on="0"/>
        <pt x="490" y="412" on="0"/>
        <pt x="409" y="353" on="0"/>
        <pt x="348" y="346" on="1"/>
        <pt x="553" y="0" on="1"/>
        <pt x="512" y="0" on="1"/>
        <pt x="309" y="344" on="1"/>
        <pt x="125" y="344" on="1"/>
        <pt x="125" y="0" on="1"/>
      </contour>
      <contour>
        <pt x="315" y="706" on="1"/>
        <pt x="125" y="706" on="1"/>
        <pt x="125" y="377" on="1"/>
        <pt x="315" y="377" on="1"/>
        <pt x="375" y="377" on="0"/>
        <pt x="455" y="425" on="0"/>
        <pt x="494" y="501" on="0"/>
        <pt x="494" y="542" on="1"/>
        <pt x="494" y="583" on="0"/>
        <pt x="455" y="658" on="0"/>
        <pt x="375" y="706" on="0"/>
      </contour>
    </TTGlyph>
    <TTGlyph name="S" xMin="53" yMin="-10" xMax="544" yMax="750">
      <contour>
        <pt x="317" y="-10" on="1"/>
        <pt x="250" y="-10" on="0"/>
        <pt x="158" y="22" on="0"/>
        <pt x="100" y="73" on="0"/>
        <pt x="69" y="130" on="0"/>
        <pt x="55" y="181" on="0"/>
        <pt x="53" y="213" on="0"/>
        <pt x="53" y="213" on="1"/>
        <pt x="88" y="213" on="1"/>
        <pt x="88" y="213" on="0"/>
        <pt x="91" y="175" on="0"/>
        <pt x="111" y="119" on="0"/>
        <pt x="159" y="62" on="0"/>
        <pt x="247" y="24" on="0"/>
        <pt x="317" y="24" on="1"/>
        <pt x="371" y="24" on="0"/>
        <pt x="458" y="67" on="0"/>
        <pt x="509" y="141" on="0"/>
        <pt x="509" y="189" on="1"/>
        <pt x="509" y="240" on="0"/>
        <pt x="465" y="304" on="0"/>
        <pt x="392" y="343" on="0"/>
        <pt x="349" y="353" on="1"/>
        <pt x="260" y="374" on="1"/>
        <pt x="174" y="395" on="0"/>
        <pt x="80" y="482" on="0"/>
        <pt x="80" y="557" on="1"/>
        <pt x="80" y="615" on="0"/>
        <pt x="137" y="702" on="0"/>
        <pt x="236" y="750" on="0"/>
        <pt x="298" y="750" on="1"/>
        <pt x="365" y="750" on="0"/>
        <pt x="451" y="708" on="0"/>
        <pt x="499" y="646" on="0"/>
        <pt x="522" y="583" on="0"/>
        <pt x="527" y="541" on="0"/>
        <pt x="527" y="541" on="1"/>
        <pt x="492" y="541" on="1"/>
        <pt x="492" y="541" on="0"/>
        <pt x="488" y="576" on="0"/>
        <pt x="469" y="629" on="0"/>
        <pt x="428" y="681" on="0"/>
        <pt x="355" y="716" on="0"/>
        <pt x="298" y="716" on="1"/>
        <pt x="238" y="716" on="0"/>
        <pt x="156" y="673" on="0"/>
        <pt x="114" y="601" on="0"/>
        <pt x="114" y="558" on="1"/>
        <pt x="114" y="495" on="0"/>
        <pt x="194" y="426" on="0"/>
        <pt x="267" y="409" on="1"/>
        <pt x="356" y="388" on="1"/>
        <pt x="442" y="367" on="0"/>
        <pt x="544" y="271" on="0"/>
        <pt x="544" y="189" on="1"/>
        <pt x="544" y="135" on="0"/>
        <pt x="486" y="44" on="0"/>
        <pt x="384" y="-10" on="0"/>
      </contour>
    </TTGlyph>
    <TTGlyph name="Sacute" xMin="53" yMin="-10" xMax="544" yMax="980">
      <contour>
        <pt x="325" y="828" on="1"/>
        <pt x="291" y="828" on="1"/>
        <pt x="376" y="980" on="1"/>
        <pt x="417" y="980" on="1"/>
      </contour>
      <contour>
        <pt x="317" y="-10" on="1"/>
        <pt x="250" y="-10" on="0"/>
        <pt x="158" y="22" on="0"/>
        <pt x="100" y="73" on="0"/>
        <pt x="69" y="130" on="0"/>
        <pt x="55" y="181" on="0"/>
        <pt x="53" y="213" on="0"/>
        <pt x="53" y="213" on="1"/>
        <pt x="88" y="213" on="1"/>
        <pt x="88" y="213" on="0"/>
        <pt x="91" y="175" on="0"/>
        <pt x="111" y="119" on="0"/>
        <pt x="159" y="62" on="0"/>
        <pt x="247" y="24" on="0"/>
        <pt x="317" y="24" on="1"/>
        <pt x="371" y="24" on="0"/>
        <pt x="458" y="67" on="0"/>
        <pt x="509" y="141" on="0"/>
        <pt x="509" y="189" on="1"/>
        <pt x="509" y="240" on="0"/>
        <pt x="465" y="304" on="0"/>
        <pt x="392" y="343" on="0"/>
        <pt x="349" y="353" on="1"/>
        <pt x="260" y="374" on="1"/>
        <pt x="174" y="395" on="0"/>
        <pt x="80" y="482" on="0"/>
        <pt x="80" y="557" on="1"/>
        <pt x="80" y="615" on="0"/>
        <pt x="137" y="702" on="0"/>
        <pt x="236" y="750" on="0"/>
        <pt x="298" y="750" on="1"/>
        <pt x="365" y="750" on="0"/>
        <pt x="451" y="708" on="0"/>
        <pt x="499" y="646" on="0"/>
        <pt x="522" y="583" on="0"/>
        <pt x="527" y="541" on="0"/>
        <pt x="527" y="541" on="1"/>
        <pt x="492" y="541" on="1"/>
        <pt x="492" y="541" on="0"/>
        <pt x="488" y="576" on="0"/>
        <pt x="469" y="629" on="0"/>
        <pt x="428" y="681" on="0"/>
        <pt x="355" y="716" on="0"/>
        <pt x="298" y="716" on="1"/>
        <pt x="238" y="716" on="0"/>
        <pt x="156" y="673" on="0"/>
        <pt x="114" y="601" on="0"/>
        <pt x="114" y="558" on="1"/>
        <pt x="114" y="495" on="0"/>
        <pt x="194" y="426" on="0"/>
        <pt x="267" y="409" on="1"/>
        <pt x="356" y="388" on="1"/>
        <pt x="442" y="367" on="0"/>
        <pt x="544" y="271" on="0"/>
        <pt x="544" y="189" on="1"/>
        <pt x="544" y="135" on="0"/>
        <pt x="486" y="44" on="0"/>
        <pt x="384" y="-10" on="0"/>
      </contour>
    </TTGlyph>
    <TTGlyph name="Scaron" xMin="53" yMin="-10" xMax="544" yMax="970">
      <contour>
        <pt x="284" y="818" on="1"/>
        <pt x="173" y="970" on="1"/>
        <pt x="210" y="970" on="1"/>
        <pt x="303" y="846" on="1"/>
        <pt x="395" y="970" on="1"/>
        <pt x="432" y="970" on="1"/>
        <pt x="321" y="818" on="1"/>
      </contour>
      <contour>
        <pt x="317" y="-10" on="1"/>
        <pt x="250" y="-10" on="0"/>
        <pt x="158" y="22" on="0"/>
        <pt x="100" y="73" on="0"/>
        <pt x="69" y="130" on="0"/>
        <pt x="55" y="181" on="0"/>
        <pt x="53" y="213" on="0"/>
        <pt x="53" y="213" on="1"/>
        <pt x="88" y="213" on="1"/>
        <pt x="88" y="213" on="0"/>
        <pt x="91" y="175" on="0"/>
        <pt x="111" y="119" on="0"/>
        <pt x="159" y="62" on="0"/>
        <pt x="247" y="24" on="0"/>
        <pt x="317" y="24" on="1"/>
        <pt x="371" y="24" on="0"/>
        <pt x="458" y="67" on="0"/>
        <pt x="509" y="141" on="0"/>
        <pt x="509" y="189" on="1"/>
        <pt x="509" y="240" on="0"/>
        <pt x="465" y="304" on="0"/>
        <pt x="392" y="343" on="0"/>
        <pt x="349" y="353" on="1"/>
        <pt x="260" y="374" on="1"/>
        <pt x="174" y="395" on="0"/>
        <pt x="80" y="482" on="0"/>
        <pt x="80" y="557" on="1"/>
        <pt x="80" y="615" on="0"/>
        <pt x="137" y="702" on="0"/>
        <pt x="236" y="750" on="0"/>
        <pt x="298" y="750" on="1"/>
        <pt x="365" y="750" on="0"/>
        <pt x="451" y="708" on="0"/>
        <pt x="499" y="646" on="0"/>
        <pt x="522" y="583" on="0"/>
        <pt x="527" y="541" on="0"/>
        <pt x="527" y="541" on="1"/>
        <pt x="492" y="541" on="1"/>
        <pt x="492" y="541" on="0"/>
        <pt x="488" y="576" on="0"/>
        <pt x="469" y="629" on="0"/>
        <pt x="428" y="681" on="0"/>
        <pt x="355" y="716" on="0"/>
        <pt x="298" y="716" on="1"/>
        <pt x="238" y="716" on="0"/>
        <pt x="156" y="673" on="0"/>
        <pt x="114" y="601" on="0"/>
        <pt x="114" y="558" on="1"/>
        <pt x="114" y="495" on="0"/>
        <pt x="194" y="426" on="0"/>
        <pt x="267" y="409" on="1"/>
        <pt x="356" y="388" on="1"/>
        <pt x="442" y="367" on="0"/>
        <pt x="544" y="271" on="0"/>
        <pt x="544" y="189" on="1"/>
        <pt x="544" y="135" on="0"/>
        <pt x="486" y="44" on="0"/>
        <pt x="384" y="-10" on="0"/>
      </contour>
    </TTGlyph>
    <TTGlyph name="Scedilla" xMin="53" yMin="-249" xMax="544" yMax="750">
      <contour>
        <pt x="317" y="-10" on="1"/>
        <pt x="314" y="-10" on="0"/>
        <pt x="313" y="-10" on="1"/>
        <pt x="277" y="-78" on="1"/>
        <pt x="285" y="-75" on="0"/>
        <pt x="305" y="-71" on="0"/>
        <pt x="317" y="-71" on="1"/>
        <pt x="364" y="-71" on="0"/>
        <pt x="410" y="-123" on="0"/>
        <pt x="410" y="-155" on="1"/>
        <pt x="410" y="-176" on="0"/>
        <pt x="388" y="-220" on="0"/>
        <pt x="341" y="-249" on="0"/>
        <pt x="302" y="-249" on="1"/>
        <pt x="277" y="-249" on="0"/>
        <pt x="240" y="-241" on="0"/>
        <pt x="240" y="-241" on="1"/>
        <pt x="240" y="-209" on="1"/>
        <pt x="240" y="-209" on="0"/>
        <pt x="280" y="-218" on="0"/>
        <pt x="302" y="-218" on="1"/>
        <pt x="343" y="-218" on="0"/>
        <pt x="377" y="-178" on="0"/>
        <pt x="377" y="-157" on="1"/>
        <pt x="377" y="-136" on="0"/>
        <pt x="345" y="-102" on="0"/>
        <pt x="312" y="-102" on="1"/>
        <pt x="284" y="-102" on="0"/>
        <pt x="251" y="-122" on="0"/>
        <pt x="251" y="-122" on="1"/>
        <pt x="232" y="-103" on="1"/>
        <pt x="282" y="-9" on="1"/>
        <pt x="212" y="-3" on="0"/>
        <pt x="125" y="45" on="0"/>
        <pt x="77" y="110" on="0"/>
        <pt x="57" y="172" on="0"/>
        <pt x="53" y="213" on="0"/>
        <pt x="53" y="213" on="1"/>
        <pt x="88" y="213" on="1"/>
        <pt x="88" y="213" on="0"/>
        <pt x="91" y="175" on="0"/>
        <pt x="111" y="119" on="0"/>
        <pt x="159" y="62" on="0"/>
        <pt x="247" y="24" on="0"/>
        <pt x="317" y="24" on="1"/>
        <pt x="371" y="24" on="0"/>
        <pt x="458" y="67" on="0"/>
        <pt x="509" y="141" on="0"/>
        <pt x="509" y="189" on="1"/>
        <pt x="509" y="240" on="0"/>
        <pt x="465" y="304" on="0"/>
        <pt x="392" y="343" on="0"/>
        <pt x="349" y="353" on="1"/>
        <pt x="260" y="374" on="1"/>
        <pt x="174" y="395" on="0"/>
        <pt x="80" y="482" on="0"/>
        <pt x="80" y="557" on="1"/>
        <pt x="80" y="615" on="0"/>
        <pt x="137" y="702" on="0"/>
        <pt x="236" y="750" on="0"/>
        <pt x="298" y="750" on="1"/>
        <pt x="365" y="750" on="0"/>
        <pt x="451" y="708" on="0"/>
        <pt x="499" y="646" on="0"/>
        <pt x="522" y="583" on="0"/>
        <pt x="527" y="541" on="0"/>
        <pt x="527" y="541" on="1"/>
        <pt x="492" y="541" on="1"/>
        <pt x="492" y="541" on="0"/>
        <pt x="488" y="576" on="0"/>
        <pt x="469" y="629" on="0"/>
        <pt x="428" y="681" on="0"/>
        <pt x="355" y="716" on="0"/>
        <pt x="298" y="716" on="1"/>
        <pt x="238" y="716" on="0"/>
        <pt x="156" y="673" on="0"/>
        <pt x="114" y="601" on="0"/>
        <pt x="114" y="558" on="1"/>
        <pt x="114" y="495" on="0"/>
        <pt x="194" y="426" on="0"/>
        <pt x="267" y="409" on="1"/>
        <pt x="356" y="388" on="1"/>
        <pt x="442" y="367" on="0"/>
        <pt x="544" y="271" on="0"/>
        <pt x="544" y="189" on="1"/>
        <pt x="544" y="135" on="0"/>
        <pt x="486" y="44" on="0"/>
        <pt x="384" y="-10" on="0"/>
      </contour>
    </TTGlyph>
    <TTGlyph name="T" xMin="40" yMin="0" xMax="590" yMax="740">
      <contour>
        <pt x="298" y="0" on="1"/>
        <pt x="298" y="706" on="1"/>
        <pt x="40" y="706" on="1"/>
        <pt x="40" y="740" on="1"/>
        <pt x="590" y="740" on="1"/>
        <pt x="590" y="706" on="1"/>
        <pt x="333" y="706" on="1"/>
        <pt x="333" y="0" on="1"/>
      </contour>
    </TTGlyph>
    <TTGlyph name="Tbar" xMin="40" yMin="0" xMax="590" yMax="740">
      <contour>
        <pt x="298" y="0" on="1"/>
        <pt x="298" y="369" on="1"/>
        <pt x="87" y="369" on="1"/>
        <pt x="87" y="401" on="1"/>
        <pt x="298" y="401" on="1"/>
        <pt x="298" y="706" on="1"/>
        <pt x="40" y="706" on="1"/>
        <pt x="40" y="740" on="1"/>
        <pt x="590" y="740" on="1"/>
        <pt x="590" y="706" on="1"/>
        <pt x="333" y="706" on="1"/>
        <pt x="333" y="401" on="1"/>
        <pt x="543" y="401" on="1"/>
        <pt x="543" y="369" on="1"/>
        <pt x="333" y="369" on="1"/>
        <pt x="333" y="0" on="1"/>
      </contour>
    </TTGlyph>
    <TTGlyph name="Tcaron" xMin="40" yMin="0" xMax="590" yMax="970">
      <contour>
        <pt x="296" y="818" on="1"/>
        <pt x="185" y="970" on="1"/>
        <pt x="222" y="970" on="1"/>
        <pt x="315" y="846" on="1"/>
        <pt x="407" y="970" on="1"/>
        <pt x="444" y="970" on="1"/>
        <pt x="333" y="818" on="1"/>
      </contour>
      <contour>
        <pt x="298" y="0" on="1"/>
        <pt x="298" y="706" on="1"/>
        <pt x="40" y="706" on="1"/>
        <pt x="40" y="740" on="1"/>
        <pt x="590" y="740" on="1"/>
        <pt x="590" y="706" on="1"/>
        <pt x="333" y="706" on="1"/>
        <pt x="333" y="0" on="1"/>
      </contour>
    </TTGlyph>
    <TTGlyph name="Thorn" xMin="90" yMin="0" xMax="566" yMax="740">
      <contour>
        <pt x="90" y="0" on="1"/>
        <pt x="90" y="740" on="1"/>
        <pt x="125" y="740" on="1"/>
        <pt x="125" y="594" on="1"/>
        <pt x="335" y="594" on="1"/>
        <pt x="412" y="594" on="0"/>
        <pt x="514" y="529" on="0"/>
        <pt x="566" y="426" on="0"/>
        <pt x="566" y="370" on="1"/>
        <pt x="566" y="314" on="0"/>
        <pt x="514" y="211" on="0"/>
        <pt x="412" y="146" on="0"/>
        <pt x="335" y="146" on="1"/>
        <pt x="125" y="146" on="1"/>
        <pt x="125" y="0" on="1"/>
      </contour>
      <contour>
        <pt x="335" y="560" on="1"/>
        <pt x="125" y="560" on="1"/>
        <pt x="125" y="180" on="1"/>
        <pt x="335" y="180" on="1"/>
        <pt x="401" y="180" on="0"/>
        <pt x="488" y="235" on="0"/>
        <pt x="531" y="323" on="0"/>
        <pt x="531" y="370" on="1"/>
        <pt x="531" y="418" on="0"/>
        <pt x="488" y="505" on="0"/>
        <pt x="401" y="560" on="0"/>
      </contour>
    </TTGlyph>
    <TTGlyph name="U" xMin="90" yMin="-10" xMax="604" yMax="740">
      <contour>
        <pt x="347" y="-10" on="1"/>
        <pt x="255" y="-10" on="0"/>
        <pt x="142" y="67" on="0"/>
        <pt x="90" y="194" on="0"/>
        <pt x="90" y="270" on="1"/>
        <pt x="90" y="740" on="1"/>
        <pt x="125" y="740" on="1"/>
        <pt x="125" y="270" on="1"/>
        <pt x="125" y="156" on="0"/>
        <pt x="236" y="24" on="0"/>
        <pt x="347" y="24" on="1"/>
        <pt x="458" y="24" on="0"/>
        <pt x="569" y="156" on="0"/>
        <pt x="569" y="270" on="1"/>
        <pt x="569" y="740" on="1"/>
        <pt x="604" y="740" on="1"/>
        <pt x="604" y="270" on="1"/>
        <pt x="604" y="194" on="0"/>
        <pt x="552" y="67" on="0"/>
        <pt x="439" y="-10" on="0"/>
      </contour>
    </TTGlyph>
    <TTGlyph name="Uacute" xMin="90" yMin="-10" xMax="604" yMax="980">
      <contour>
        <pt x="369" y="828" on="1"/>
        <pt x="335" y="828" on="1"/>
        <pt x="420" y="980" on="1"/>
        <pt x="461" y="980" on="1"/>
      </contour>
      <contour>
        <pt x="347" y="-10" on="1"/>
        <pt x="255" y="-10" on="0"/>
        <pt x="142" y="67" on="0"/>
        <pt x="90" y="194" on="0"/>
        <pt x="90" y="270" on="1"/>
        <pt x="90" y="740" on="1"/>
        <pt x="125" y="740" on="1"/>
        <pt x="125" y="270" on="1"/>
        <pt x="125" y="156" on="0"/>
        <pt x="236" y="24" on="0"/>
        <pt x="347" y="24" on="1"/>
        <pt x="458" y="24" on="0"/>
        <pt x="569" y="156" on="0"/>
        <pt x="569" y="270" on="1"/>
        <pt x="569" y="740" on="1"/>
        <pt x="604" y="740" on="1"/>
        <pt x="604" y="270" on="1"/>
        <pt x="604" y="194" on="0"/>
        <pt x="552" y="67" on="0"/>
        <pt x="439" y="-10" on="0"/>
      </contour>
    </TTGlyph>
    <TTGlyph name="Ucircumflex" xMin="90" yMin="-10" xMax="604" yMax="970">
      <contour>
        <pt x="218" y="818" on="1"/>
        <pt x="329" y="970" on="1"/>
        <pt x="366" y="970" on="1"/>
        <pt x="477" y="818" on="1"/>
        <pt x="440" y="818" on="1"/>
        <pt x="348" y="942" on="1"/>
        <pt x="255" y="818" on="1"/>
      </contour>
      <contour>
        <pt x="347" y="-10" on="1"/>
        <pt x="255" y="-10" on="0"/>
        <pt x="142" y="67" on="0"/>
        <pt x="90" y="194" on="0"/>
        <pt x="90" y="270" on="1"/>
        <pt x="90" y="740" on="1"/>
        <pt x="125" y="740" on="1"/>
        <pt x="125" y="270" on="1"/>
        <pt x="125" y="156" on="0"/>
        <pt x="236" y="24" on="0"/>
        <pt x="347" y="24" on="1"/>
        <pt x="458" y="24" on="0"/>
        <pt x="569" y="156" on="0"/>
        <pt x="569" y="270" on="1"/>
        <pt x="569" y="740" on="1"/>
        <pt x="604" y="740" on="1"/>
        <pt x="604" y="270" on="1"/>
        <pt x="604" y="194" on="0"/>
        <pt x="552" y="67" on="0"/>
        <pt x="439" y="-10" on="0"/>
      </contour>
    </TTGlyph>
    <TTGlyph name="Udieresis" xMin="90" yMin="-10" xMax="604" yMax="912">
      <contour>
        <pt x="416" y="840" on="1"/>
        <pt x="401" y="840" on="0"/>
        <pt x="381" y="861" on="0"/>
        <pt x="381" y="876" on="1"/>
        <pt x="381" y="891" on="0"/>
        <pt x="401" y="912" on="0"/>
        <pt x="416" y="912" on="1"/>
        <pt x="431" y="912" on="0"/>
        <pt x="452" y="891" on="0"/>
        <pt x="452" y="876" on="1"/>
        <pt x="452" y="861" on="0"/>
        <pt x="431" y="840" on="0"/>
      </contour>
      <contour>
        <pt x="277" y="840" on="1"/>
        <pt x="262" y="840" on="0"/>
        <pt x="242" y="861" on="0"/>
        <pt x="242" y="876" on="1"/>
        <pt x="242" y="891" on="0"/>
        <pt x="262" y="912" on="0"/>
        <pt x="277" y="912" on="1"/>
        <pt x="292" y="912" on="0"/>
        <pt x="313" y="891" on="0"/>
        <pt x="313" y="876" on="1"/>
        <pt x="313" y="861" on="0"/>
        <pt x="292" y="840" on="0"/>
      </contour>
      <contour>
        <pt x="347" y="-10" on="1"/>
        <pt x="255" y="-10" on="0"/>
        <pt x="142" y="67" on="0"/>
        <pt x="90" y="194" on="0"/>
        <pt x="90" y="270" on="1"/>
        <pt x="90" y="740" on="1"/>
        <pt x="125" y="740" on="1"/>
        <pt x="125" y="270" on="1"/>
        <pt x="125" y="156" on="0"/>
        <pt x="236" y="24" on="0"/>
        <pt x="347" y="24" on="1"/>
        <pt x="458" y="24" on="0"/>
        <pt x="569" y="156" on="0"/>
        <pt x="569" y="270" on="1"/>
        <pt x="569" y="740" on="1"/>
        <pt x="604" y="740" on="1"/>
        <pt x="604" y="270" on="1"/>
        <pt x="604" y="194" on="0"/>
        <pt x="552" y="67" on="0"/>
        <pt x="439" y="-10" on="0"/>
      </contour>
    </TTGlyph>
    <TTGlyph name="Ugrave" xMin="90" yMin="-10" xMax="604" yMax="980">
      <contour>
        <pt x="327" y="828" on="1"/>
        <pt x="235" y="980" on="1"/>
        <pt x="276" y="980" on="1"/>
        <pt x="361" y="828" on="1"/>
      </contour>
      <contour>
        <pt x="347" y="-10" on="1"/>
        <pt x="255" y="-10" on="0"/>
        <pt x="142" y="67" on="0"/>
        <pt x="90" y="194" on="0"/>
        <pt x="90" y="270" on="1"/>
        <pt x="90" y="740" on="1"/>
        <pt x="125" y="740" on="1"/>
        <pt x="125" y="270" on="1"/>
        <pt x="125" y="156" on="0"/>
        <pt x="236" y="24" on="0"/>
        <pt x="347" y="24" on="1"/>
        <pt x="458" y="24" on="0"/>
        <pt x="569" y="156" on="0"/>
        <pt x="569" y="270" on="1"/>
        <pt x="569" y="740" on="1"/>
        <pt x="604" y="740" on="1"/>
        <pt x="604" y="270" on="1"/>
        <pt x="604" y="194" on="0"/>
        <pt x="552" y="67" on="0"/>
        <pt x="439" y="-10" on="0"/>
      </contour>
    </TTGlyph>
    <TTGlyph name="Uhorn" xMin="90" yMin="-10" xMax="695" yMax="830">
      <contour>
        <pt x="347" y="-10" on="1"/>
        <pt x="255" y="-10" on="0"/>
        <pt x="142" y="67" on="0"/>
        <pt x="90" y="194" on="0"/>
        <pt x="90" y="270" on="1"/>
        <pt x="90" y="740" on="1"/>
        <pt x="125" y="740" on="1"/>
        <pt x="125" y="270" on="1"/>
        <pt x="125" y="156" on="0"/>
        <pt x="236" y="24" on="0"/>
        <pt x="347" y="24" on="1"/>
        <pt x="458" y="24" on="0"/>
        <pt x="569" y="156" on="0"/>
        <pt x="569" y="270" on="1"/>
        <pt x="569" y="740" on="1"/>
        <pt x="602" y="740" on="1"/>
        <pt x="662" y="740" on="0"/>
        <pt x="662" y="799" on="1"/>
        <pt x="662" y="830" on="1"/>
        <pt x="695" y="830" on="1"/>
        <pt x="695" y="799" on="1"/>
        <pt x="695" y="711" on="0"/>
        <pt x="604" y="711" on="1"/>
        <pt x="604" y="270" on="1"/>
        <pt x="604" y="194" on="0"/>
        <pt x="552" y="67" on="0"/>
        <pt x="439" y="-10" on="0"/>
      </contour>
    </TTGlyph>
    <TTGlyph name="Uhungarumlaut" xMin="90" yMin="-10" xMax="604" yMax="980">
      <contour>
        <pt x="304" y="828" on="1"/>
        <pt x="270" y="828" on="1"/>
        <pt x="325" y="980" on="1"/>
        <pt x="366" y="980" on="1"/>
      </contour>
      <contour>
        <pt x="422" y="828" on="1"/>
        <pt x="388" y="828" on="1"/>
        <pt x="443" y="980" on="1"/>
        <pt x="484" y="980" on="1"/>
      </contour>
      <contour>
        <pt x="347" y="-10" on="1"/>
        <pt x="255" y="-10" on="0"/>
        <pt x="142" y="67" on="0"/>
        <pt x="90" y="194" on="0"/>
        <pt x="90" y="270" on="1"/>
        <pt x="90" y="740" on="1"/>
        <pt x="125" y="740" on="1"/>
        <pt x="125" y="270" on="1"/>
        <pt x="125" y="156" on="0"/>
        <pt x="236" y="24" on="0"/>
        <pt x="347" y="24" on="1"/>
        <pt x="458" y="24" on="0"/>
        <pt x="569" y="156" on="0"/>
        <pt x="569" y="270" on="1"/>
        <pt x="569" y="740" on="1"/>
        <pt x="604" y="740" on="1"/>
        <pt x="604" y="270" on="1"/>
        <pt x="604" y="194" on="0"/>
        <pt x="552" y="67" on="0"/>
        <pt x="439" y="-10" on="0"/>
      </contour>
    </TTGlyph>
    <TTGlyph name="Umacron" xMin="90" yMin="-10" xMax="604" yMax="878">
      <contour>
        <pt x="207" y="848" on="1"/>
        <pt x="207" y="878" on="1"/>
        <pt x="487" y="878" on="1"/>
        <pt x="487" y="848" on="1"/>
      </contour>
      <contour>
        <pt x="347" y="-10" on="1"/>
        <pt x="255" y="-10" on="0"/>
        <pt x="142" y="67" on="0"/>
        <pt x="90" y="194" on="0"/>
        <pt x="90" y="270" on="1"/>
        <pt x="90" y="740" on="1"/>
        <pt x="125" y="740" on="1"/>
        <pt x="125" y="270" on="1"/>
        <pt x="125" y="156" on="0"/>
        <pt x="236" y="24" on="0"/>
        <pt x="347" y="24" on="1"/>
        <pt x="458" y="24" on="0"/>
        <pt x="569" y="156" on="0"/>
        <pt x="569" y="270" on="1"/>
        <pt x="569" y="740" on="1"/>
        <pt x="604" y="740" on="1"/>
        <pt x="604" y="270" on="1"/>
        <pt x="604" y="194" on="0"/>
        <pt x="552" y="67" on="0"/>
        <pt x="439" y="-10" on="0"/>
      </contour>
    </TTGlyph>
    <TTGlyph name="Uogonek" xMin="90" yMin="-156" xMax="604" yMax="740">
      <contour>
        <pt x="387" y="-156" on="1"/>
        <pt x="346" y="-156" on="0"/>
        <pt x="298" y="-115" on="0"/>
        <pt x="298" y="-82" on="1"/>
        <pt x="298" y="-56" on="0"/>
        <pt x="325" y="-20" on="0"/>
        <pt x="340" y="-10" on="1"/>
        <pt x="250" y="-8" on="0"/>
        <pt x="140" y="69" on="0"/>
        <pt x="90" y="195" on="0"/>
        <pt x="90" y="270" on="1"/>
        <pt x="90" y="740" on="1"/>
        <pt x="125" y="740" on="1"/>
        <pt x="125" y="270" on="1"/>
        <pt x="125" y="156" on="0"/>
        <pt x="236" y="24" on="0"/>
        <pt x="347" y="24" on="1"/>
        <pt x="458" y="24" on="0"/>
        <pt x="569" y="156" on="0"/>
        <pt x="569" y="270" on="1"/>
        <pt x="569" y="740" on="1"/>
        <pt x="604" y="740" on="1"/>
        <pt x="604" y="270" on="1"/>
        <pt x="604" y="199" on="0"/>
        <pt x="559" y="79" on="0"/>
        <pt x="463" y="0" on="0"/>
        <pt x="384" y="-8" on="1"/>
        <pt x="379" y="-11" on="0"/>
        <pt x="352" y="-28" on="0"/>
        <pt x="329" y="-57" on="0"/>
        <pt x="329" y="-78" on="1"/>
        <pt x="329" y="-100" on="0"/>
        <pt x="360" y="-127" on="0"/>
        <pt x="391" y="-127" on="1"/>
        <pt x="406" y="-127" on="0"/>
        <pt x="431" y="-122" on="0"/>
        <pt x="431" y="-122" on="1"/>
        <pt x="431" y="-150" on="1"/>
        <pt x="431" y="-150" on="0"/>
        <pt x="405" y="-156" on="0"/>
      </contour>
    </TTGlyph>
    <TTGlyph name="Uring" xMin="90" yMin="-10" xMax="604" yMax="1011">
      <contour>
        <pt x="347" y="824" on="1"/>
        <pt x="308" y="824" on="0"/>
        <pt x="254" y="879" on="0"/>
        <pt x="254" y="917" on="1"/>
        <pt x="254" y="956" on="0"/>
        <pt x="308" y="1011" on="0"/>
        <pt x="347" y="1011" on="1"/>
        <pt x="386" y="1011" on="0"/>
        <pt x="440" y="956" on="0"/>
        <pt x="440" y="917" on="1"/>
        <pt x="440" y="879" on="0"/>
        <pt x="386" y="824" on="0"/>
      </contour>
      <contour>
        <pt x="347" y="854" on="1"/>
        <pt x="373" y="854" on="0"/>
        <pt x="410" y="891" on="0"/>
        <pt x="410" y="917" on="1"/>
        <pt x="410" y="943" on="0"/>
        <pt x="373" y="981" on="0"/>
        <pt x="347" y="981" on="1"/>
        <pt x="321" y="981" on="0"/>
        <pt x="284" y="943" on="0"/>
        <pt x="284" y="917" on="1"/>
        <pt x="284" y="891" on="0"/>
        <pt x="321" y="854" on="0"/>
      </contour>
      <contour>
        <pt x="347" y="-10" on="1"/>
        <pt x="255" y="-10" on="0"/>
        <pt x="142" y="67" on="0"/>
        <pt x="90" y="194" on="0"/>
        <pt x="90" y="270" on="1"/>
        <pt x="90" y="740" on="1"/>
        <pt x="125" y="740" on="1"/>
        <pt x="125" y="270" on="1"/>
        <pt x="125" y="156" on="0"/>
        <pt x="236" y="24" on="0"/>
        <pt x="347" y="24" on="1"/>
        <pt x="458" y="24" on="0"/>
        <pt x="569" y="156" on="0"/>
        <pt x="569" y="270" on="1"/>
        <pt x="569" y="740" on="1"/>
        <pt x="604" y="740" on="1"/>
        <pt x="604" y="270" on="1"/>
        <pt x="604" y="194" on="0"/>
        <pt x="552" y="67" on="0"/>
        <pt x="439" y="-10" on="0"/>
      </contour>
    </TTGlyph>
    <TTGlyph name="Utilde" xMin="90" yMin="-10" xMax="604" yMax="941">
      <contour>
        <pt x="407" y="831" on="1"/>
        <pt x="385" y="831" on="0"/>
        <pt x="354" y="855" on="0"/>
        <pt x="330" y="888" on="0"/>
        <pt x="305" y="912" on="0"/>
        <pt x="289" y="912" on="1"/>
        <pt x="270" y="912" on="0"/>
        <pt x="253" y="872" on="0"/>
        <pt x="253" y="836" on="1"/>
        <pt x="223" y="836" on="1"/>
        <pt x="223" y="880" on="0"/>
        <pt x="254" y="941" on="0"/>
        <pt x="289" y="941" on="1"/>
        <pt x="313" y="941" on="0"/>
        <pt x="345" y="917" on="0"/>
        <pt x="369" y="884" on="0"/>
        <pt x="392" y="860" on="0"/>
        <pt x="407" y="860" on="1"/>
        <pt x="426" y="860" on="0"/>
        <pt x="442" y="901" on="0"/>
        <pt x="442" y="936" on="1"/>
        <pt x="472" y="936" on="1"/>
        <pt x="472" y="893" on="0"/>
        <pt x="441" y="831" on="0"/>
      </contour>
      <contour>
        <pt x="347" y="-10" on="1"/>
        <pt x="255" y="-10" on="0"/>
        <pt x="142" y="67" on="0"/>
        <pt x="90" y="194" on="0"/>
        <pt x="90" y="270" on="1"/>
        <pt x="90" y="740" on="1"/>
        <pt x="125" y="740" on="1"/>
        <pt x="125" y="270" on="1"/>
        <pt x="125" y="156" on="0"/>
        <pt x="236" y="24" on="0"/>
        <pt x="347" y="24" on="1"/>
        <pt x="458" y="24" on="0"/>
        <pt x="569" y="156" on="0"/>
        <pt x="569" y="270" on="1"/>
        <pt x="569" y="740" on="1"/>
        <pt x="604" y="740" on="1"/>
        <pt x="604" y="270" on="1"/>
        <pt x="604" y="194" on="0"/>
        <pt x="552" y="67" on="0"/>
        <pt x="439" y="-10" on="0"/>
      </contour>
    </TTGlyph>
    <TTGlyph name="V" xMin="50" yMin="0" xMax="624" yMax="740">
      <contour>
        <pt x="317" y="0" on="1"/>
        <pt x="50" y="740" on="1"/>
        <pt x="87" y="740" on="1"/>
        <pt x="337" y="43" on="1"/>
        <pt x="587" y="740" on="1"/>
        <pt x="624" y="740" on="1"/>
        <pt x="357" y="0" on="1"/>
      </contour>
    </TTGlyph>
    <TTGlyph name="W" xMin="60" yMin="0" xMax="951" yMax="740">
      <contour>
        <pt x="267" y="0" on="1"/>
        <pt x="60" y="740" on="1"/>
        <pt x="97" y="740" on="1"/>
        <pt x="287" y="52" on="1"/>
        <pt x="487" y="740" on="1"/>
        <pt x="524" y="740" on="1"/>
        <pt x="724" y="52" on="1"/>
        <pt x="914" y="740" on="1"/>
        <pt x="951" y="740" on="1"/>
        <pt x="744" y="0" on="1"/>
        <pt x="704" y="0" on="1"/>
        <pt x="506" y="688" on="1"/>
        <pt x="307" y="0" on="1"/>
      </contour>
    </TTGlyph>
    <TTGlyph name="Wacute" xMin="20" yMin="0" xMax="911" yMax="980">
      <contour>
        <pt x="487" y="828" on="1"/>
        <pt x="453" y="828" on="1"/>
        <pt x="538" y="980" on="1"/>
        <pt x="579" y="980" on="1"/>
      </contour>
      <contour>
        <pt x="227" y="0" on="1"/>
        <pt x="20" y="740" on="1"/>
        <pt x="57" y="740" on="1"/>
        <pt x="247" y="52" on="1"/>
        <pt x="447" y="740" on="1"/>
        <pt x="484" y="740" on="1"/>
        <pt x="684" y="52" on="1"/>
        <pt x="874" y="740" on="1"/>
        <pt x="911" y="740" on="1"/>
        <pt x="704" y="0" on="1"/>
        <pt x="664" y="0" on="1"/>
        <pt x="466" y="688" on="1"/>
        <pt x="267" y="0" on="1"/>
      </contour>
    </TTGlyph>
    <TTGlyph name="Wcircumflex" xMin="20" yMin="0" xMax="911" yMax="970">
      <contour>
        <pt x="336" y="818" on="1"/>
        <pt x="447" y="970" on="1"/>
        <pt x="484" y="970" on="1"/>
        <pt x="595" y="818" on="1"/>
        <pt x="558" y="818" on="1"/>
        <pt x="466" y="942" on="1"/>
        <pt x="373" y="818" on="1"/>
      </contour>
      <contour>
        <pt x="227" y="0" on="1"/>
        <pt x="20" y="740" on="1"/>
        <pt x="57" y="740" on="1"/>
        <pt x="247" y="52" on="1"/>
        <pt x="447" y="740" on="1"/>
        <pt x="484" y="740" on="1"/>
        <pt x="684" y="52" on="1"/>
        <pt x="874" y="740" on="1"/>
        <pt x="911" y="740" on="1"/>
        <pt x="704" y="0" on="1"/>
        <pt x="664" y="0" on="1"/>
        <pt x="466" y="688" on="1"/>
        <pt x="267" y="0" on="1"/>
      </contour>
    </TTGlyph>
    <TTGlyph name="Wdieresis" xMin="20" yMin="0" xMax="911" yMax="912">
      <contour>
        <pt x="534" y="840" on="1"/>
        <pt x="519" y="840" on="0"/>
        <pt x="499" y="861" on="0"/>
        <pt x="499" y="876" on="1"/>
        <pt x="499" y="891" on="0"/>
        <pt x="519" y="912" on="0"/>
        <pt x="534" y="912" on="1"/>
        <pt x="549" y="912" on="0"/>
        <pt x="570" y="891" on="0"/>
        <pt x="570" y="876" on="1"/>
        <pt x="570" y="861" on="0"/>
        <pt x="549" y="840" on="0"/>
      </contour>
      <contour>
        <pt x="395" y="840" on="1"/>
        <pt x="380" y="840" on="0"/>
        <pt x="360" y="861" on="0"/>
        <pt x="360" y="876" on="1"/>
        <pt x="360" y="891" on="0"/>
        <pt x="380" y="912" on="0"/>
        <pt x="395" y="912" on="1"/>
        <pt x="410" y="912" on="0"/>
        <pt x="431" y="891" on="0"/>
        <pt x="431" y="876" on="1"/>
        <pt x="431" y="861" on="0"/>
        <pt x="410" y="840" on="0"/>
      </contour>
      <contour>
        <pt x="227" y="0" on="1"/>
        <pt x="20" y="740" on="1"/>
        <pt x="57" y="740" on="1"/>
        <pt x="247" y="52" on="1"/>
        <pt x="447" y="740" on="1"/>
        <pt x="484" y="740" on="1"/>
        <pt x="684" y="52" on="1"/>
        <pt x="874" y="740" on="1"/>
        <pt x="911" y="740" on="1"/>
        <pt x="704" y="0" on="1"/>
        <pt x="664" y="0" on="1"/>
        <pt x="466" y="688" on="1"/>
        <pt x="267" y="0" on="1"/>
      </contour>
    </TTGlyph>
    <TTGlyph name="Wgrave" xMin="20" yMin="0" xMax="911" yMax="980">
      <contour>
        <pt x="445" y="828" on="1"/>
        <pt x="353" y="980" on="1"/>
        <pt x="394" y="980" on="1"/>
        <pt x="479" y="828" on="1"/>
      </contour>
      <contour>
        <pt x="227" y="0" on="1"/>
        <pt x="20" y="740" on="1"/>
        <pt x="57" y="740" on="1"/>
        <pt x="247" y="52" on="1"/>
        <pt x="447" y="740" on="1"/>
        <pt x="484" y="740" on="1"/>
        <pt x="684" y="52" on="1"/>
        <pt x="874" y="740" on="1"/>
        <pt x="911" y="740" on="1"/>
        <pt x="704" y="0" on="1"/>
        <pt x="664" y="0" on="1"/>
        <pt x="466" y="688" on="1"/>
        <pt x="267" y="0" on="1"/>
      </contour>
    </TTGlyph>
    <TTGlyph name="X" xMin="50" yMin="0" xMax="598" yMax="740">
      <contour>
        <pt x="50" y="0" on="1"/>
        <pt x="301" y="370" on="1"/>
        <pt x="50" y="740" on="1"/>
        <pt x="91" y="740" on="1"/>
        <pt x="324" y="397" on="1"/>
        <pt x="557" y="740" on="1"/>
        <pt x="598" y="740" on="1"/>
        <pt x="347" y="370" on="1"/>
        <pt x="598" y="0" on="1"/>
        <pt x="557" y="0" on="1"/>
        <pt x="324" y="342" on="1"/>
        <pt x="91" y="0" on="1"/>
      </contour>
    </TTGlyph>
    <TTGlyph name="Y" xMin="35" yMin="0" xMax="626" yMax="740">
      <contour>
        <pt x="313" y="0" on="1"/>
        <pt x="313" y="278" on="1"/>
        <pt x="35" y="740" on="1"/>
        <pt x="75" y="740" on="1"/>
        <pt x="331" y="313" on="1"/>
        <pt x="586" y="740" on="1"/>
        <pt x="626" y="740" on="1"/>
        <pt x="348" y="278" on="1"/>
        <pt x="348" y="0" on="1"/>
      </contour>
    </TTGlyph>
    <TTGlyph name="Yacute" xMin="35" yMin="0" xMax="626" yMax="940">
      <contour>
        <pt x="358" y="788" on="1"/>
        <pt x="324" y="788" on="1"/>
        <pt x="409" y="940" on="1"/>
        <pt x="450" y="940" on="1"/>
      </contour>
      <contour>
        <pt x="313" y="0" on="1"/>
        <pt x="313" y="278" on="1"/>
        <pt x="35" y="740" on="1"/>
        <pt x="75" y="740" on="1"/>
        <pt x="331" y="313" on="1"/>
        <pt x="586" y="740" on="1"/>
        <pt x="626" y="740" on="1"/>
        <pt x="348" y="278" on="1"/>
        <pt x="348" y="0" on="1"/>
      </contour>
    </TTGlyph>
    <TTGlyph name="Ycircumflex" xMin="35" yMin="0" xMax="626" yMax="930">
      <contour>
        <pt x="207" y="778" on="1"/>
        <pt x="318" y="930" on="1"/>
        <pt x="355" y="930" on="1"/>
        <pt x="466" y="778" on="1"/>
        <pt x="429" y="778" on="1"/>
        <pt x="337" y="902" on="1"/>
        <pt x="244" y="778" on="1"/>
      </contour>
      <contour>
        <pt x="313" y="0" on="1"/>
        <pt x="313" y="278" on="1"/>
        <pt x="35" y="740" on="1"/>
        <pt x="75" y="740" on="1"/>
        <pt x="331" y="313" on="1"/>
        <pt x="586" y="740" on="1"/>
        <pt x="626" y="740" on="1"/>
        <pt x="348" y="278" on="1"/>
        <pt x="348" y="0" on="1"/>
      </contour>
    </TTGlyph>
    <TTGlyph name="Ydieresis" xMin="35" yMin="0" xMax="626" yMax="872">
      <contour>
        <pt x="405" y="800" on="1"/>
        <pt x="390" y="800" on="0"/>
        <pt x="370" y="821" on="0"/>
        <pt x="370" y="836" on="1"/>
        <pt x="370" y="851" on="0"/>
        <pt x="390" y="872" on="0"/>
        <pt x="405" y="872" on="1"/>
        <pt x="420" y="872" on="0"/>
        <pt x="441" y="851" on="0"/>
        <pt x="441" y="836" on="1"/>
        <pt x="441" y="821" on="0"/>
        <pt x="420" y="800" on="0"/>
      </contour>
      <contour>
        <pt x="266" y="800" on="1"/>
        <pt x="251" y="800" on="0"/>
        <pt x="231" y="821" on="0"/>
        <pt x="231" y="836" on="1"/>
        <pt x="231" y="851" on="0"/>
        <pt x="251" y="872" on="0"/>
        <pt x="266" y="872" on="1"/>
        <pt x="281" y="872" on="0"/>
        <pt x="302" y="851" on="0"/>
        <pt x="302" y="836" on="1"/>
        <pt x="302" y="821" on="0"/>
        <pt x="281" y="800" on="0"/>
      </contour>
      <contour>
        <pt x="313" y="0" on="1"/>
        <pt x="313" y="278" on="1"/>
        <pt x="35" y="740" on="1"/>
        <pt x="75" y="740" on="1"/>
        <pt x="331" y="313" on="1"/>
        <pt x="586" y="740" on="1"/>
        <pt x="626" y="740" on="1"/>
        <pt x="348" y="278" on="1"/>
        <pt x="348" y="0" on="1"/>
      </contour>
    </TTGlyph>
    <TTGlyph name="Ygrave" xMin="35" yMin="0" xMax="626" yMax="940">
      <contour>
        <pt x="316" y="788" on="1"/>
        <pt x="224" y="940" on="1"/>
        <pt x="265" y="940" on="1"/>
        <pt x="350" y="788" on="1"/>
      </contour>
      <contour>
        <pt x="313" y="0" on="1"/>
        <pt x="313" y="278" on="1"/>
        <pt x="35" y="740" on="1"/>
        <pt x="75" y="740" on="1"/>
        <pt x="331" y="313" on="1"/>
        <pt x="586" y="740" on="1"/>
        <pt x="626" y="740" on="1"/>
        <pt x="348" y="278" on="1"/>
        <pt x="348" y="0" on="1"/>
      </contour>
    </TTGlyph>
    <TTGlyph name="Z" xMin="69" yMin="0" xMax="555" yMax="740">
      <contour>
        <pt x="69" y="0" on="1"/>
        <pt x="69" y="32" on="1"/>
        <pt x="513" y="706" on="1"/>
        <pt x="69" y="706" on="1"/>
        <pt x="69" y="740" on="1"/>
        <pt x="555" y="740" on="1"/>
        <pt x="555" y="708" on="1"/>
        <pt x="111" y="34" on="1"/>
        <pt x="555" y="34" on="1"/>
        <pt x="555" y="0" on="1"/>
      </contour>
    </TTGlyph>
    <TTGlyph name="Zacute" xMin="69" yMin="0" xMax="555" yMax="980">
      <contour>
        <pt x="332" y="828" on="1"/>
        <pt x="298" y="828" on="1"/>
        <pt x="383" y="980" on="1"/>
        <pt x="424" y="980" on="1"/>
      </contour>
      <contour>
        <pt x="69" y="0" on="1"/>
        <pt x="69" y="32" on="1"/>
        <pt x="513" y="706" on="1"/>
        <pt x="69" y="706" on="1"/>
        <pt x="69" y="740" on="1"/>
        <pt x="555" y="740" on="1"/>
        <pt x="555" y="708" on="1"/>
        <pt x="111" y="34" on="1"/>
        <pt x="555" y="34" on="1"/>
        <pt x="555" y="0" on="1"/>
      </contour>
    </TTGlyph>
    <TTGlyph name="Zcaron" xMin="69" yMin="0" xMax="555" yMax="970">
      <contour>
        <pt x="291" y="818" on="1"/>
        <pt x="180" y="970" on="1"/>
        <pt x="217" y="970" on="1"/>
        <pt x="310" y="846" on="1"/>
        <pt x="402" y="970" on="1"/>
        <pt x="439" y="970" on="1"/>
        <pt x="328" y="818" on="1"/>
      </contour>
      <contour>
        <pt x="69" y="0" on="1"/>
        <pt x="69" y="32" on="1"/>
        <pt x="513" y="706" on="1"/>
        <pt x="69" y="706" on="1"/>
        <pt x="69" y="740" on="1"/>
        <pt x="555" y="740" on="1"/>
        <pt x="555" y="708" on="1"/>
        <pt x="111" y="34" on="1"/>
        <pt x="555" y="34" on="1"/>
        <pt x="555" y="0" on="1"/>
      </contour>
    </TTGlyph>
    <TTGlyph name="Zdotaccent" xMin="69" yMin="0" xMax="555" yMax="917">
      <contour>
        <pt x="309" y="845" on="1"/>
        <pt x="294" y="845" on="0"/>
        <pt x="274" y="866" on="0"/>
        <pt x="274" y="881" on="1"/>
        <pt x="274" y="896" on="0"/>
        <pt x="294" y="917" on="0"/>
        <pt x="309" y="917" on="1"/>
        <pt x="324" y="917" on="0"/>
        <pt x="345" y="896" on="0"/>
        <pt x="345" y="881" on="1"/>
        <pt x="345" y="866" on="0"/>
        <pt x="324" y="845" on="0"/>
      </contour>
      <contour>
        <pt x="69" y="0" on="1"/>
        <pt x="69" y="32" on="1"/>
        <pt x="513" y="706" on="1"/>
        <pt x="69" y="706" on="1"/>
        <pt x="69" y="740" on="1"/>
        <pt x="555" y="740" on="1"/>
        <pt x="555" y="708" on="1"/>
        <pt x="111" y="34" on="1"/>
        <pt x="555" y="34" on="1"/>
        <pt x="555" y="0" on="1"/>
      </contour>
    </TTGlyph>
    <TTGlyph name="a" xMin="65" yMin="-10" xMax="540" yMax="540">
      <contour>
        <pt x="303" y="540" on="1"/>
        <pt x="351" y="540" on="0"/>
        <pt x="420" y="511" on="0"/>
        <pt x="467" y="469" on="0"/>
        <pt x="496" y="427" on="0"/>
        <pt x="502" y="413" on="1"/>
        <pt x="506" y="413" on="1"/>
        <pt x="506" y="530" on="1"/>
        <pt x="540" y="530" on="1"/>
        <pt x="540" y="0" on="1"/>
        <pt x="506" y="0" on="1"/>
        <pt x="506" y="117" on="1"/>
        <pt x="502" y="117" on="1"/>
        <pt x="496" y="104" on="0"/>
        <pt x="467" y="61" on="0"/>
        <pt x="420" y="19" on="0"/>
        <pt x="351" y="-10" on="0"/>
        <pt x="303" y="-10" on="1"/>
        <pt x="243" y="-10" on="0"/>
        <pt x="154" y="36" on="0"/>
        <pt x="95" y="115" on="0"/>
        <pt x="65" y="213" on="0"/>
        <pt x="65" y="265" on="1"/>
        <pt x="65" y="316" on="0"/>
        <pt x="95" y="414" on="0"/>
        <pt x="154" y="493" on="0"/>
        <pt x="243" y="540" on="0"/>
      </contour>
      <contour>
        <pt x="304" y="506" on="1"/>
        <pt x="235" y="506" on="0"/>
        <pt x="144" y="435" on="0"/>
        <pt x="99" y="325" on="0"/>
        <pt x="99" y="265" on="1"/>
        <pt x="99" y="205" on="0"/>
        <pt x="144" y="95" on="0"/>
        <pt x="235" y="24" on="0"/>
        <pt x="304" y="24" on="1"/>
        <pt x="372" y="24" on="0"/>
        <pt x="463" y="95" on="0"/>
        <pt x="508" y="205" on="0"/>
        <pt x="508" y="265" on="1"/>
        <pt x="508" y="325" on="0"/>
        <pt x="463" y="435" on="0"/>
        <pt x="372" y="506" on="0"/>
      </contour>
    </TTGlyph>
    <TTGlyph name="a.ss01" xMin="60" yMin="-10" xMax="457" yMax="540">
      <contour>
        <pt x="414" y="103" on="1"/>
        <pt x="414" y="103" on="0"/>
        <pt x="394" y="69" on="0"/>
        <pt x="350" y="24" on="0"/>
        <pt x="281" y="-10" on="0"/>
        <pt x="231" y="-10" on="1"/>
        <pt x="187" y="-10" on="0"/>
        <pt x="108" y="23" on="0"/>
        <pt x="60" y="88" on="0"/>
        <pt x="60" y="136" on="1"/>
        <pt x="60" y="188" on="0"/>
        <pt x="112" y="249" on="0"/>
        <pt x="189" y="279" on="0"/>
        <pt x="228" y="283" on="1"/>
        <pt x="422" y="306" on="1"/>
        <pt x="422" y="340" on="1"/>
        <pt x="422" y="364" on="0"/>
        <pt x="411" y="421" on="0"/>
        <pt x="378" y="473" on="0"/>
        <pt x="316" y="507" on="0"/>
        <pt x="265" y="507" on="1"/>
        <pt x="221" y="507" on="0"/>
        <pt x="163" y="481" on="0"/>
        <pt x="128" y="443" on="0"/>
        <pt x="111" y="405" on="0"/>
        <pt x="106" y="379" on="0"/>
        <pt x="106" y="379" on="1"/>
        <pt x="71" y="379" on="1"/>
        <pt x="71" y="379" on="0"/>
        <pt x="78" y="412" on="0"/>
        <pt x="100" y="459" on="0"/>
        <pt x="142" y="507" on="0"/>
        <pt x="211" y="540" on="0"/>
        <pt x="263" y="540" on="1"/>
        <pt x="350" y="540" on="0"/>
        <pt x="457" y="435" on="0"/>
        <pt x="457" y="340" on="1"/>
        <pt x="457" y="0" on="1"/>
        <pt x="422" y="0" on="1"/>
        <pt x="422" y="103" on="1"/>
      </contour>
      <contour>
        <pt x="95" y="136" on="1"/>
        <pt x="95" y="97" on="0"/>
        <pt x="135" y="47" on="0"/>
        <pt x="198" y="23" on="0"/>
        <pt x="231" y="23" on="1"/>
        <pt x="291" y="23" on="0"/>
        <pt x="376" y="84" on="0"/>
        <pt x="422" y="184" on="0"/>
        <pt x="422" y="242" on="1"/>
        <pt x="422" y="273" on="1"/>
        <pt x="230" y="251" on="1"/>
        <pt x="169" y="244" on="0"/>
        <pt x="95" y="189" on="0"/>
      </contour>
    </TTGlyph>
    <TTGlyph name="aacute" xMin="70" yMin="-10" xMax="545" yMax="770">
      <contour>
        <pt x="331" y="618" on="1"/>
        <pt x="297" y="618" on="1"/>
        <pt x="382" y="770" on="1"/>
        <pt x="423" y="770" on="1"/>
      </contour>
      <contour>
        <pt x="308" y="540" on="1"/>
        <pt x="356" y="540" on="0"/>
        <pt x="425" y="511" on="0"/>
        <pt x="472" y="469" on="0"/>
        <pt x="501" y="427" on="0"/>
        <pt x="507" y="413" on="1"/>
        <pt x="511" y="413" on="1"/>
        <pt x="511" y="530" on="1"/>
        <pt x="545" y="530" on="1"/>
        <pt x="545" y="0" on="1"/>
        <pt x="511" y="0" on="1"/>
        <pt x="511" y="117" on="1"/>
        <pt x="507" y="117" on="1"/>
        <pt x="501" y="104" on="0"/>
        <pt x="472" y="61" on="0"/>
        <pt x="425" y="19" on="0"/>
        <pt x="356" y="-10" on="0"/>
        <pt x="308" y="-10" on="1"/>
        <pt x="248" y="-10" on="0"/>
        <pt x="159" y="36" on="0"/>
        <pt x="100" y="115" on="0"/>
        <pt x="70" y="213" on="0"/>
        <pt x="70" y="265" on="1"/>
        <pt x="70" y="316" on="0"/>
        <pt x="100" y="414" on="0"/>
        <pt x="159" y="493" on="0"/>
        <pt x="248" y="540" on="0"/>
      </contour>
      <contour>
        <pt x="309" y="506" on="1"/>
        <pt x="240" y="506" on="0"/>
        <pt x="149" y="435" on="0"/>
        <pt x="104" y="325" on="0"/>
        <pt x="104" y="265" on="1"/>
        <pt x="104" y="205" on="0"/>
        <pt x="149" y="95" on="0"/>
        <pt x="240" y="24" on="0"/>
        <pt x="309" y="24" on="1"/>
        <pt x="377" y="24" on="0"/>
        <pt x="468" y="95" on="0"/>
        <pt x="513" y="205" on="0"/>
        <pt x="513" y="265" on="1"/>
        <pt x="513" y="325" on="0"/>
        <pt x="468" y="435" on="0"/>
        <pt x="377" y="506" on="0"/>
      </contour>
    </TTGlyph>
    <TTGlyph name="aacute.ss01" xMin="85" yMin="-10" xMax="482" yMax="770">
      <contour>
        <pt x="310" y="618" on="1"/>
        <pt x="276" y="618" on="1"/>
        <pt x="361" y="770" on="1"/>
        <pt x="402" y="770" on="1"/>
      </contour>
      <contour>
        <pt x="439" y="103" on="1"/>
        <pt x="439" y="103" on="0"/>
        <pt x="419" y="69" on="0"/>
        <pt x="375" y="24" on="0"/>
        <pt x="306" y="-10" on="0"/>
        <pt x="256" y="-10" on="1"/>
        <pt x="212" y="-10" on="0"/>
        <pt x="133" y="23" on="0"/>
        <pt x="85" y="88" on="0"/>
        <pt x="85" y="136" on="1"/>
        <pt x="85" y="188" on="0"/>
        <pt x="137" y="249" on="0"/>
        <pt x="214" y="279" on="0"/>
        <pt x="253" y="283" on="1"/>
        <pt x="447" y="306" on="1"/>
        <pt x="447" y="340" on="1"/>
        <pt x="447" y="361" on="0"/>
        <pt x="436" y="418" on="0"/>
        <pt x="403" y="472" on="0"/>
        <pt x="341" y="507" on="0"/>
        <pt x="290" y="507" on="1"/>
        <pt x="246" y="507" on="0"/>
        <pt x="188" y="481" on="0"/>
        <pt x="153" y="443" on="0"/>
        <pt x="136" y="405" on="0"/>
        <pt x="131" y="379" on="0"/>
        <pt x="131" y="379" on="1"/>
        <pt x="96" y="379" on="1"/>
        <pt x="96" y="379" on="0"/>
        <pt x="103" y="412" on="0"/>
        <pt x="125" y="459" on="0"/>
        <pt x="167" y="507" on="0"/>
        <pt x="236" y="540" on="0"/>
        <pt x="288" y="540" on="1"/>
        <pt x="375" y="540" on="0"/>
        <pt x="482" y="435" on="0"/>
        <pt x="482" y="340" on="1"/>
        <pt x="482" y="0" on="1"/>
        <pt x="447" y="0" on="1"/>
        <pt x="447" y="103" on="1"/>
      </contour>
      <contour>
        <pt x="120" y="136" on="1"/>
        <pt x="120" y="97" on="0"/>
        <pt x="160" y="47" on="0"/>
        <pt x="223" y="23" on="0"/>
        <pt x="256" y="23" on="1"/>
        <pt x="316" y="23" on="0"/>
        <pt x="401" y="84" on="0"/>
        <pt x="447" y="184" on="0"/>
        <pt x="447" y="242" on="1"/>
        <pt x="447" y="273" on="1"/>
        <pt x="255" y="251" on="1"/>
        <pt x="194" y="244" on="0"/>
        <pt x="120" y="189" on="0"/>
      </contour>
    </TTGlyph>
    <TTGlyph name="abreve" xMin="70" yMin="-10" xMax="545" yMax="743">
      <contour>
        <pt x="309" y="613" on="1"/>
        <pt x="269" y="613" on="0"/>
        <pt x="219" y="639" on="0"/>
        <pt x="191" y="678" on="0"/>
        <pt x="178" y="717" on="0"/>
        <pt x="175" y="743" on="0"/>
        <pt x="175" y="743" on="1"/>
        <pt x="207" y="743" on="1"/>
        <pt x="207" y="743" on="0"/>
        <pt x="211" y="713" on="0"/>
        <pt x="229" y="673" on="0"/>
        <pt x="271" y="643" on="0"/>
        <pt x="309" y="643" on="1"/>
        <pt x="347" y="643" on="0"/>
        <pt x="389" y="673" on="0"/>
        <pt x="407" y="713" on="0"/>
        <pt x="411" y="743" on="0"/>
        <pt x="411" y="743" on="1"/>
        <pt x="443" y="743" on="1"/>
        <pt x="443" y="743" on="0"/>
        <pt x="440" y="717" on="0"/>
        <pt x="427" y="678" on="0"/>
        <pt x="399" y="639" on="0"/>
        <pt x="349" y="613" on="0"/>
      </contour>
      <contour>
        <pt x="308" y="540" on="1"/>
        <pt x="356" y="540" on="0"/>
        <pt x="425" y="511" on="0"/>
        <pt x="472" y="469" on="0"/>
        <pt x="501" y="427" on="0"/>
        <pt x="507" y="413" on="1"/>
        <pt x="511" y="413" on="1"/>
        <pt x="511" y="530" on="1"/>
        <pt x="545" y="530" on="1"/>
        <pt x="545" y="0" on="1"/>
        <pt x="511" y="0" on="1"/>
        <pt x="511" y="117" on="1"/>
        <pt x="507" y="117" on="1"/>
        <pt x="501" y="104" on="0"/>
        <pt x="472" y="61" on="0"/>
        <pt x="425" y="19" on="0"/>
        <pt x="356" y="-10" on="0"/>
        <pt x="308" y="-10" on="1"/>
        <pt x="248" y="-10" on="0"/>
        <pt x="159" y="36" on="0"/>
        <pt x="100" y="115" on="0"/>
        <pt x="70" y="213" on="0"/>
        <pt x="70" y="265" on="1"/>
        <pt x="70" y="316" on="0"/>
        <pt x="100" y="414" on="0"/>
        <pt x="159" y="493" on="0"/>
        <pt x="248" y="540" on="0"/>
      </contour>
      <contour>
        <pt x="309" y="506" on="1"/>
        <pt x="240" y="506" on="0"/>
        <pt x="149" y="435" on="0"/>
        <pt x="104" y="325" on="0"/>
        <pt x="104" y="265" on="1"/>
        <pt x="104" y="205" on="0"/>
        <pt x="149" y="95" on="0"/>
        <pt x="240" y="24" on="0"/>
        <pt x="309" y="24" on="1"/>
        <pt x="377" y="24" on="0"/>
        <pt x="468" y="95" on="0"/>
        <pt x="513" y="205" on="0"/>
        <pt x="513" y="265" on="1"/>
        <pt x="513" y="325" on="0"/>
        <pt x="468" y="435" on="0"/>
        <pt x="377" y="506" on="0"/>
      </contour>
    </TTGlyph>
    <TTGlyph name="abreve.ss01" xMin="85" yMin="-10" xMax="482" yMax="743">
      <contour>
        <pt x="288" y="613" on="1"/>
        <pt x="248" y="613" on="0"/>
        <pt x="198" y="639" on="0"/>
        <pt x="170" y="678" on="0"/>
        <pt x="157" y="717" on="0"/>
        <pt x="154" y="743" on="0"/>
        <pt x="154" y="743" on="1"/>
        <pt x="186" y="743" on="1"/>
        <pt x="186" y="743" on="0"/>
        <pt x="190" y="713" on="0"/>
        <pt x="208" y="673" on="0"/>
        <pt x="250" y="643" on="0"/>
        <pt x="288" y="643" on="1"/>
        <pt x="326" y="643" on="0"/>
        <pt x="368" y="673" on="0"/>
        <pt x="386" y="713" on="0"/>
        <pt x="390" y="743" on="0"/>
        <pt x="390" y="743" on="1"/>
        <pt x="422" y="743" on="1"/>
        <pt x="422" y="743" on="0"/>
        <pt x="419" y="717" on="0"/>
        <pt x="406" y="678" on="0"/>
        <pt x="378" y="639" on="0"/>
        <pt x="328" y="613" on="0"/>
      </contour>
      <contour>
        <pt x="439" y="103" on="1"/>
        <pt x="439" y="103" on="0"/>
        <pt x="419" y="69" on="0"/>
        <pt x="375" y="24" on="0"/>
        <pt x="306" y="-10" on="0"/>
        <pt x="256" y="-10" on="1"/>
        <pt x="212" y="-10" on="0"/>
        <pt x="133" y="23" on="0"/>
        <pt x="85" y="88" on="0"/>
        <pt x="85" y="136" on="1"/>
        <pt x="85" y="188" on="0"/>
        <pt x="137" y="249" on="0"/>
        <pt x="214" y="279" on="0"/>
        <pt x="253" y="283" on="1"/>
        <pt x="447" y="306" on="1"/>
        <pt x="447" y="340" on="1"/>
        <pt x="447" y="361" on="0"/>
        <pt x="436" y="418" on="0"/>
        <pt x="403" y="472" on="0"/>
        <pt x="341" y="507" on="0"/>
        <pt x="290" y="507" on="1"/>
        <pt x="246" y="507" on="0"/>
        <pt x="188" y="481" on="0"/>
        <pt x="153" y="443" on="0"/>
        <pt x="136" y="405" on="0"/>
        <pt x="131" y="379" on="0"/>
        <pt x="131" y="379" on="1"/>
        <pt x="96" y="379" on="1"/>
        <pt x="96" y="379" on="0"/>
        <pt x="103" y="412" on="0"/>
        <pt x="125" y="459" on="0"/>
        <pt x="167" y="507" on="0"/>
        <pt x="236" y="540" on="0"/>
        <pt x="288" y="540" on="1"/>
        <pt x="375" y="540" on="0"/>
        <pt x="482" y="435" on="0"/>
        <pt x="482" y="340" on="1"/>
        <pt x="482" y="0" on="1"/>
        <pt x="447" y="0" on="1"/>
        <pt x="447" y="103" on="1"/>
      </contour>
      <contour>
        <pt x="120" y="136" on="1"/>
        <pt x="120" y="97" on="0"/>
        <pt x="160" y="47" on="0"/>
        <pt x="223" y="23" on="0"/>
        <pt x="256" y="23" on="1"/>
        <pt x="316" y="23" on="0"/>
        <pt x="401" y="84" on="0"/>
        <pt x="447" y="184" on="0"/>
        <pt x="447" y="242" on="1"/>
        <pt x="447" y="273" on="1"/>
        <pt x="255" y="251" on="1"/>
        <pt x="194" y="244" on="0"/>
        <pt x="120" y="189" on="0"/>
      </contour>
    </TTGlyph>
    <TTGlyph name="acircumflex" xMin="70" yMin="-10" xMax="545" yMax="760">
      <contour>
        <pt x="180" y="608" on="1"/>
        <pt x="291" y="760" on="1"/>
        <pt x="328" y="760" on="1"/>
        <pt x="439" y="608" on="1"/>
        <pt x="402" y="608" on="1"/>
        <pt x="310" y="732" on="1"/>
        <pt x="217" y="608" on="1"/>
      </contour>
      <contour>
        <pt x="308" y="540" on="1"/>
        <pt x="356" y="540" on="0"/>
        <pt x="425" y="511" on="0"/>
        <pt x="472" y="469" on="0"/>
        <pt x="501" y="427" on="0"/>
        <pt x="507" y="413" on="1"/>
        <pt x="511" y="413" on="1"/>
        <pt x="511" y="530" on="1"/>
        <pt x="545" y="530" on="1"/>
        <pt x="545" y="0" on="1"/>
        <pt x="511" y="0" on="1"/>
        <pt x="511" y="117" on="1"/>
        <pt x="507" y="117" on="1"/>
        <pt x="501" y="104" on="0"/>
        <pt x="472" y="61" on="0"/>
        <pt x="425" y="19" on="0"/>
        <pt x="356" y="-10" on="0"/>
        <pt x="308" y="-10" on="1"/>
        <pt x="248" y="-10" on="0"/>
        <pt x="159" y="36" on="0"/>
        <pt x="100" y="115" on="0"/>
        <pt x="70" y="213" on="0"/>
        <pt x="70" y="265" on="1"/>
        <pt x="70" y="316" on="0"/>
        <pt x="100" y="414" on="0"/>
        <pt x="159" y="493" on="0"/>
        <pt x="248" y="540" on="0"/>
      </contour>
      <contour>
        <pt x="309" y="506" on="1"/>
        <pt x="240" y="506" on="0"/>
        <pt x="149" y="435" on="0"/>
        <pt x="104" y="325" on="0"/>
        <pt x="104" y="265" on="1"/>
        <pt x="104" y="205" on="0"/>
        <pt x="149" y="95" on="0"/>
        <pt x="240" y="24" on="0"/>
        <pt x="309" y="24" on="1"/>
        <pt x="377" y="24" on="0"/>
        <pt x="468" y="95" on="0"/>
        <pt x="513" y="205" on="0"/>
        <pt x="513" y="265" on="1"/>
        <pt x="513" y="325" on="0"/>
        <pt x="468" y="435" on="0"/>
        <pt x="377" y="506" on="0"/>
      </contour>
    </TTGlyph>
    <TTGlyph name="acircumflex.ss01" xMin="85" yMin="-10" xMax="482" yMax="760">
      <contour>
        <pt x="159" y="608" on="1"/>
        <pt x="270" y="760" on="1"/>
        <pt x="307" y="760" on="1"/>
        <pt x="418" y="608" on="1"/>
        <pt x="381" y="608" on="1"/>
        <pt x="289" y="732" on="1"/>
        <pt x="196" y="608" on="1"/>
      </contour>
      <contour>
        <pt x="439" y="103" on="1"/>
        <pt x="439" y="103" on="0"/>
        <pt x="419" y="69" on="0"/>
        <pt x="375" y="24" on="0"/>
        <pt x="306" y="-10" on="0"/>
        <pt x="256" y="-10" on="1"/>
        <pt x="212" y="-10" on="0"/>
        <pt x="133" y="23" on="0"/>
        <pt x="85" y="88" on="0"/>
        <pt x="85" y="136" on="1"/>
        <pt x="85" y="188" on="0"/>
        <pt x="137" y="249" on="0"/>
        <pt x="214" y="279" on="0"/>
        <pt x="253" y="283" on="1"/>
        <pt x="447" y="306" on="1"/>
        <pt x="447" y="340" on="1"/>
        <pt x="447" y="361" on="0"/>
        <pt x="436" y="418" on="0"/>
        <pt x="403" y="472" on="0"/>
        <pt x="341" y="507" on="0"/>
        <pt x="290" y="507" on="1"/>
        <pt x="246" y="507" on="0"/>
        <pt x="188" y="481" on="0"/>
        <pt x="153" y="443" on="0"/>
        <pt x="136" y="405" on="0"/>
        <pt x="131" y="379" on="0"/>
        <pt x="131" y="379" on="1"/>
        <pt x="96" y="379" on="1"/>
        <pt x="96" y="379" on="0"/>
        <pt x="103" y="412" on="0"/>
        <pt x="125" y="459" on="0"/>
        <pt x="167" y="507" on="0"/>
        <pt x="236" y="540" on="0"/>
        <pt x="288" y="540" on="1"/>
        <pt x="375" y="540" on="0"/>
        <pt x="482" y="435" on="0"/>
        <pt x="482" y="340" on="1"/>
        <pt x="482" y="0" on="1"/>
        <pt x="447" y="0" on="1"/>
        <pt x="447" y="103" on="1"/>
      </contour>
      <contour>
        <pt x="120" y="136" on="1"/>
        <pt x="120" y="97" on="0"/>
        <pt x="160" y="47" on="0"/>
        <pt x="223" y="23" on="0"/>
        <pt x="256" y="23" on="1"/>
        <pt x="316" y="23" on="0"/>
        <pt x="401" y="84" on="0"/>
        <pt x="447" y="184" on="0"/>
        <pt x="447" y="242" on="1"/>
        <pt x="447" y="273" on="1"/>
        <pt x="255" y="251" on="1"/>
        <pt x="194" y="244" on="0"/>
        <pt x="120" y="189" on="0"/>
      </contour>
    </TTGlyph>
    <TTGlyph name="acute" xMin="14" yMin="618" xMax="140" yMax="770">
      <contour>
        <pt x="48" y="618" on="1"/>
        <pt x="14" y="618" on="1"/>
        <pt x="99" y="770" on="1"/>
        <pt x="140" y="770" on="1"/>
      </contour>
    </TTGlyph>
    <TTGlyph name="acutecomb" xMin="44" yMin="618" xMax="170" yMax="770">
      <contour>
        <pt x="78" y="618" on="1"/>
        <pt x="44" y="618" on="1"/>
        <pt x="129" y="770" on="1"/>
        <pt x="170" y="770" on="1"/>
      </contour>
    </TTGlyph>
    <TTGlyph name="adieresis" xMin="70" yMin="-10" xMax="545" yMax="702">
      <contour>
        <pt x="378" y="630" on="1"/>
        <pt x="363" y="630" on="0"/>
        <pt x="343" y="651" on="0"/>
        <pt x="343" y="666" on="1"/>
        <pt x="343" y="680" on="0"/>
        <pt x="363" y="702" on="0"/>
        <pt x="378" y="702" on="1"/>
        <pt x="393" y="702" on="0"/>
        <pt x="414" y="680" on="0"/>
        <pt x="414" y="666" on="1"/>
        <pt x="414" y="651" on="0"/>
        <pt x="393" y="630" on="0"/>
      </contour>
      <contour>
        <pt x="239" y="630" on="1"/>
        <pt x="224" y="630" on="0"/>
        <pt x="204" y="651" on="0"/>
        <pt x="204" y="666" on="1"/>
        <pt x="204" y="680" on="0"/>
        <pt x="224" y="702" on="0"/>
        <pt x="239" y="702" on="1"/>
        <pt x="254" y="702" on="0"/>
        <pt x="275" y="680" on="0"/>
        <pt x="275" y="666" on="1"/>
        <pt x="275" y="651" on="0"/>
        <pt x="254" y="630" on="0"/>
      </contour>
      <contour>
        <pt x="308" y="540" on="1"/>
        <pt x="356" y="540" on="0"/>
        <pt x="425" y="511" on="0"/>
        <pt x="472" y="469" on="0"/>
        <pt x="501" y="427" on="0"/>
        <pt x="507" y="413" on="1"/>
        <pt x="511" y="413" on="1"/>
        <pt x="511" y="530" on="1"/>
        <pt x="545" y="530" on="1"/>
        <pt x="545" y="0" on="1"/>
        <pt x="511" y="0" on="1"/>
        <pt x="511" y="117" on="1"/>
        <pt x="507" y="117" on="1"/>
        <pt x="501" y="104" on="0"/>
        <pt x="472" y="61" on="0"/>
        <pt x="425" y="19" on="0"/>
        <pt x="356" y="-10" on="0"/>
        <pt x="308" y="-10" on="1"/>
        <pt x="248" y="-10" on="0"/>
        <pt x="159" y="36" on="0"/>
        <pt x="100" y="115" on="0"/>
        <pt x="70" y="213" on="0"/>
        <pt x="70" y="265" on="1"/>
        <pt x="70" y="316" on="0"/>
        <pt x="100" y="414" on="0"/>
        <pt x="159" y="493" on="0"/>
        <pt x="248" y="540" on="0"/>
      </contour>
      <contour>
        <pt x="309" y="506" on="1"/>
        <pt x="240" y="506" on="0"/>
        <pt x="149" y="435" on="0"/>
        <pt x="104" y="325" on="0"/>
        <pt x="104" y="265" on="1"/>
        <pt x="104" y="205" on="0"/>
        <pt x="149" y="95" on="0"/>
        <pt x="240" y="24" on="0"/>
        <pt x="309" y="24" on="1"/>
        <pt x="377" y="24" on="0"/>
        <pt x="468" y="95" on="0"/>
        <pt x="513" y="205" on="0"/>
        <pt x="513" y="265" on="1"/>
        <pt x="513" y="325" on="0"/>
        <pt x="468" y="435" on="0"/>
        <pt x="377" y="506" on="0"/>
      </contour>
    </TTGlyph>
    <TTGlyph name="adieresis.ss01" xMin="85" yMin="-10" xMax="482" yMax="702">
      <contour>
        <pt x="357" y="630" on="1"/>
        <pt x="342" y="630" on="0"/>
        <pt x="322" y="651" on="0"/>
        <pt x="322" y="666" on="1"/>
        <pt x="322" y="681" on="0"/>
        <pt x="342" y="702" on="0"/>
        <pt x="357" y="702" on="1"/>
        <pt x="372" y="702" on="0"/>
        <pt x="393" y="681" on="0"/>
        <pt x="393" y="666" on="1"/>
        <pt x="393" y="651" on="0"/>
        <pt x="372" y="630" on="0"/>
      </contour>
      <contour>
        <pt x="218" y="630" on="1"/>
        <pt x="203" y="630" on="0"/>
        <pt x="183" y="651" on="0"/>
        <pt x="183" y="666" on="1"/>
        <pt x="183" y="681" on="0"/>
        <pt x="203" y="702" on="0"/>
        <pt x="218" y="702" on="1"/>
        <pt x="233" y="702" on="0"/>
        <pt x="254" y="681" on="0"/>
        <pt x="254" y="666" on="1"/>
        <pt x="254" y="651" on="0"/>
        <pt x="233" y="630" on="0"/>
      </contour>
      <contour>
        <pt x="439" y="103" on="1"/>
        <pt x="439" y="103" on="0"/>
        <pt x="419" y="69" on="0"/>
        <pt x="375" y="24" on="0"/>
        <pt x="306" y="-10" on="0"/>
        <pt x="256" y="-10" on="1"/>
        <pt x="212" y="-10" on="0"/>
        <pt x="133" y="23" on="0"/>
        <pt x="85" y="88" on="0"/>
        <pt x="85" y="136" on="1"/>
        <pt x="85" y="188" on="0"/>
        <pt x="137" y="249" on="0"/>
        <pt x="214" y="279" on="0"/>
        <pt x="253" y="283" on="1"/>
        <pt x="447" y="306" on="1"/>
        <pt x="447" y="340" on="1"/>
        <pt x="447" y="361" on="0"/>
        <pt x="436" y="418" on="0"/>
        <pt x="403" y="472" on="0"/>
        <pt x="341" y="507" on="0"/>
        <pt x="290" y="507" on="1"/>
        <pt x="246" y="507" on="0"/>
        <pt x="188" y="481" on="0"/>
        <pt x="153" y="443" on="0"/>
        <pt x="136" y="405" on="0"/>
        <pt x="131" y="379" on="0"/>
        <pt x="131" y="379" on="1"/>
        <pt x="96" y="379" on="1"/>
        <pt x="96" y="379" on="0"/>
        <pt x="103" y="412" on="0"/>
        <pt x="125" y="459" on="0"/>
        <pt x="167" y="507" on="0"/>
        <pt x="236" y="540" on="0"/>
        <pt x="288" y="540" on="1"/>
        <pt x="375" y="540" on="0"/>
        <pt x="482" y="435" on="0"/>
        <pt x="482" y="340" on="1"/>
        <pt x="482" y="0" on="1"/>
        <pt x="447" y="0" on="1"/>
        <pt x="447" y="103" on="1"/>
      </contour>
      <contour>
        <pt x="120" y="136" on="1"/>
        <pt x="120" y="97" on="0"/>
        <pt x="160" y="47" on="0"/>
        <pt x="223" y="23" on="0"/>
        <pt x="256" y="23" on="1"/>
        <pt x="316" y="23" on="0"/>
        <pt x="401" y="84" on="0"/>
        <pt x="447" y="184" on="0"/>
        <pt x="447" y="242" on="1"/>
        <pt x="447" y="273" on="1"/>
        <pt x="255" y="251" on="1"/>
        <pt x="194" y="244" on="0"/>
        <pt x="120" y="189" on="0"/>
      </contour>
    </TTGlyph>
    <TTGlyph name="ae" xMin="60" yMin="-10" xMax="893" yMax="540">
      <contour>
        <pt x="234" y="-10" on="1"/>
        <pt x="187" y="-10" on="0"/>
        <pt x="108" y="23" on="0"/>
        <pt x="60" y="89" on="0"/>
        <pt x="60" y="138" on="1"/>
        <pt x="60" y="189" on="0"/>
        <pt x="112" y="255" on="0"/>
        <pt x="199" y="287" on="0"/>
        <pt x="249" y="287" on="1"/>
        <pt x="428" y="287" on="1"/>
        <pt x="428" y="340" on="1"/>
        <pt x="428" y="361" on="0"/>
        <pt x="417" y="418" on="0"/>
        <pt x="384" y="472" on="0"/>
        <pt x="321" y="507" on="0"/>
        <pt x="269" y="507" on="1"/>
        <pt x="224" y="507" on="0"/>
        <pt x="165" y="481" on="0"/>
        <pt x="129" y="443" on="0"/>
        <pt x="111" y="405" on="0"/>
        <pt x="106" y="379" on="0"/>
        <pt x="106" y="379" on="1"/>
        <pt x="71" y="379" on="1"/>
        <pt x="71" y="379" on="0"/>
        <pt x="78" y="412" on="0"/>
        <pt x="100" y="459" on="0"/>
        <pt x="143" y="507" on="0"/>
        <pt x="214" y="540" on="0"/>
        <pt x="267" y="540" on="1"/>
        <pt x="340" y="540" on="0"/>
        <pt x="439" y="470" on="0"/>
        <pt x="455" y="402" on="1"/>
        <pt x="458" y="402" on="1"/>
        <pt x="485" y="462" on="0"/>
        <pt x="589" y="540" on="0"/>
        <pt x="668" y="540" on="1"/>
        <pt x="734" y="540" on="0"/>
        <pt x="835" y="478" on="0"/>
        <pt x="893" y="355" on="0"/>
        <pt x="893" y="263" on="1"/>
        <pt x="893" y="253" on="1"/>
        <pt x="465" y="253" on="1"/>
        <pt x="467" y="191" on="0"/>
        <pt x="517" y="87" on="0"/>
        <pt x="609" y="24" on="0"/>
        <pt x="672" y="24" on="1"/>
        <pt x="725" y="24" on="0"/>
        <pt x="793" y="62" on="0"/>
        <pt x="833" y="112" on="0"/>
        <pt x="849" y="150" on="0"/>
        <pt x="849" y="150" on="1"/>
        <pt x="885" y="150" on="1"/>
        <pt x="885" y="150" on="0"/>
        <pt x="874" y="118" on="0"/>
        <pt x="847" y="70" on="0"/>
        <pt x="798" y="22" on="0"/>
        <pt x="723" y="-10" on="0"/>
        <pt x="670" y="-10" on="1"/>
        <pt x="582" y="-10" on="0"/>
        <pt x="473" y="82" on="0"/>
        <pt x="448" y="148" on="1"/>
        <pt x="444" y="148" on="1"/>
        <pt x="444" y="148" on="0"/>
        <pt x="431" y="116" on="0"/>
        <pt x="403" y="69" on="0"/>
        <pt x="354" y="22" on="0"/>
        <pt x="283" y="-10" on="0"/>
      </contour>
      <contour>
        <pt x="466" y="286" on="1"/>
        <pt x="856" y="286" on="1"/>
        <pt x="852" y="370" on="0"/>
        <pt x="799" y="465" on="0"/>
        <pt x="718" y="505" on="0"/>
        <pt x="670" y="505" on="1"/>
        <pt x="578" y="505" on="0"/>
        <pt x="471" y="384" on="0"/>
      </contour>
      <contour>
        <pt x="236" y="23" on="1"/>
        <pt x="297" y="23" on="0"/>
        <pt x="382" y="84" on="0"/>
        <pt x="428" y="184" on="0"/>
        <pt x="428" y="242" on="1"/>
        <pt x="428" y="254" on="1"/>
        <pt x="249" y="254" on="1"/>
        <pt x="171" y="254" on="0"/>
        <pt x="95" y="192" on="0"/>
        <pt x="95" y="139" on="1"/>
        <pt x="95" y="99" on="0"/>
        <pt x="135" y="47" on="0"/>
        <pt x="199" y="23" on="0"/>
      </contour>
    </TTGlyph>
    <TTGlyph name="agrave" xMin="70" yMin="-10" xMax="545" yMax="770">
      <contour>
        <pt x="289" y="618" on="1"/>
        <pt x="197" y="770" on="1"/>
        <pt x="238" y="770" on="1"/>
        <pt x="323" y="618" on="1"/>
      </contour>
      <contour>
        <pt x="308" y="540" on="1"/>
        <pt x="356" y="540" on="0"/>
        <pt x="425" y="511" on="0"/>
        <pt x="472" y="469" on="0"/>
        <pt x="501" y="427" on="0"/>
        <pt x="507" y="413" on="1"/>
        <pt x="511" y="413" on="1"/>
        <pt x="511" y="530" on="1"/>
        <pt x="545" y="530" on="1"/>
        <pt x="545" y="0" on="1"/>
        <pt x="511" y="0" on="1"/>
        <pt x="511" y="117" on="1"/>
        <pt x="507" y="117" on="1"/>
        <pt x="501" y="104" on="0"/>
        <pt x="472" y="61" on="0"/>
        <pt x="425" y="19" on="0"/>
        <pt x="356" y="-10" on="0"/>
        <pt x="308" y="-10" on="1"/>
        <pt x="248" y="-10" on="0"/>
        <pt x="159" y="36" on="0"/>
        <pt x="100" y="115" on="0"/>
        <pt x="70" y="213" on="0"/>
        <pt x="70" y="265" on="1"/>
        <pt x="70" y="316" on="0"/>
        <pt x="100" y="414" on="0"/>
        <pt x="159" y="493" on="0"/>
        <pt x="248" y="540" on="0"/>
      </contour>
      <contour>
        <pt x="309" y="506" on="1"/>
        <pt x="240" y="506" on="0"/>
        <pt x="149" y="435" on="0"/>
        <pt x="104" y="325" on="0"/>
        <pt x="104" y="265" on="1"/>
        <pt x="104" y="205" on="0"/>
        <pt x="149" y="95" on="0"/>
        <pt x="240" y="24" on="0"/>
        <pt x="309" y="24" on="1"/>
        <pt x="377" y="24" on="0"/>
        <pt x="468" y="95" on="0"/>
        <pt x="513" y="205" on="0"/>
        <pt x="513" y="265" on="1"/>
        <pt x="513" y="325" on="0"/>
        <pt x="468" y="435" on="0"/>
        <pt x="377" y="506" on="0"/>
      </contour>
    </TTGlyph>
    <TTGlyph name="agrave.ss01" xMin="85" yMin="-10" xMax="482" yMax="770">
      <contour>
        <pt x="268" y="618" on="1"/>
        <pt x="176" y="770" on="1"/>
        <pt x="217" y="770" on="1"/>
        <pt x="302" y="618" on="1"/>
      </contour>
      <contour>
        <pt x="439" y="103" on="1"/>
        <pt x="439" y="103" on="0"/>
        <pt x="419" y="69" on="0"/>
        <pt x="375" y="24" on="0"/>
        <pt x="306" y="-10" on="0"/>
        <pt x="256" y="-10" on="1"/>
        <pt x="212" y="-10" on="0"/>
        <pt x="133" y="23" on="0"/>
        <pt x="85" y="88" on="0"/>
        <pt x="85" y="136" on="1"/>
        <pt x="85" y="188" on="0"/>
        <pt x="137" y="249" on="0"/>
        <pt x="214" y="279" on="0"/>
        <pt x="253" y="283" on="1"/>
        <pt x="447" y="306" on="1"/>
        <pt x="447" y="340" on="1"/>
        <pt x="447" y="361" on="0"/>
        <pt x="436" y="418" on="0"/>
        <pt x="403" y="472" on="0"/>
        <pt x="341" y="507" on="0"/>
        <pt x="290" y="507" on="1"/>
        <pt x="246" y="507" on="0"/>
        <pt x="188" y="481" on="0"/>
        <pt x="153" y="443" on="0"/>
        <pt x="136" y="405" on="0"/>
        <pt x="131" y="379" on="0"/>
        <pt x="131" y="379" on="1"/>
        <pt x="96" y="379" on="1"/>
        <pt x="96" y="379" on="0"/>
        <pt x="103" y="412" on="0"/>
        <pt x="125" y="459" on="0"/>
        <pt x="167" y="507" on="0"/>
        <pt x="236" y="540" on="0"/>
        <pt x="288" y="540" on="1"/>
        <pt x="375" y="540" on="0"/>
        <pt x="482" y="435" on="0"/>
        <pt x="482" y="340" on="1"/>
        <pt x="482" y="0" on="1"/>
        <pt x="447" y="0" on="1"/>
        <pt x="447" y="103" on="1"/>
      </contour>
      <contour>
        <pt x="120" y="136" on="1"/>
        <pt x="120" y="97" on="0"/>
        <pt x="160" y="47" on="0"/>
        <pt x="223" y="23" on="0"/>
        <pt x="256" y="23" on="1"/>
        <pt x="316" y="23" on="0"/>
        <pt x="401" y="84" on="0"/>
        <pt x="447" y="184" on="0"/>
        <pt x="447" y="242" on="1"/>
        <pt x="447" y="273" on="1"/>
        <pt x="255" y="251" on="1"/>
        <pt x="194" y="244" on="0"/>
        <pt x="120" y="189" on="0"/>
      </contour>
    </TTGlyph>
    <TTGlyph name="amacron" xMin="70" yMin="-10" xMax="545" yMax="668">
      <contour>
        <pt x="169" y="638" on="1"/>
        <pt x="169" y="668" on="1"/>
        <pt x="449" y="668" on="1"/>
        <pt x="449" y="638" on="1"/>
      </contour>
      <contour>
        <pt x="308" y="540" on="1"/>
        <pt x="356" y="540" on="0"/>
        <pt x="425" y="511" on="0"/>
        <pt x="472" y="469" on="0"/>
        <pt x="501" y="427" on="0"/>
        <pt x="507" y="413" on="1"/>
        <pt x="511" y="413" on="1"/>
        <pt x="511" y="530" on="1"/>
        <pt x="545" y="530" on="1"/>
        <pt x="545" y="0" on="1"/>
        <pt x="511" y="0" on="1"/>
        <pt x="511" y="117" on="1"/>
        <pt x="507" y="117" on="1"/>
        <pt x="501" y="104" on="0"/>
        <pt x="472" y="61" on="0"/>
        <pt x="425" y="19" on="0"/>
        <pt x="356" y="-10" on="0"/>
        <pt x="308" y="-10" on="1"/>
        <pt x="248" y="-10" on="0"/>
        <pt x="159" y="36" on="0"/>
        <pt x="100" y="115" on="0"/>
        <pt x="70" y="213" on="0"/>
        <pt x="70" y="265" on="1"/>
        <pt x="70" y="316" on="0"/>
        <pt x="100" y="414" on="0"/>
        <pt x="159" y="493" on="0"/>
        <pt x="248" y="540" on="0"/>
      </contour>
      <contour>
        <pt x="309" y="506" on="1"/>
        <pt x="240" y="506" on="0"/>
        <pt x="149" y="435" on="0"/>
        <pt x="104" y="325" on="0"/>
        <pt x="104" y="265" on="1"/>
        <pt x="104" y="205" on="0"/>
        <pt x="149" y="95" on="0"/>
        <pt x="240" y="24" on="0"/>
        <pt x="309" y="24" on="1"/>
        <pt x="377" y="24" on="0"/>
        <pt x="468" y="95" on="0"/>
        <pt x="513" y="205" on="0"/>
        <pt x="513" y="265" on="1"/>
        <pt x="513" y="325" on="0"/>
        <pt x="468" y="435" on="0"/>
        <pt x="377" y="506" on="0"/>
      </contour>
    </TTGlyph>
    <TTGlyph name="amacron.ss01" xMin="85" yMin="-10" xMax="482" yMax="668">
      <contour>
        <pt x="148" y="638" on="1"/>
        <pt x="148" y="668" on="1"/>
        <pt x="428" y="668" on="1"/>
        <pt x="428" y="638" on="1"/>
      </contour>
      <contour>
        <pt x="439" y="103" on="1"/>
        <pt x="439" y="103" on="0"/>
        <pt x="419" y="69" on="0"/>
        <pt x="375" y="24" on="0"/>
        <pt x="306" y="-10" on="0"/>
        <pt x="256" y="-10" on="1"/>
        <pt x="212" y="-10" on="0"/>
        <pt x="133" y="23" on="0"/>
        <pt x="85" y="88" on="0"/>
        <pt x="85" y="136" on="1"/>
        <pt x="85" y="188" on="0"/>
        <pt x="137" y="249" on="0"/>
        <pt x="214" y="279" on="0"/>
        <pt x="253" y="283" on="1"/>
        <pt x="447" y="306" on="1"/>
        <pt x="447" y="340" on="1"/>
        <pt x="447" y="361" on="0"/>
        <pt x="436" y="418" on="0"/>
        <pt x="403" y="472" on="0"/>
        <pt x="341" y="507" on="0"/>
        <pt x="290" y="507" on="1"/>
        <pt x="246" y="507" on="0"/>
        <pt x="188" y="481" on="0"/>
        <pt x="153" y="443" on="0"/>
        <pt x="136" y="405" on="0"/>
        <pt x="131" y="379" on="0"/>
        <pt x="131" y="379" on="1"/>
        <pt x="96" y="379" on="1"/>
        <pt x="96" y="379" on="0"/>
        <pt x="103" y="412" on="0"/>
        <pt x="125" y="459" on="0"/>
        <pt x="167" y="507" on="0"/>
        <pt x="236" y="540" on="0"/>
        <pt x="288" y="540" on="1"/>
        <pt x="375" y="540" on="0"/>
        <pt x="482" y="435" on="0"/>
        <pt x="482" y="340" on="1"/>
        <pt x="482" y="0" on="1"/>
        <pt x="447" y="0" on="1"/>
        <pt x="447" y="103" on="1"/>
      </contour>
      <contour>
        <pt x="120" y="136" on="1"/>
        <pt x="120" y="97" on="0"/>
        <pt x="160" y="47" on="0"/>
        <pt x="223" y="23" on="0"/>
        <pt x="256" y="23" on="1"/>
        <pt x="316" y="23" on="0"/>
        <pt x="401" y="84" on="0"/>
        <pt x="447" y="184" on="0"/>
        <pt x="447" y="242" on="1"/>
        <pt x="447" y="273" on="1"/>
        <pt x="255" y="251" on="1"/>
        <pt x="194" y="244" on="0"/>
        <pt x="120" y="189" on="0"/>
      </contour>
    </TTGlyph>
    <TTGlyph name="ampersand" xMin="55" yMin="-10" xMax="639" yMax="750">
      <contour>
        <pt x="290" y="-10" on="1"/>
        <pt x="224" y="-10" on="0"/>
        <pt x="118" y="43" on="0"/>
        <pt x="55" y="138" on="0"/>
        <pt x="55" y="200" on="1"/>
        <pt x="55" y="255" on="0"/>
        <pt x="103" y="337" on="0"/>
        <pt x="179" y="397" on="0"/>
        <pt x="222" y="418" on="1"/>
        <pt x="209" y="432" on="0"/>
        <pt x="168" y="482" on="0"/>
        <pt x="136" y="550" on="0"/>
        <pt x="136" y="591" on="1"/>
        <pt x="136" y="643" on="0"/>
        <pt x="182" y="713" on="0"/>
        <pt x="257" y="750" on="0"/>
        <pt x="300" y="750" on="1"/>
        <pt x="337" y="750" on="0"/>
        <pt x="405" y="717" on="0"/>
        <pt x="449" y="652" on="0"/>
        <pt x="449" y="605" on="1"/>
        <pt x="449" y="544" on="0"/>
        <pt x="373" y="456" on="0"/>
        <pt x="290" y="415" on="1"/>
        <pt x="276" y="408" on="1"/>
        <pt x="510" y="145" on="1"/>
        <pt x="544" y="195" on="0"/>
        <pt x="582" y="338" on="0"/>
        <pt x="582" y="432" on="1"/>
        <pt x="616" y="432" on="1"/>
        <pt x="616" y="328" on="0"/>
        <pt x="571" y="173" on="0"/>
        <pt x="533" y="119" on="1"/>
        <pt x="639" y="0" on="1"/>
        <pt x="592" y="0" on="1"/>
        <pt x="511" y="91" on="1"/>
        <pt x="466" y="39" on="0"/>
        <pt x="350" y="-10" on="0"/>
      </contour>
      <contour>
        <pt x="169" y="590" on="1"/>
        <pt x="169" y="552" on="0"/>
        <pt x="202" y="491" on="0"/>
        <pt x="242" y="446" on="0"/>
        <pt x="254" y="433" on="1"/>
        <pt x="274" y="442" on="1"/>
        <pt x="346" y="475" on="0"/>
        <pt x="415" y="549" on="0"/>
        <pt x="415" y="602" on="1"/>
        <pt x="415" y="641" on="0"/>
        <pt x="381" y="692" on="0"/>
        <pt x="328" y="718" on="0"/>
        <pt x="299" y="718" on="1"/>
        <pt x="247" y="718" on="0"/>
        <pt x="169" y="653" on="0"/>
      </contour>
      <contour>
        <pt x="90" y="201" on="1"/>
        <pt x="90" y="146" on="0"/>
        <pt x="146" y="67" on="0"/>
        <pt x="238" y="25" on="0"/>
        <pt x="292" y="25" on="1"/>
        <pt x="348" y="25" on="0"/>
        <pt x="450" y="70" on="0"/>
        <pt x="489" y="116" on="1"/>
        <pt x="244" y="393" on="1"/>
        <pt x="221" y="381" on="0"/>
        <pt x="168" y="350" on="0"/>
        <pt x="120" y="305" on="0"/>
        <pt x="90" y="243" on="0"/>
      </contour>
    </TTGlyph>
    <TTGlyph name="aogonek" xMin="70" yMin="-149" xMax="589" yMax="540">
      <contour>
        <pt x="545" y="-149" on="1"/>
        <pt x="504" y="-149" on="0"/>
        <pt x="456" y="-108" on="0"/>
        <pt x="456" y="-75" on="1"/>
        <pt x="456" y="-42" on="0"/>
        <pt x="496" y="-3" on="0"/>
        <pt x="511" y="5" on="1"/>
        <pt x="511" y="117" on="1"/>
        <pt x="507" y="117" on="1"/>
        <pt x="501" y="104" on="0"/>
        <pt x="472" y="61" on="0"/>
        <pt x="425" y="19" on="0"/>
        <pt x="356" y="-10" on="0"/>
        <pt x="308" y="-10" on="1"/>
        <pt x="248" y="-10" on="0"/>
        <pt x="159" y="36" on="0"/>
        <pt x="100" y="115" on="0"/>
        <pt x="70" y="213" on="0"/>
        <pt x="70" y="265" on="1"/>
        <pt x="70" y="316" on="0"/>
        <pt x="100" y="414" on="0"/>
        <pt x="159" y="493" on="0"/>
        <pt x="248" y="540" on="0"/>
        <pt x="308" y="540" on="1"/>
        <pt x="356" y="540" on="0"/>
        <pt x="425" y="511" on="0"/>
        <pt x="472" y="469" on="0"/>
        <pt x="501" y="427" on="0"/>
        <pt x="507" y="413" on="1"/>
        <pt x="511" y="413" on="1"/>
        <pt x="511" y="530" on="1"/>
        <pt x="545" y="530" on="1"/>
        <pt x="545" y="0" on="1"/>
        <pt x="545" y="0" on="0"/>
        <pt x="516" y="-15" on="0"/>
        <pt x="487" y="-47" on="0"/>
        <pt x="487" y="-71" on="1"/>
        <pt x="487" y="-93" on="0"/>
        <pt x="518" y="-120" on="0"/>
        <pt x="549" y="-120" on="1"/>
        <pt x="564" y="-120" on="0"/>
        <pt x="589" y="-115" on="0"/>
        <pt x="589" y="-115" on="1"/>
        <pt x="589" y="-143" on="1"/>
        <pt x="589" y="-143" on="0"/>
        <pt x="563" y="-149" on="0"/>
      </contour>
      <contour>
        <pt x="309" y="506" on="1"/>
        <pt x="240" y="506" on="0"/>
        <pt x="149" y="435" on="0"/>
        <pt x="104" y="325" on="0"/>
        <pt x="104" y="265" on="1"/>
        <pt x="104" y="205" on="0"/>
        <pt x="149" y="95" on="0"/>
        <pt x="240" y="24" on="0"/>
        <pt x="309" y="24" on="1"/>
        <pt x="377" y="24" on="0"/>
        <pt x="468" y="95" on="0"/>
        <pt x="513" y="205" on="0"/>
        <pt x="513" y="265" on="1"/>
        <pt x="513" y="325" on="0"/>
        <pt x="468" y="435" on="0"/>
        <pt x="377" y="506" on="0"/>
      </contour>
    </TTGlyph>
    <TTGlyph name="aogonek.ss01" xMin="85" yMin="-149" xMax="526" yMax="540">
      <contour>
        <pt x="482" y="-149" on="1"/>
        <pt x="441" y="-149" on="0"/>
        <pt x="393" y="-108" on="0"/>
        <pt x="393" y="-75" on="1"/>
        <pt x="393" y="-43" on="0"/>
        <pt x="432" y="-4" on="0"/>
        <pt x="447" y="5" on="1"/>
        <pt x="447" y="103" on="1"/>
        <pt x="439" y="103" on="1"/>
        <pt x="439" y="103" on="0"/>
        <pt x="419" y="69" on="0"/>
        <pt x="375" y="24" on="0"/>
        <pt x="306" y="-10" on="0"/>
        <pt x="256" y="-10" on="1"/>
        <pt x="212" y="-10" on="0"/>
        <pt x="133" y="23" on="0"/>
        <pt x="85" y="88" on="0"/>
        <pt x="85" y="136" on="1"/>
        <pt x="85" y="188" on="0"/>
        <pt x="137" y="249" on="0"/>
        <pt x="214" y="279" on="0"/>
        <pt x="253" y="283" on="1"/>
        <pt x="447" y="306" on="1"/>
        <pt x="447" y="340" on="1"/>
        <pt x="447" y="361" on="0"/>
        <pt x="436" y="418" on="0"/>
        <pt x="403" y="472" on="0"/>
        <pt x="341" y="507" on="0"/>
        <pt x="290" y="507" on="1"/>
        <pt x="246" y="507" on="0"/>
        <pt x="188" y="481" on="0"/>
        <pt x="153" y="443" on="0"/>
        <pt x="136" y="405" on="0"/>
        <pt x="131" y="379" on="0"/>
        <pt x="131" y="379" on="1"/>
        <pt x="96" y="379" on="1"/>
        <pt x="96" y="379" on="0"/>
        <pt x="103" y="412" on="0"/>
        <pt x="125" y="459" on="0"/>
        <pt x="167" y="507" on="0"/>
        <pt x="236" y="540" on="0"/>
        <pt x="288" y="540" on="1"/>
        <pt x="375" y="540" on="0"/>
        <pt x="482" y="435" on="0"/>
        <pt x="482" y="340" on="1"/>
        <pt x="482" y="0" on="1"/>
        <pt x="482" y="0" on="0"/>
        <pt x="453" y="-15" on="0"/>
        <pt x="424" y="-47" on="0"/>
        <pt x="424" y="-71" on="1"/>
        <pt x="424" y="-93" on="0"/>
        <pt x="455" y="-120" on="0"/>
        <pt x="486" y="-120" on="1"/>
        <pt x="501" y="-120" on="0"/>
        <pt x="526" y="-115" on="0"/>
        <pt x="526" y="-115" on="1"/>
        <pt x="526" y="-143" on="1"/>
        <pt x="526" y="-143" on="0"/>
        <pt x="500" y="-149" on="0"/>
      </contour>
      <contour>
        <pt x="120" y="136" on="1"/>
        <pt x="120" y="97" on="0"/>
        <pt x="160" y="47" on="0"/>
        <pt x="223" y="23" on="0"/>
        <pt x="256" y="23" on="1"/>
        <pt x="316" y="23" on="0"/>
        <pt x="401" y="84" on="0"/>
        <pt x="447" y="184" on="0"/>
        <pt x="447" y="242" on="1"/>
        <pt x="447" y="273" on="1"/>
        <pt x="255" y="251" on="1"/>
        <pt x="194" y="244" on="0"/>
        <pt x="120" y="189" on="0"/>
      </contour>
    </TTGlyph>
    <TTGlyph name="approxequal" xMin="118" yMin="165" xMax="397" yMax="470">
      <contour>
        <pt x="324" y="360" on="1"/>
        <pt x="299" y="360" on="0"/>
        <pt x="265" y="384" on="0"/>
        <pt x="238" y="417" on="0"/>
        <pt x="211" y="441" on="0"/>
        <pt x="192" y="441" on="1"/>
        <pt x="170" y="441" on="0"/>
        <pt x="151" y="401" on="0"/>
        <pt x="151" y="365" on="1"/>
        <pt x="118" y="365" on="1"/>
        <pt x="118" y="409" on="0"/>
        <pt x="153" y="470" on="0"/>
        <pt x="192" y="470" on="1"/>
        <pt x="219" y="470" on="0"/>
        <pt x="254" y="446" on="0"/>
        <pt x="281" y="413" on="0"/>
        <pt x="307" y="389" on="0"/>
        <pt x="325" y="389" on="1"/>
        <pt x="346" y="389" on="0"/>
        <pt x="364" y="430" on="0"/>
        <pt x="364" y="465" on="1"/>
        <pt x="397" y="465" on="1"/>
        <pt x="397" y="422" on="0"/>
        <pt x="362" y="360" on="0"/>
      </contour>
      <contour>
        <pt x="324" y="165" on="1"/>
        <pt x="299" y="165" on="0"/>
        <pt x="265" y="189" on="0"/>
        <pt x="238" y="222" on="0"/>
        <pt x="211" y="246" on="0"/>
        <pt x="192" y="246" on="1"/>
        <pt x="170" y="246" on="0"/>
        <pt x="151" y="206" on="0"/>
        <pt x="151" y="170" on="1"/>
        <pt x="118" y="170" on="1"/>
        <pt x="118" y="214" on="0"/>
        <pt x="153" y="275" on="0"/>
        <pt x="192" y="275" on="1"/>
        <pt x="219" y="275" on="0"/>
        <pt x="254" y="251" on="0"/>
        <pt x="281" y="218" on="0"/>
        <pt x="307" y="194" on="0"/>
        <pt x="325" y="194" on="1"/>
        <pt x="346" y="194" on="0"/>
        <pt x="364" y="235" on="0"/>
        <pt x="364" y="270" on="1"/>
        <pt x="397" y="270" on="1"/>
        <pt x="397" y="227" on="0"/>
        <pt x="362" y="165" on="0"/>
      </contour>
    </TTGlyph>
    <TTGlyph name="aring" xMin="70" yMin="-10" xMax="545" yMax="801">
      <contour>
        <pt x="309" y="614" on="1"/>
        <pt x="270" y="614" on="0"/>
        <pt x="216" y="669" on="0"/>
        <pt x="216" y="707" on="1"/>
        <pt x="216" y="746" on="0"/>
        <pt x="270" y="801" on="0"/>
        <pt x="309" y="801" on="1"/>
        <pt x="348" y="801" on="0"/>
        <pt x="402" y="746" on="0"/>
        <pt x="402" y="707" on="1"/>
        <pt x="402" y="669" on="0"/>
        <pt x="348" y="614" on="0"/>
      </contour>
      <contour>
        <pt x="309" y="644" on="1"/>
        <pt x="335" y="644" on="0"/>
        <pt x="372" y="681" on="0"/>
        <pt x="372" y="707" on="1"/>
        <pt x="372" y="733" on="0"/>
        <pt x="335" y="771" on="0"/>
        <pt x="309" y="771" on="1"/>
        <pt x="283" y="771" on="0"/>
        <pt x="246" y="733" on="0"/>
        <pt x="246" y="707" on="1"/>
        <pt x="246" y="681" on="0"/>
        <pt x="283" y="644" on="0"/>
      </contour>
      <contour>
        <pt x="308" y="540" on="1"/>
        <pt x="356" y="540" on="0"/>
        <pt x="425" y="511" on="0"/>
        <pt x="472" y="469" on="0"/>
        <pt x="501" y="427" on="0"/>
        <pt x="507" y="413" on="1"/>
        <pt x="511" y="413" on="1"/>
        <pt x="511" y="530" on="1"/>
        <pt x="545" y="530" on="1"/>
        <pt x="545" y="0" on="1"/>
        <pt x="511" y="0" on="1"/>
        <pt x="511" y="117" on="1"/>
        <pt x="507" y="117" on="1"/>
        <pt x="501" y="104" on="0"/>
        <pt x="472" y="61" on="0"/>
        <pt x="425" y="19" on="0"/>
        <pt x="356" y="-10" on="0"/>
        <pt x="308" y="-10" on="1"/>
        <pt x="248" y="-10" on="0"/>
        <pt x="159" y="36" on="0"/>
        <pt x="100" y="115" on="0"/>
        <pt x="70" y="213" on="0"/>
        <pt x="70" y="265" on="1"/>
        <pt x="70" y="316" on="0"/>
        <pt x="100" y="414" on="0"/>
        <pt x="159" y="493" on="0"/>
        <pt x="248" y="540" on="0"/>
      </contour>
      <contour>
        <pt x="309" y="506" on="1"/>
        <pt x="240" y="506" on="0"/>
        <pt x="149" y="435" on="0"/>
        <pt x="104" y="325" on="0"/>
        <pt x="104" y="265" on="1"/>
        <pt x="104" y="205" on="0"/>
        <pt x="149" y="95" on="0"/>
        <pt x="240" y="24" on="0"/>
        <pt x="309" y="24" on="1"/>
        <pt x="377" y="24" on="0"/>
        <pt x="468" y="95" on="0"/>
        <pt x="513" y="205" on="0"/>
        <pt x="513" y="265" on="1"/>
        <pt x="513" y="325" on="0"/>
        <pt x="468" y="435" on="0"/>
        <pt x="377" y="506" on="0"/>
      </contour>
    </TTGlyph>
    <TTGlyph name="aring.ss01" xMin="85" yMin="-10" xMax="482" yMax="801">
      <contour>
        <pt x="288" y="614" on="1"/>
        <pt x="249" y="614" on="0"/>
        <pt x="195" y="669" on="0"/>
        <pt x="195" y="707" on="1"/>
        <pt x="195" y="746" on="0"/>
        <pt x="249" y="801" on="0"/>
        <pt x="288" y="801" on="1"/>
        <pt x="327" y="801" on="0"/>
        <pt x="381" y="746" on="0"/>
        <pt x="381" y="707" on="1"/>
        <pt x="381" y="669" on="0"/>
        <pt x="327" y="614" on="0"/>
      </contour>
      <contour>
        <pt x="288" y="644" on="1"/>
        <pt x="314" y="644" on="0"/>
        <pt x="351" y="681" on="0"/>
        <pt x="351" y="707" on="1"/>
        <pt x="351" y="733" on="0"/>
        <pt x="314" y="771" on="0"/>
        <pt x="288" y="771" on="1"/>
        <pt x="262" y="771" on="0"/>
        <pt x="225" y="733" on="0"/>
        <pt x="225" y="707" on="1"/>
        <pt x="225" y="681" on="0"/>
        <pt x="262" y="644" on="0"/>
      </contour>
      <contour>
        <pt x="439" y="103" on="1"/>
        <pt x="439" y="103" on="0"/>
        <pt x="419" y="69" on="0"/>
        <pt x="375" y="24" on="0"/>
        <pt x="306" y="-10" on="0"/>
        <pt x="256" y="-10" on="1"/>
        <pt x="212" y="-10" on="0"/>
        <pt x="133" y="23" on="0"/>
        <pt x="85" y="88" on="0"/>
        <pt x="85" y="136" on="1"/>
        <pt x="85" y="188" on="0"/>
        <pt x="137" y="249" on="0"/>
        <pt x="214" y="279" on="0"/>
        <pt x="253" y="283" on="1"/>
        <pt x="447" y="306" on="1"/>
        <pt x="447" y="340" on="1"/>
        <pt x="447" y="361" on="0"/>
        <pt x="436" y="418" on="0"/>
        <pt x="403" y="472" on="0"/>
        <pt x="341" y="507" on="0"/>
        <pt x="290" y="507" on="1"/>
        <pt x="246" y="507" on="0"/>
        <pt x="188" y="481" on="0"/>
        <pt x="153" y="443" on="0"/>
        <pt x="136" y="405" on="0"/>
        <pt x="131" y="379" on="0"/>
        <pt x="131" y="379" on="1"/>
        <pt x="96" y="379" on="1"/>
        <pt x="96" y="379" on="0"/>
        <pt x="103" y="412" on="0"/>
        <pt x="125" y="459" on="0"/>
        <pt x="167" y="507" on="0"/>
        <pt x="236" y="540" on="0"/>
        <pt x="288" y="540" on="1"/>
        <pt x="375" y="540" on="0"/>
        <pt x="482" y="435" on="0"/>
        <pt x="482" y="340" on="1"/>
        <pt x="482" y="0" on="1"/>
        <pt x="447" y="0" on="1"/>
        <pt x="447" y="103" on="1"/>
      </contour>
      <contour>
        <pt x="120" y="136" on="1"/>
        <pt x="120" y="97" on="0"/>
        <pt x="160" y="47" on="0"/>
        <pt x="223" y="23" on="0"/>
        <pt x="256" y="23" on="1"/>
        <pt x="316" y="23" on="0"/>
        <pt x="401" y="84" on="0"/>
        <pt x="447" y="184" on="0"/>
        <pt x="447" y="242" on="1"/>
        <pt x="447" y="273" on="1"/>
        <pt x="255" y="251" on="1"/>
        <pt x="194" y="244" on="0"/>
        <pt x="120" y="189" on="0"/>
      </contour>
    </TTGlyph>
    <TTGlyph name="asciicircum" xMin="118" yMin="588" xMax="377" yMax="740">
      <contour>
        <pt x="118" y="588" on="1"/>
        <pt x="229" y="740" on="1"/>
        <pt x="266" y="740" on="1"/>
        <pt x="377" y="588" on="1"/>
        <pt x="340" y="588" on="1"/>
        <pt x="248" y="712" on="1"/>
        <pt x="155" y="588" on="1"/>
      </contour>
    </TTGlyph>
    <TTGlyph name="asciitilde" xMin="75" yMin="321" xMax="354" yMax="431">
      <contour>
        <pt x="281" y="321" on="1"/>
        <pt x="256" y="321" on="0"/>
        <pt x="222" y="345" on="0"/>
        <pt x="195" y="378" on="0"/>
        <pt x="168" y="402" on="0"/>
        <pt x="149" y="402" on="1"/>
        <pt x="127" y="402" on="0"/>
        <pt x="108" y="362" on="0"/>
        <pt x="108" y="326" on="1"/>
        <pt x="75" y="326" on="1"/>
        <pt x="75" y="370" on="0"/>
        <pt x="110" y="431" on="0"/>
        <pt x="149" y="431" on="1"/>
        <pt x="176" y="431" on="0"/>
        <pt x="211" y="407" on="0"/>
        <pt x="238" y="374" on="0"/>
        <pt x="264" y="350" on="0"/>
        <pt x="282" y="350" on="1"/>
        <pt x="303" y="350" on="0"/>
        <pt x="321" y="391" on="0"/>
        <pt x="321" y="426" on="1"/>
        <pt x="354" y="426" on="1"/>
        <pt x="354" y="383" on="0"/>
        <pt x="319" y="321" on="0"/>
      </contour>
    </TTGlyph>
    <TTGlyph name="asterisk" xMin="50" yMin="365" xMax="445" yMax="740">
      <contour>
        <pt x="143" y="365" on="1"/>
        <pt x="115" y="385" on="1"/>
        <pt x="220" y="529" on="1"/>
        <pt x="50" y="584" on="1"/>
        <pt x="61" y="617" on="1"/>
        <pt x="231" y="561" on="1"/>
        <pt x="231" y="740" on="1"/>
        <pt x="265" y="740" on="1"/>
        <pt x="265" y="561" on="1"/>
        <pt x="435" y="617" on="1"/>
        <pt x="445" y="584" on="1"/>
        <pt x="276" y="529" on="1"/>
        <pt x="380" y="385" on="1"/>
        <pt x="353" y="365" on="1"/>
        <pt x="248" y="509" on="1"/>
      </contour>
    </TTGlyph>
    <TTGlyph name="at" xMin="60" yMin="-78" xMax="873" yMax="740">
      <contour>
        <pt x="483" y="-78" on="1"/>
        <pt x="376" y="-78" on="0"/>
        <pt x="217" y="-12" on="0"/>
        <pt x="112" y="102" on="0"/>
        <pt x="60" y="249" on="0"/>
        <pt x="60" y="329" on="1"/>
        <pt x="60" y="410" on="0"/>
        <pt x="111" y="557" on="0"/>
        <pt x="214" y="673" on="0"/>
        <pt x="366" y="740" on="0"/>
        <pt x="466" y="740" on="1"/>
        <pt x="549" y="740" on="0"/>
        <pt x="696" y="685" on="0"/>
        <pt x="808" y="581" on="0"/>
        <pt x="873" y="432" on="0"/>
        <pt x="873" y="338" on="1"/>
        <pt x="873" y="235" on="0"/>
        <pt x="801" y="110" on="0"/>
        <pt x="732" y="110" on="1"/>
        <pt x="691" y="110" on="0"/>
        <pt x="639" y="149" on="0"/>
        <pt x="612" y="202" on="0"/>
        <pt x="609" y="223" on="1"/>
        <pt x="606" y="223" on="1"/>
        <pt x="598" y="202" on="0"/>
        <pt x="557" y="149" on="0"/>
        <pt x="489" y="110" on="0"/>
        <pt x="439" y="110" on="1"/>
        <pt x="375" y="110" on="0"/>
        <pt x="290" y="174" on="0"/>
        <pt x="248" y="275" on="0"/>
        <pt x="248" y="330" on="1"/>
        <pt x="248" y="385" on="0"/>
        <pt x="290" y="486" on="0"/>
        <pt x="375" y="550" on="0"/>
        <pt x="439" y="550" on="1"/>
        <pt x="489" y="550" on="0"/>
        <pt x="553" y="514" on="0"/>
        <pt x="589" y="469" on="0"/>
        <pt x="596" y="454" on="1"/>
        <pt x="599" y="454" on="1"/>
        <pt x="599" y="542" on="1"/>
        <pt x="630" y="542" on="1"/>
        <pt x="630" y="327" on="1"/>
        <pt x="630" y="311" on="0"/>
        <pt x="634" y="249" on="0"/>
        <pt x="652" y="185" on="0"/>
        <pt x="693" y="140" on="0"/>
        <pt x="731" y="140" on="1"/>
        <pt x="785" y="140" on="0"/>
        <pt x="841" y="246" on="0"/>
        <pt x="841" y="337" on="1"/>
        <pt x="841" y="427" on="0"/>
        <pt x="781" y="566" on="0"/>
        <pt x="676" y="661" on="0"/>
        <pt x="541" y="710" on="0"/>
        <pt x="466" y="710" on="1"/>
        <pt x="373" y="710" on="0"/>
        <pt x="233" y="648" on="0"/>
        <pt x="139" y="541" on="0"/>
        <pt x="92" y="405" on="0"/>
        <pt x="92" y="330" on="1"/>
        <pt x="92" y="255" on="0"/>
        <pt x="140" y="119" on="0"/>
        <pt x="236" y="13" on="0"/>
        <pt x="383" y="-48" on="0"/>
        <pt x="482" y="-48" on="1"/>
        <pt x="557" y="-48" on="0"/>
        <pt x="664" y="-18" on="0"/>
        <pt x="721" y="11" on="0"/>
        <pt x="721" y="11" on="1"/>
        <pt x="735" y="-16" on="1"/>
        <pt x="735" y="-16" on="0"/>
        <pt x="676" y="-47" on="0"/>
        <pt x="563" y="-78" on="0"/>
      </contour>
      <contour>
        <pt x="439" y="139" on="1"/>
        <pt x="493" y="139" on="0"/>
        <pt x="564" y="194" on="0"/>
        <pt x="599" y="282" on="0"/>
        <pt x="599" y="330" on="1"/>
        <pt x="599" y="378" on="0"/>
        <pt x="564" y="465" on="0"/>
        <pt x="493" y="521" on="0"/>
        <pt x="439" y="521" on="1"/>
        <pt x="386" y="521" on="0"/>
        <pt x="315" y="466" on="0"/>
        <pt x="280" y="378" on="0"/>
        <pt x="280" y="330" on="1"/>
        <pt x="280" y="283" on="0"/>
        <pt x="315" y="195" on="0"/>
        <pt x="386" y="139" on="0"/>
      </contour>
    </TTGlyph>
    <TTGlyph name="atilde" xMin="70" yMin="-10" xMax="545" yMax="731">
      <contour>
        <pt x="369" y="621" on="1"/>
        <pt x="347" y="621" on="0"/>
        <pt x="316" y="645" on="0"/>
        <pt x="292" y="678" on="0"/>
        <pt x="267" y="702" on="0"/>
        <pt x="251" y="702" on="1"/>
        <pt x="232" y="702" on="0"/>
        <pt x="215" y="662" on="0"/>
        <pt x="215" y="626" on="1"/>
        <pt x="185" y="626" on="1"/>
        <pt x="185" y="670" on="0"/>
        <pt x="216" y="731" on="0"/>
        <pt x="251" y="731" on="1"/>
        <pt x="275" y="731" on="0"/>
        <pt x="307" y="707" on="0"/>
        <pt x="331" y="674" on="0"/>
        <pt x="354" y="650" on="0"/>
        <pt x="369" y="650" on="1"/>
        <pt x="388" y="650" on="0"/>
        <pt x="404" y="691" on="0"/>
        <pt x="404" y="726" on="1"/>
        <pt x="434" y="726" on="1"/>
        <pt x="434" y="683" on="0"/>
        <pt x="403" y="621" on="0"/>
      </contour>
      <contour>
        <pt x="308" y="540" on="1"/>
        <pt x="356" y="540" on="0"/>
        <pt x="425" y="511" on="0"/>
        <pt x="472" y="469" on="0"/>
        <pt x="501" y="427" on="0"/>
        <pt x="507" y="413" on="1"/>
        <pt x="511" y="413" on="1"/>
        <pt x="511" y="530" on="1"/>
        <pt x="545" y="530" on="1"/>
        <pt x="545" y="0" on="1"/>
        <pt x="511" y="0" on="1"/>
        <pt x="511" y="117" on="1"/>
        <pt x="507" y="117" on="1"/>
        <pt x="501" y="104" on="0"/>
        <pt x="472" y="61" on="0"/>
        <pt x="425" y="19" on="0"/>
        <pt x="356" y="-10" on="0"/>
        <pt x="308" y="-10" on="1"/>
        <pt x="248" y="-10" on="0"/>
        <pt x="159" y="36" on="0"/>
        <pt x="100" y="115" on="0"/>
        <pt x="70" y="213" on="0"/>
        <pt x="70" y="265" on="1"/>
        <pt x="70" y="316" on="0"/>
        <pt x="100" y="414" on="0"/>
        <pt x="159" y="493" on="0"/>
        <pt x="248" y="540" on="0"/>
      </contour>
      <contour>
        <pt x="309" y="506" on="1"/>
        <pt x="240" y="506" on="0"/>
        <pt x="149" y="435" on="0"/>
        <pt x="104" y="325" on="0"/>
        <pt x="104" y="265" on="1"/>
        <pt x="104" y="205" on="0"/>
        <pt x="149" y="95" on="0"/>
        <pt x="240" y="24" on="0"/>
        <pt x="309" y="24" on="1"/>
        <pt x="377" y="24" on="0"/>
        <pt x="468" y="95" on="0"/>
        <pt x="513" y="205" on="0"/>
        <pt x="513" y="265" on="1"/>
        <pt x="513" y="325" on="0"/>
        <pt x="468" y="435" on="0"/>
        <pt x="377" y="506" on="0"/>
      </contour>
    </TTGlyph>
    <TTGlyph name="atilde.ss01" xMin="85" yMin="-10" xMax="482" yMax="731">
      <contour>
        <pt x="348" y="621" on="1"/>
        <pt x="326" y="621" on="0"/>
        <pt x="295" y="645" on="0"/>
        <pt x="271" y="678" on="0"/>
        <pt x="246" y="702" on="0"/>
        <pt x="230" y="702" on="1"/>
        <pt x="211" y="702" on="0"/>
        <pt x="194" y="662" on="0"/>
        <pt x="194" y="626" on="1"/>
        <pt x="164" y="626" on="1"/>
        <pt x="164" y="670" on="0"/>
        <pt x="195" y="731" on="0"/>
        <pt x="230" y="731" on="1"/>
        <pt x="254" y="731" on="0"/>
        <pt x="286" y="707" on="0"/>
        <pt x="310" y="674" on="0"/>
        <pt x="333" y="650" on="0"/>
        <pt x="348" y="650" on="1"/>
        <pt x="367" y="650" on="0"/>
        <pt x="383" y="691" on="0"/>
        <pt x="383" y="726" on="1"/>
        <pt x="413" y="726" on="1"/>
        <pt x="413" y="683" on="0"/>
        <pt x="382" y="621" on="0"/>
      </contour>
      <contour>
        <pt x="439" y="103" on="1"/>
        <pt x="439" y="103" on="0"/>
        <pt x="419" y="69" on="0"/>
        <pt x="375" y="24" on="0"/>
        <pt x="306" y="-10" on="0"/>
        <pt x="256" y="-10" on="1"/>
        <pt x="212" y="-10" on="0"/>
        <pt x="133" y="23" on="0"/>
        <pt x="85" y="88" on="0"/>
        <pt x="85" y="136" on="1"/>
        <pt x="85" y="188" on="0"/>
        <pt x="137" y="249" on="0"/>
        <pt x="214" y="279" on="0"/>
        <pt x="253" y="283" on="1"/>
        <pt x="447" y="306" on="1"/>
        <pt x="447" y="340" on="1"/>
        <pt x="447" y="361" on="0"/>
        <pt x="436" y="418" on="0"/>
        <pt x="403" y="472" on="0"/>
        <pt x="341" y="507" on="0"/>
        <pt x="290" y="507" on="1"/>
        <pt x="246" y="507" on="0"/>
        <pt x="188" y="481" on="0"/>
        <pt x="153" y="443" on="0"/>
        <pt x="136" y="405" on="0"/>
        <pt x="131" y="379" on="0"/>
        <pt x="131" y="379" on="1"/>
        <pt x="96" y="379" on="1"/>
        <pt x="96" y="379" on="0"/>
        <pt x="103" y="412" on="0"/>
        <pt x="125" y="459" on="0"/>
        <pt x="167" y="507" on="0"/>
        <pt x="236" y="540" on="0"/>
        <pt x="288" y="540" on="1"/>
        <pt x="375" y="540" on="0"/>
        <pt x="482" y="435" on="0"/>
        <pt x="482" y="340" on="1"/>
        <pt x="482" y="0" on="1"/>
        <pt x="447" y="0" on="1"/>
        <pt x="447" y="103" on="1"/>
      </contour>
      <contour>
        <pt x="120" y="136" on="1"/>
        <pt x="120" y="97" on="0"/>
        <pt x="160" y="47" on="0"/>
        <pt x="223" y="23" on="0"/>
        <pt x="256" y="23" on="1"/>
        <pt x="316" y="23" on="0"/>
        <pt x="401" y="84" on="0"/>
        <pt x="447" y="184" on="0"/>
        <pt x="447" y="242" on="1"/>
        <pt x="447" y="273" on="1"/>
        <pt x="255" y="251" on="1"/>
        <pt x="194" y="244" on="0"/>
        <pt x="120" y="189" on="0"/>
      </contour>
    </TTGlyph>
    <TTGlyph name="b" xMin="90" yMin="-10" xMax="565" yMax="760">
      <contour>
        <pt x="327" y="-10" on="1"/>
        <pt x="279" y="-10" on="0"/>
        <pt x="210" y="19" on="0"/>
        <pt x="163" y="61" on="0"/>
        <pt x="134" y="104" on="0"/>
        <pt x="128" y="117" on="1"/>
        <pt x="124" y="117" on="1"/>
        <pt x="124" y="0" on="1"/>
        <pt x="90" y="0" on="1"/>
        <pt x="90" y="760" on="1"/>
        <pt x="124" y="760" on="1"/>
        <pt x="124" y="413" on="1"/>
        <pt x="128" y="413" on="1"/>
        <pt x="134" y="427" on="0"/>
        <pt x="163" y="469" on="0"/>
        <pt x="210" y="511" on="0"/>
        <pt x="279" y="540" on="0"/>
        <pt x="327" y="540" on="1"/>
        <pt x="387" y="540" on="0"/>
        <pt x="476" y="494" on="0"/>
        <pt x="535" y="415" on="0"/>
        <pt x="565" y="317" on="0"/>
        <pt x="565" y="265" on="1"/>
        <pt x="565" y="214" on="0"/>
        <pt x="535" y="116" on="0"/>
        <pt x="476" y="37" on="0"/>
        <pt x="387" y="-10" on="0"/>
      </contour>
      <contour>
        <pt x="326" y="24" on="1"/>
        <pt x="396" y="24" on="0"/>
        <pt x="486" y="95" on="0"/>
        <pt x="531" y="206" on="0"/>
        <pt x="531" y="265" on="1"/>
        <pt x="531" y="325" on="0"/>
        <pt x="486" y="435" on="0"/>
        <pt x="396" y="506" on="0"/>
        <pt x="326" y="506" on="1"/>
        <pt x="258" y="506" on="0"/>
        <pt x="167" y="435" on="0"/>
        <pt x="122" y="325" on="0"/>
        <pt x="122" y="265" on="1"/>
        <pt x="122" y="206" on="0"/>
        <pt x="167" y="95" on="0"/>
        <pt x="258" y="24" on="0"/>
      </contour>
    </TTGlyph>
    <TTGlyph name="backslash" xMin="26" yMin="-118" xMax="405" yMax="818">
      <contour>
        <pt x="405" y="-118" on="1"/>
        <pt x="371" y="-118" on="1"/>
        <pt x="26" y="818" on="1"/>
        <pt x="60" y="818" on="1"/>
      </contour>
    </TTGlyph>
    <TTGlyph name="bar" xMin="170" yMin="-222" xMax="204" yMax="950">
      <contour>
        <pt x="170" y="-222" on="1"/>
        <pt x="170" y="950" on="1"/>
        <pt x="204" y="950" on="1"/>
        <pt x="204" y="-222" on="1"/>
      </contour>
    </TTGlyph>
</ttFont>
